<?xml version="1.0" encoding="utf-8" standalone="no"?>
<!DOCTYPE svg PUBLIC "-//W3C//DTD SVG 1.1//EN"
  "http://www.w3.org/Graphics/SVG/1.1/DTD/svg11.dtd">
<svg xmlns:xlink="http://www.w3.org/1999/xlink" width="864pt" height="144pt" viewBox="0 0 864 144" xmlns="http://www.w3.org/2000/svg" version="1.1">
 <metadata>
  <rdf:RDF xmlns:dc="http://purl.org/dc/elements/1.1/" xmlns:cc="http://creativecommons.org/ns#" xmlns:rdf="http://www.w3.org/1999/02/22-rdf-syntax-ns#">
   <cc:Work>
    <dc:type rdf:resource="http://purl.org/dc/dcmitype/StillImage"/>
    <dc:date>2023-05-23T21:44:06.879548</dc:date>
    <dc:format>image/svg+xml</dc:format>
    <dc:creator>
     <cc:Agent>
      <dc:title>Matplotlib v3.7.1, https://matplotlib.org/</dc:title>
     </cc:Agent>
    </dc:creator>
   </cc:Work>
  </rdf:RDF>
 </metadata>
 <defs>
  <style type="text/css">*{stroke-linejoin: round; stroke-linecap: butt}</style>
 </defs>
 <g id="figure_1">
  <g id="patch_1">
   <path d="M 0 144 
L 864 144 
L 864 0 
L 0 0 
z
" style="fill: #ffffff"/>
  </g>
  <g id="axes_1">
   <g id="patch_2">
    <path d="M 108 128.16 
L 412.363636 128.16 
L 412.363636 17.28 
L 108 17.28 
z
" style="fill: #ffffff"/>
   </g>
   <g id="PolyCollection_1">
    <defs>
     <path id="m78e9493eaf" d="M 121.834711 -15.840057 
L 121.834711 -15.84 
L 123.225134 -15.84 
L 124.615557 -15.84 
L 126.00598 -15.84 
L 127.396404 -15.84 
L 128.786827 -15.84 
L 130.17725 -15.84 
L 131.567673 -15.84 
L 132.958096 -15.84 
L 134.348519 -15.84 
L 135.738943 -15.84 
L 137.129366 -15.84 
L 138.519789 -15.84 
L 139.910212 -15.84 
L 141.300635 -15.84 
L 142.691059 -15.84 
L 144.081482 -15.84 
L 145.471905 -15.84 
L 146.862328 -15.84 
L 148.252751 -15.84 
L 149.643175 -15.84 
L 151.033598 -15.84 
L 152.424021 -15.84 
L 153.814444 -15.84 
L 155.204867 -15.84 
L 156.595291 -15.84 
L 157.985714 -15.84 
L 159.376137 -15.84 
L 160.76656 -15.84 
L 162.156983 -15.84 
L 163.547406 -15.84 
L 164.93783 -15.84 
L 166.328253 -15.84 
L 167.718676 -15.84 
L 169.109099 -15.84 
L 170.499522 -15.84 
L 171.889946 -15.84 
L 173.280369 -15.84 
L 174.670792 -15.84 
L 176.061215 -15.84 
L 177.451638 -15.84 
L 178.842062 -15.84 
L 180.232485 -15.84 
L 181.622908 -15.84 
L 183.013331 -15.84 
L 184.403754 -15.84 
L 185.794177 -15.84 
L 187.184601 -15.84 
L 188.575024 -15.84 
L 189.965447 -15.84 
L 191.35587 -15.84 
L 192.746293 -15.84 
L 194.136717 -15.84 
L 195.52714 -15.84 
L 196.917563 -15.84 
L 198.307986 -15.84 
L 199.698409 -15.84 
L 201.088833 -15.84 
L 202.479256 -15.84 
L 203.869679 -15.84 
L 205.260102 -15.84 
L 206.650525 -15.84 
L 208.040949 -15.84 
L 209.431372 -15.84 
L 210.821795 -15.84 
L 212.212218 -15.84 
L 213.602641 -15.84 
L 214.993064 -15.84 
L 216.383488 -15.84 
L 217.773911 -15.84 
L 219.164334 -15.84 
L 220.554757 -15.84 
L 221.94518 -15.84 
L 223.335604 -15.84 
L 224.726027 -15.84 
L 226.11645 -15.84 
L 227.506873 -15.84 
L 228.897296 -15.84 
L 230.28772 -15.84 
L 231.678143 -15.84 
L 233.068566 -15.84 
L 234.458989 -15.84 
L 235.849412 -15.84 
L 237.239836 -15.84 
L 238.630259 -15.84 
L 240.020682 -15.84 
L 241.411105 -15.84 
L 242.801528 -15.84 
L 244.191951 -15.84 
L 245.582375 -15.84 
L 246.972798 -15.84 
L 248.363221 -15.84 
L 249.753644 -15.84 
L 251.144067 -15.84 
L 252.534491 -15.84 
L 253.924914 -15.84 
L 255.315337 -15.84 
L 256.70576 -15.84 
L 258.096183 -15.84 
L 259.486607 -15.84 
L 260.87703 -15.84 
L 262.267453 -15.84 
L 263.657876 -15.84 
L 265.048299 -15.84 
L 266.438723 -15.84 
L 267.829146 -15.84 
L 269.219569 -15.84 
L 270.609992 -15.84 
L 272.000415 -15.84 
L 273.390838 -15.84 
L 274.781262 -15.84 
L 276.171685 -15.84 
L 277.562108 -15.84 
L 278.952531 -15.84 
L 280.342954 -15.84 
L 281.733378 -15.84 
L 283.123801 -15.84 
L 284.514224 -15.84 
L 285.904647 -15.84 
L 287.29507 -15.84 
L 288.685494 -15.84 
L 290.075917 -15.84 
L 291.46634 -15.84 
L 292.856763 -15.84 
L 294.247186 -15.84 
L 295.63761 -15.84 
L 297.028033 -15.84 
L 298.418456 -15.84 
L 299.808879 -15.84 
L 301.199302 -15.84 
L 302.589725 -15.84 
L 303.980149 -15.84 
L 305.370572 -15.84 
L 306.760995 -15.84 
L 308.151418 -15.84 
L 309.541841 -15.84 
L 310.932265 -15.84 
L 312.322688 -15.84 
L 313.713111 -15.84 
L 315.103534 -15.84 
L 316.493957 -15.84 
L 317.884381 -15.84 
L 319.274804 -15.84 
L 320.665227 -15.84 
L 322.05565 -15.84 
L 323.446073 -15.84 
L 324.836497 -15.84 
L 326.22692 -15.84 
L 327.617343 -15.84 
L 329.007766 -15.84 
L 330.398189 -15.84 
L 331.788612 -15.84 
L 333.179036 -15.84 
L 334.569459 -15.84 
L 335.959882 -15.84 
L 337.350305 -15.84 
L 338.740728 -15.84 
L 340.131152 -15.84 
L 341.521575 -15.84 
L 342.911998 -15.84 
L 344.302421 -15.84 
L 345.692844 -15.84 
L 347.083268 -15.84 
L 348.473691 -15.84 
L 349.864114 -15.84 
L 351.254537 -15.84 
L 352.64496 -15.84 
L 354.035384 -15.84 
L 355.425807 -15.84 
L 356.81623 -15.84 
L 358.206653 -15.84 
L 359.597076 -15.84 
L 360.987499 -15.84 
L 362.377923 -15.84 
L 363.768346 -15.84 
L 365.158769 -15.84 
L 366.549192 -15.84 
L 367.939615 -15.84 
L 369.330039 -15.84 
L 370.720462 -15.84 
L 372.110885 -15.84 
L 373.501308 -15.84 
L 374.891731 -15.84 
L 376.282155 -15.84 
L 377.672578 -15.84 
L 379.063001 -15.84 
L 380.453424 -15.84 
L 381.843847 -15.84 
L 383.234271 -15.84 
L 384.624694 -15.84 
L 386.015117 -15.84 
L 387.40554 -15.84 
L 388.795963 -15.84 
L 390.186386 -15.84 
L 391.57681 -15.84 
L 392.967233 -15.84 
L 394.357656 -15.84 
L 395.748079 -15.84 
L 397.138502 -15.84 
L 398.528926 -15.84 
L 398.528926 -15.840011 
L 398.528926 -15.840011 
L 397.138502 -15.840044 
L 395.748079 -15.840135 
L 394.357656 -15.840323 
L 392.967233 -15.840607 
L 391.57681 -15.8409 
L 390.186386 -15.841071 
L 388.795963 -15.841081 
L 387.40554 -15.841076 
L 386.015117 -15.84128 
L 384.624694 -15.841792 
L 383.234271 -15.842515 
L 381.843847 -15.843319 
L 380.453424 -15.844199 
L 379.063001 -15.845155 
L 377.672578 -15.845984 
L 376.282155 -15.846372 
L 374.891731 -15.846232 
L 373.501308 -15.845821 
L 372.110885 -15.845459 
L 370.720462 -15.845223 
L 369.330039 -15.844983 
L 367.939615 -15.844698 
L 366.549192 -15.844599 
L 365.158769 -15.845024 
L 363.768346 -15.84617 
L 362.377923 -15.848082 
L 360.987499 -15.850732 
L 359.597076 -15.853877 
L 358.206653 -15.856942 
L 356.81623 -15.859346 
L 355.425807 -15.861008 
L 354.035384 -15.862407 
L 352.64496 -15.864169 
L 351.254537 -15.86663 
L 349.864114 -15.869677 
L 348.473691 -15.872985 
L 347.083268 -15.876367 
L 345.692844 -15.879793 
L 344.302421 -15.883328 
L 342.911998 -15.887416 
L 341.521575 -15.893125 
L 340.131152 -15.901673 
L 338.740728 -15.91363 
L 337.350305 -15.928762 
L 335.959882 -15.946666 
L 334.569459 -15.967317 
L 333.179036 -15.990935 
L 331.788612 -16.017928 
L 330.398189 -16.049983 
L 329.007766 -16.09191 
L 327.617343 -16.153094 
L 326.22692 -16.248211 
L 324.836497 -16.398143 
L 323.446073 -16.632099 
L 322.05565 -16.990838 
L 320.665227 -17.530043 
L 319.274804 -18.322817 
L 317.884381 -19.458929 
L 316.493957 -21.037387 
L 315.103534 -23.151916 
L 313.713111 -25.872306 
L 312.322688 -29.222827 
L 310.932265 -33.156563 
L 309.541841 -37.530088 
L 308.151418 -42.096415 
L 306.760995 -46.538785 
L 305.370572 -50.541329 
L 303.980149 -53.853832 
L 302.589725 -56.314177 
L 301.199302 -57.841649 
L 299.808879 -58.432792 
L 298.418456 -58.159204 
L 297.028033 -57.148738 
L 295.63761 -55.554793 
L 294.247186 -53.534121 
L 292.856763 -51.234807 
L 291.46634 -48.782428 
L 290.075917 -46.269724 
L 288.685494 -43.764564 
L 287.29507 -41.327851 
L 285.904647 -39.018295 
L 284.514224 -36.881469 
L 283.123801 -34.942595 
L 281.733378 -33.213144 
L 280.342954 -31.698774 
L 278.952531 -30.398146 
L 277.562108 -29.300957 
L 276.171685 -28.391498 
L 274.781262 -27.648886 
L 273.390838 -27.041785 
L 272.000415 -26.532129 
L 270.609992 -26.093815 
L 269.219569 -25.727556 
L 267.829146 -25.450994 
L 266.438723 -25.272351 
L 265.048299 -25.176979 
L 263.657876 -25.137911 
L 262.267453 -25.132421 
L 260.87703 -25.148257 
L 259.486607 -25.182578 
L 258.096183 -25.240393 
L 256.70576 -25.331962 
L 255.315337 -25.466991 
L 253.924914 -25.646211 
L 252.534491 -25.854664 
L 251.144067 -26.063704 
L 249.753644 -26.243766 
L 248.363221 -26.379663 
L 246.972798 -26.47759 
L 245.582375 -26.559208 
L 244.191951 -26.646031 
L 242.801528 -26.744822 
L 241.411105 -26.845758 
L 240.020682 -26.933792 
L 238.630259 -27.00113 
L 237.239836 -27.049196 
L 235.849412 -27.080685 
L 234.458989 -27.093003 
L 233.068566 -27.081158 
L 231.678143 -27.044812 
L 230.28772 -26.988636 
L 228.897296 -26.914588 
L 227.506873 -26.81665 
L 226.11645 -26.68658 
L 224.726027 -26.524279 
L 223.335604 -26.339438 
L 221.94518 -26.142763 
L 220.554757 -25.93723 
L 219.164334 -25.717454 
L 217.773911 -25.475487 
L 216.383488 -25.206042 
L 214.993064 -24.908396 
L 213.602641 -24.587691 
L 212.212218 -24.25385 
L 210.821795 -23.914168 
L 209.431372 -23.566982 
L 208.040949 -23.206775 
L 206.650525 -22.833845 
L 205.260102 -22.454365 
L 203.869679 -22.073254 
L 202.479256 -21.692138 
L 201.088833 -21.312126 
L 199.698409 -20.932399 
L 198.307986 -20.545749 
L 196.917563 -20.1405 
L 195.52714 -19.710545 
L 194.136717 -19.263898 
L 192.746293 -18.819909 
L 191.35587 -18.397298 
L 189.965447 -18.005812 
L 188.575024 -17.648583 
L 187.184601 -17.328343 
L 185.794177 -17.04879 
L 184.403754 -16.811689 
L 183.013331 -16.615356 
L 181.622908 -16.456338 
L 180.232485 -16.331147 
L 178.842062 -16.235402 
L 177.451638 -16.162327 
L 176.061215 -16.104036 
L 174.670792 -16.054847 
L 173.280369 -16.012687 
L 171.889946 -15.977499 
L 170.499522 -15.949247 
L 169.109099 -15.927231 
L 167.718676 -15.910127 
L 166.328253 -15.896404 
L 164.93783 -15.885085 
L 163.547406 -15.876052 
L 162.156983 -15.869421 
L 160.76656 -15.864936 
L 159.376137 -15.862212 
L 157.985714 -15.861178 
L 156.595291 -15.86188 
L 155.204867 -15.863897 
L 153.814444 -15.866099 
L 152.424021 -15.867045 
L 151.033598 -15.865741 
L 149.643175 -15.862226 
L 148.252751 -15.85754 
L 146.862328 -15.853182 
L 145.471905 -15.850408 
L 144.081482 -15.849624 
L 142.691059 -15.850142 
L 141.300635 -15.850549 
L 139.910212 -15.849688 
L 138.519789 -15.847502 
L 137.129366 -15.844958 
L 135.738943 -15.843209 
L 134.348519 -15.84284 
L 132.958096 -15.843635 
L 131.567673 -15.844735 
L 130.17725 -15.845152 
L 128.786827 -15.844454 
L 127.396404 -15.843028 
L 126.00598 -15.841615 
L 124.615557 -15.840676 
L 123.225134 -15.840222 
L 121.834711 -15.840057 
z
" style="stroke: #008000"/>
    </defs>
    <g clip-path="url(#pfa0b92f21d)">
     <use xlink:href="#m78e9493eaf" x="0" y="144" style="fill: #008000; fill-opacity: 0.2; stroke: #008000"/>
    </g>
   </g>
   <g id="PolyCollection_2">
    <defs>
     <path id="mf8f1f9d79e" d="M 183.471945 -15.849652 
L 183.471945 -15.84 
L 184.190753 -15.84 
L 184.909561 -15.84 
L 185.628369 -15.84 
L 186.347177 -15.84 
L 187.065986 -15.84 
L 187.784794 -15.84 
L 188.503602 -15.84 
L 189.22241 -15.84 
L 189.941218 -15.84 
L 190.660027 -15.84 
L 191.378835 -15.84 
L 192.097643 -15.84 
L 192.816451 -15.84 
L 193.535259 -15.84 
L 194.254067 -15.84 
L 194.972876 -15.84 
L 195.691684 -15.84 
L 196.410492 -15.84 
L 197.1293 -15.84 
L 197.848108 -15.84 
L 198.566917 -15.84 
L 199.285725 -15.84 
L 200.004533 -15.84 
L 200.723341 -15.84 
L 201.442149 -15.84 
L 202.160957 -15.84 
L 202.879766 -15.84 
L 203.598574 -15.84 
L 204.317382 -15.84 
L 205.03619 -15.84 
L 205.754998 -15.84 
L 206.473807 -15.84 
L 207.192615 -15.84 
L 207.911423 -15.84 
L 208.630231 -15.84 
L 209.349039 -15.84 
L 210.067847 -15.84 
L 210.786656 -15.84 
L 211.505464 -15.84 
L 212.224272 -15.84 
L 212.94308 -15.84 
L 213.661888 -15.84 
L 214.380697 -15.84 
L 215.099505 -15.84 
L 215.818313 -15.84 
L 216.537121 -15.84 
L 217.255929 -15.84 
L 217.974737 -15.84 
L 218.693546 -15.84 
L 219.412354 -15.84 
L 220.131162 -15.84 
L 220.84997 -15.84 
L 221.568778 -15.84 
L 222.287587 -15.84 
L 223.006395 -15.84 
L 223.725203 -15.84 
L 224.444011 -15.84 
L 225.162819 -15.84 
L 225.881627 -15.84 
L 226.600436 -15.84 
L 227.319244 -15.84 
L 228.038052 -15.84 
L 228.75686 -15.84 
L 229.475668 -15.84 
L 230.194477 -15.84 
L 230.913285 -15.84 
L 231.632093 -15.84 
L 232.350901 -15.84 
L 233.069709 -15.84 
L 233.788517 -15.84 
L 234.507326 -15.84 
L 235.226134 -15.84 
L 235.944942 -15.84 
L 236.66375 -15.84 
L 237.382558 -15.84 
L 238.101367 -15.84 
L 238.820175 -15.84 
L 239.538983 -15.84 
L 240.257791 -15.84 
L 240.976599 -15.84 
L 241.695408 -15.84 
L 242.414216 -15.84 
L 243.133024 -15.84 
L 243.851832 -15.84 
L 244.57064 -15.84 
L 245.289448 -15.84 
L 246.008257 -15.84 
L 246.727065 -15.84 
L 247.445873 -15.84 
L 248.164681 -15.84 
L 248.883489 -15.84 
L 249.602298 -15.84 
L 250.321106 -15.84 
L 251.039914 -15.84 
L 251.758722 -15.84 
L 252.47753 -15.84 
L 253.196338 -15.84 
L 253.915147 -15.84 
L 254.633955 -15.84 
L 255.352763 -15.84 
L 256.071571 -15.84 
L 256.790379 -15.84 
L 257.509188 -15.84 
L 258.227996 -15.84 
L 258.946804 -15.84 
L 259.665612 -15.84 
L 260.38442 -15.84 
L 261.103228 -15.84 
L 261.822037 -15.84 
L 262.540845 -15.84 
L 263.259653 -15.84 
L 263.978461 -15.84 
L 264.697269 -15.84 
L 265.416078 -15.84 
L 266.134886 -15.84 
L 266.853694 -15.84 
L 267.572502 -15.84 
L 268.29131 -15.84 
L 269.010118 -15.84 
L 269.728927 -15.84 
L 270.447735 -15.84 
L 271.166543 -15.84 
L 271.885351 -15.84 
L 272.604159 -15.84 
L 273.322968 -15.84 
L 274.041776 -15.84 
L 274.760584 -15.84 
L 275.479392 -15.84 
L 276.1982 -15.84 
L 276.917008 -15.84 
L 277.635817 -15.84 
L 278.354625 -15.84 
L 279.073433 -15.84 
L 279.792241 -15.84 
L 280.511049 -15.84 
L 281.229858 -15.84 
L 281.948666 -15.84 
L 282.667474 -15.84 
L 283.386282 -15.84 
L 284.10509 -15.84 
L 284.823898 -15.84 
L 285.542707 -15.84 
L 286.261515 -15.84 
L 286.980323 -15.84 
L 287.699131 -15.84 
L 288.417939 -15.84 
L 289.136748 -15.84 
L 289.855556 -15.84 
L 290.574364 -15.84 
L 291.293172 -15.84 
L 292.01198 -15.84 
L 292.730788 -15.84 
L 293.449597 -15.84 
L 294.168405 -15.84 
L 294.887213 -15.84 
L 295.606021 -15.84 
L 296.324829 -15.84 
L 297.043638 -15.84 
L 297.762446 -15.84 
L 298.481254 -15.84 
L 299.200062 -15.84 
L 299.91887 -15.84 
L 300.637678 -15.84 
L 301.356487 -15.84 
L 302.075295 -15.84 
L 302.794103 -15.84 
L 303.512911 -15.84 
L 304.231719 -15.84 
L 304.950528 -15.84 
L 305.669336 -15.84 
L 306.388144 -15.84 
L 307.106952 -15.84 
L 307.82576 -15.84 
L 308.544568 -15.84 
L 309.263377 -15.84 
L 309.982185 -15.84 
L 310.700993 -15.84 
L 311.419801 -15.84 
L 312.138609 -15.84 
L 312.857418 -15.84 
L 313.576226 -15.84 
L 314.295034 -15.84 
L 315.013842 -15.84 
L 315.73265 -15.84 
L 316.451458 -15.84 
L 317.170267 -15.84 
L 317.889075 -15.84 
L 318.607883 -15.84 
L 319.326691 -15.84 
L 320.045499 -15.84 
L 320.764308 -15.84 
L 321.483116 -15.84 
L 322.201924 -15.84 
L 322.920732 -15.84 
L 323.63954 -15.84 
L 324.358348 -15.84 
L 325.077157 -15.84 
L 325.795965 -15.84 
L 326.514773 -15.84 
L 326.514773 -15.86428 
L 326.514773 -15.86428 
L 325.795965 -15.88404 
L 325.077157 -15.917999 
L 324.358348 -15.974915 
L 323.63954 -16.067962 
L 322.920732 -16.216332 
L 322.201924 -16.447104 
L 321.483116 -16.797193 
L 320.764308 -17.31516 
L 320.045499 -18.06247 
L 319.326691 -19.113747 
L 318.607883 -20.555481 
L 317.889075 -22.482723 
L 317.170267 -24.993445 
L 316.451458 -28.18058 
L 315.73265 -32.122126 
L 315.013842 -36.870193 
L 314.295034 -42.440232 
L 313.576226 -48.801939 
L 312.857418 -55.873318 
L 312.138609 -63.519059 
L 311.419801 -71.553888 
L 310.700993 -79.750797 
L 309.982185 -87.85345 
L 309.263377 -95.591443 
L 308.544568 -102.696907 
L 307.82576 -108.920874 
L 307.106952 -114.048119 
L 306.388144 -117.909483 
L 305.669336 -120.391078 
L 304.950528 -121.44 
L 304.231719 -121.066321 
L 303.512911 -119.341213 
L 302.794103 -116.391171 
L 302.075295 -112.388478 
L 301.356487 -107.538441 
L 300.637678 -102.064342 
L 299.91887 -96.191519 
L 299.200062 -90.132228 
L 298.481254 -84.072997 
L 297.762446 -78.165801 
L 297.043638 -72.52381 
L 296.324829 -67.221687 
L 295.606021 -62.299673 
L 294.887213 -57.770207 
L 294.168405 -53.625606 
L 293.449597 -49.845478 
L 292.730788 -46.402926 
L 292.01198 -43.269088 
L 291.293172 -40.416043 
L 290.574364 -37.818418 
L 289.855556 -35.454178 
L 289.136748 -33.305022 
L 288.417939 -31.356643 
L 287.699131 -29.598914 
L 286.980323 -28.025893 
L 286.261515 -26.635452 
L 285.542707 -25.428374 
L 284.823898 -24.406849 
L 284.10509 -23.572472 
L 283.386282 -22.924005 
L 282.667474 -22.455256 
L 281.948666 -22.153493 
L 281.229858 -21.998741 
L 280.511049 -21.964163 
L 279.792241 -22.017543 
L 279.073433 -22.123666 
L 278.354625 -22.247229 
L 277.635817 -22.355804 
L 276.917008 -22.422388 
L 276.1982 -22.427173 
L 275.479392 -22.358361 
L 274.760584 -22.212009 
L 274.041776 -21.991117 
L 273.322968 -21.704221 
L 272.604159 -21.363798 
L 271.885351 -20.984717 
L 271.166543 -20.582876 
L 270.447735 -20.174051 
L 269.728927 -19.772948 
L 269.010118 -19.39239 
L 268.29131 -19.042654 
L 267.572502 -18.730953 
L 266.853694 -18.46115 
L 266.134886 -18.233738 
L 265.416078 -18.046129 
L 264.697269 -17.893228 
L 263.978461 -17.768219 
L 263.259653 -17.663482 
L 262.540845 -17.571512 
L 261.822037 -17.485766 
L 261.103228 -17.401331 
L 260.38442 -17.315379 
L 259.665612 -17.227336 
L 258.946804 -17.13876 
L 258.227996 -17.052905 
L 257.509188 -16.97402 
L 256.790379 -16.906467 
L 256.071571 -16.853783 
L 255.352763 -16.817846 
L 254.633955 -16.798316 
L 253.915147 -16.792457 
L 253.196338 -16.795408 
L 252.47753 -16.800858 
L 251.758722 -16.802003 
L 251.039914 -16.792613 
L 250.321106 -16.767977 
L 249.602298 -16.725587 
L 248.883489 -16.665403 
L 248.164681 -16.589706 
L 247.445873 -16.502587 
L 246.727065 -16.4092 
L 246.008257 -16.314947 
L 245.289448 -16.224744 
L 244.57064 -16.142485 
L 243.851832 -16.070751 
L 243.133024 -16.010776 
L 242.414216 -15.962606 
L 241.695408 -15.925381 
L 240.976599 -15.897672 
L 240.257791 -15.877784 
L 239.538983 -15.864009 
L 238.820175 -15.854797 
L 238.101367 -15.848845 
L 237.382558 -15.845128 
L 236.66375 -15.842883 
L 235.944942 -15.841572 
L 235.226134 -15.840832 
L 234.507326 -15.840427 
L 233.788517 -15.840212 
L 233.069709 -15.840102 
L 232.350901 -15.840048 
L 231.632093 -15.840022 
L 230.913285 -15.84001 
L 230.194477 -15.840004 
L 229.475668 -15.840002 
L 228.75686 -15.840001 
L 228.038052 -15.84 
L 227.319244 -15.84 
L 226.600436 -15.84 
L 225.881627 -15.84 
L 225.162819 -15.84 
L 224.444011 -15.84 
L 223.725203 -15.84 
L 223.006395 -15.84 
L 222.287587 -15.84 
L 221.568778 -15.84 
L 220.84997 -15.84 
L 220.131162 -15.84 
L 219.412354 -15.84 
L 218.693546 -15.84 
L 217.974737 -15.84 
L 217.255929 -15.840001 
L 216.537121 -15.840003 
L 215.818313 -15.840006 
L 215.099505 -15.840014 
L 214.380697 -15.840032 
L 213.661888 -15.840068 
L 212.94308 -15.840144 
L 212.224272 -15.840295 
L 211.505464 -15.840584 
L 210.786656 -15.841123 
L 210.067847 -15.842093 
L 209.349039 -15.843783 
L 208.630231 -15.846633 
L 207.911423 -15.85128 
L 207.192615 -15.858603 
L 206.473807 -15.869757 
L 205.754998 -15.886163 
L 205.03619 -15.909456 
L 204.317382 -15.941354 
L 203.598574 -15.983443 
L 202.879766 -16.036892 
L 202.160957 -16.102112 
L 201.442149 -16.17842 
L 200.723341 -16.263777 
L 200.004533 -16.354669 
L 199.285725 -16.446219 
L 198.566917 -16.532535 
L 197.848108 -16.607298 
L 197.1293 -16.664512 
L 196.410492 -16.699291 
L 195.691684 -16.708549 
L 194.972876 -16.691449 
L 194.254067 -16.649532 
L 193.535259 -16.586482 
L 192.816451 -16.507598 
L 192.097643 -16.419057 
L 191.378835 -16.327123 
L 190.660027 -16.237435 
L 189.941218 -16.154488 
L 189.22241 -16.081353 
L 188.503602 -16.019643 
L 187.784794 -15.969682 
L 187.065986 -15.930795 
L 186.347177 -15.901653 
L 185.628369 -15.880602 
L 184.909561 -15.865934 
L 184.190753 -15.856065 
L 183.471945 -15.849652 
z
" style="stroke: #ff0000"/>
    </defs>
    <g clip-path="url(#pfa0b92f21d)">
     <use xlink:href="#mf8f1f9d79e" x="0" y="144" style="fill: #ff0000; fill-opacity: 0.2; stroke: #ff0000"/>
    </g>
   </g>
   <g id="matplotlib.axis_1">
    <g id="xtick_1">
     <g id="line2d_1">
      <defs>
       <path id="mff65d38be2" d="M 0 0 
L 0 3.5 
" style="stroke: #000000; stroke-width: 0.8"/>
      </defs>
      <g>
       <use xlink:href="#mff65d38be2" x="130.296861" y="128.16" style="stroke: #000000; stroke-width: 0.8"/>
      </g>
     </g>
     <g id="text_1">
      <!-- 0 -->
      <g transform="translate(127.115611 142.758438) scale(0.1 -0.1)">
       <defs>
        <path id="DejaVuSans-30" d="M 2034 4250 
Q 1547 4250 1301 3770 
Q 1056 3291 1056 2328 
Q 1056 1369 1301 889 
Q 1547 409 2034 409 
Q 2525 409 2770 889 
Q 3016 1369 3016 2328 
Q 3016 3291 2770 3770 
Q 2525 4250 2034 4250 
z
M 2034 4750 
Q 2819 4750 3233 4129 
Q 3647 3509 3647 2328 
Q 3647 1150 3233 529 
Q 2819 -91 2034 -91 
Q 1250 -91 836 529 
Q 422 1150 422 2328 
Q 422 3509 836 4129 
Q 1250 4750 2034 4750 
z
" transform="scale(0.015625)"/>
       </defs>
       <use xlink:href="#DejaVuSans-30"/>
      </g>
     </g>
    </g>
    <g id="xtick_2">
     <g id="line2d_2">
      <g>
       <use xlink:href="#mff65d38be2" x="173.591847" y="128.16" style="stroke: #000000; stroke-width: 0.8"/>
      </g>
     </g>
     <g id="text_2">
      <!-- 2 -->
      <g transform="translate(170.410597 142.758438) scale(0.1 -0.1)">
       <defs>
        <path id="DejaVuSans-32" d="M 1228 531 
L 3431 531 
L 3431 0 
L 469 0 
L 469 531 
Q 828 903 1448 1529 
Q 2069 2156 2228 2338 
Q 2531 2678 2651 2914 
Q 2772 3150 2772 3378 
Q 2772 3750 2511 3984 
Q 2250 4219 1831 4219 
Q 1534 4219 1204 4116 
Q 875 4013 500 3803 
L 500 4441 
Q 881 4594 1212 4672 
Q 1544 4750 1819 4750 
Q 2544 4750 2975 4387 
Q 3406 4025 3406 3419 
Q 3406 3131 3298 2873 
Q 3191 2616 2906 2266 
Q 2828 2175 2409 1742 
Q 1991 1309 1228 531 
z
" transform="scale(0.015625)"/>
       </defs>
       <use xlink:href="#DejaVuSans-32"/>
      </g>
     </g>
    </g>
    <g id="xtick_3">
     <g id="line2d_3">
      <g>
       <use xlink:href="#mff65d38be2" x="216.886833" y="128.16" style="stroke: #000000; stroke-width: 0.8"/>
      </g>
     </g>
     <g id="text_3">
      <!-- 4 -->
      <g transform="translate(213.705583 142.758438) scale(0.1 -0.1)">
       <defs>
        <path id="DejaVuSans-34" d="M 2419 4116 
L 825 1625 
L 2419 1625 
L 2419 4116 
z
M 2253 4666 
L 3047 4666 
L 3047 1625 
L 3713 1625 
L 3713 1100 
L 3047 1100 
L 3047 0 
L 2419 0 
L 2419 1100 
L 313 1100 
L 313 1709 
L 2253 4666 
z
" transform="scale(0.015625)"/>
       </defs>
       <use xlink:href="#DejaVuSans-34"/>
      </g>
     </g>
    </g>
    <g id="xtick_4">
     <g id="line2d_4">
      <g>
       <use xlink:href="#mff65d38be2" x="260.181818" y="128.16" style="stroke: #000000; stroke-width: 0.8"/>
      </g>
     </g>
     <g id="text_4">
      <!-- 6 -->
      <g transform="translate(257.000568 142.758438) scale(0.1 -0.1)">
       <defs>
        <path id="DejaVuSans-36" d="M 2113 2584 
Q 1688 2584 1439 2293 
Q 1191 2003 1191 1497 
Q 1191 994 1439 701 
Q 1688 409 2113 409 
Q 2538 409 2786 701 
Q 3034 994 3034 1497 
Q 3034 2003 2786 2293 
Q 2538 2584 2113 2584 
z
M 3366 4563 
L 3366 3988 
Q 3128 4100 2886 4159 
Q 2644 4219 2406 4219 
Q 1781 4219 1451 3797 
Q 1122 3375 1075 2522 
Q 1259 2794 1537 2939 
Q 1816 3084 2150 3084 
Q 2853 3084 3261 2657 
Q 3669 2231 3669 1497 
Q 3669 778 3244 343 
Q 2819 -91 2113 -91 
Q 1303 -91 875 529 
Q 447 1150 447 2328 
Q 447 3434 972 4092 
Q 1497 4750 2381 4750 
Q 2619 4750 2861 4703 
Q 3103 4656 3366 4563 
z
" transform="scale(0.015625)"/>
       </defs>
       <use xlink:href="#DejaVuSans-36"/>
      </g>
     </g>
    </g>
    <g id="xtick_5">
     <g id="line2d_5">
      <g>
       <use xlink:href="#mff65d38be2" x="303.476804" y="128.16" style="stroke: #000000; stroke-width: 0.8"/>
      </g>
     </g>
     <g id="text_5">
      <!-- 8 -->
      <g transform="translate(300.295554 142.758438) scale(0.1 -0.1)">
       <defs>
        <path id="DejaVuSans-38" d="M 2034 2216 
Q 1584 2216 1326 1975 
Q 1069 1734 1069 1313 
Q 1069 891 1326 650 
Q 1584 409 2034 409 
Q 2484 409 2743 651 
Q 3003 894 3003 1313 
Q 3003 1734 2745 1975 
Q 2488 2216 2034 2216 
z
M 1403 2484 
Q 997 2584 770 2862 
Q 544 3141 544 3541 
Q 544 4100 942 4425 
Q 1341 4750 2034 4750 
Q 2731 4750 3128 4425 
Q 3525 4100 3525 3541 
Q 3525 3141 3298 2862 
Q 3072 2584 2669 2484 
Q 3125 2378 3379 2068 
Q 3634 1759 3634 1313 
Q 3634 634 3220 271 
Q 2806 -91 2034 -91 
Q 1263 -91 848 271 
Q 434 634 434 1313 
Q 434 1759 690 2068 
Q 947 2378 1403 2484 
z
M 1172 3481 
Q 1172 3119 1398 2916 
Q 1625 2713 2034 2713 
Q 2441 2713 2670 2916 
Q 2900 3119 2900 3481 
Q 2900 3844 2670 4047 
Q 2441 4250 2034 4250 
Q 1625 4250 1398 4047 
Q 1172 3844 1172 3481 
z
" transform="scale(0.015625)"/>
       </defs>
       <use xlink:href="#DejaVuSans-38"/>
      </g>
     </g>
    </g>
    <g id="xtick_6">
     <g id="line2d_6">
      <g>
       <use xlink:href="#mff65d38be2" x="346.771789" y="128.16" style="stroke: #000000; stroke-width: 0.8"/>
      </g>
     </g>
     <g id="text_6">
      <!-- 10 -->
      <g transform="translate(340.409289 142.758438) scale(0.1 -0.1)">
       <defs>
        <path id="DejaVuSans-31" d="M 794 531 
L 1825 531 
L 1825 4091 
L 703 3866 
L 703 4441 
L 1819 4666 
L 2450 4666 
L 2450 531 
L 3481 531 
L 3481 0 
L 794 0 
L 794 531 
z
" transform="scale(0.015625)"/>
       </defs>
       <use xlink:href="#DejaVuSans-31"/>
       <use xlink:href="#DejaVuSans-30" x="63.623047"/>
      </g>
     </g>
    </g>
    <g id="xtick_7">
     <g id="line2d_7">
      <g>
       <use xlink:href="#mff65d38be2" x="390.066775" y="128.16" style="stroke: #000000; stroke-width: 0.8"/>
      </g>
     </g>
     <g id="text_7">
      <!-- 12 -->
      <g transform="translate(383.704275 142.758438) scale(0.1 -0.1)">
       <use xlink:href="#DejaVuSans-31"/>
       <use xlink:href="#DejaVuSans-32" x="63.623047"/>
      </g>
     </g>
    </g>
    <g id="text_8">
     <!-- Mean Ribosome Load -->
     <g transform="translate(222.72799 154.157031) scale(0.07 -0.07)">
      <defs>
       <path id="DejaVuSans-4d" d="M 628 4666 
L 1569 4666 
L 2759 1491 
L 3956 4666 
L 4897 4666 
L 4897 0 
L 4281 0 
L 4281 4097 
L 3078 897 
L 2444 897 
L 1241 4097 
L 1241 0 
L 628 0 
L 628 4666 
z
" transform="scale(0.015625)"/>
       <path id="DejaVuSans-65" d="M 3597 1894 
L 3597 1613 
L 953 1613 
Q 991 1019 1311 708 
Q 1631 397 2203 397 
Q 2534 397 2845 478 
Q 3156 559 3463 722 
L 3463 178 
Q 3153 47 2828 -22 
Q 2503 -91 2169 -91 
Q 1331 -91 842 396 
Q 353 884 353 1716 
Q 353 2575 817 3079 
Q 1281 3584 2069 3584 
Q 2775 3584 3186 3129 
Q 3597 2675 3597 1894 
z
M 3022 2063 
Q 3016 2534 2758 2815 
Q 2500 3097 2075 3097 
Q 1594 3097 1305 2825 
Q 1016 2553 972 2059 
L 3022 2063 
z
" transform="scale(0.015625)"/>
       <path id="DejaVuSans-61" d="M 2194 1759 
Q 1497 1759 1228 1600 
Q 959 1441 959 1056 
Q 959 750 1161 570 
Q 1363 391 1709 391 
Q 2188 391 2477 730 
Q 2766 1069 2766 1631 
L 2766 1759 
L 2194 1759 
z
M 3341 1997 
L 3341 0 
L 2766 0 
L 2766 531 
Q 2569 213 2275 61 
Q 1981 -91 1556 -91 
Q 1019 -91 701 211 
Q 384 513 384 1019 
Q 384 1609 779 1909 
Q 1175 2209 1959 2209 
L 2766 2209 
L 2766 2266 
Q 2766 2663 2505 2880 
Q 2244 3097 1772 3097 
Q 1472 3097 1187 3025 
Q 903 2953 641 2809 
L 641 3341 
Q 956 3463 1253 3523 
Q 1550 3584 1831 3584 
Q 2591 3584 2966 3190 
Q 3341 2797 3341 1997 
z
" transform="scale(0.015625)"/>
       <path id="DejaVuSans-6e" d="M 3513 2113 
L 3513 0 
L 2938 0 
L 2938 2094 
Q 2938 2591 2744 2837 
Q 2550 3084 2163 3084 
Q 1697 3084 1428 2787 
Q 1159 2491 1159 1978 
L 1159 0 
L 581 0 
L 581 3500 
L 1159 3500 
L 1159 2956 
Q 1366 3272 1645 3428 
Q 1925 3584 2291 3584 
Q 2894 3584 3203 3211 
Q 3513 2838 3513 2113 
z
" transform="scale(0.015625)"/>
       <path id="DejaVuSans-20" transform="scale(0.015625)"/>
       <path id="DejaVuSans-52" d="M 2841 2188 
Q 3044 2119 3236 1894 
Q 3428 1669 3622 1275 
L 4263 0 
L 3584 0 
L 2988 1197 
Q 2756 1666 2539 1819 
Q 2322 1972 1947 1972 
L 1259 1972 
L 1259 0 
L 628 0 
L 628 4666 
L 2053 4666 
Q 2853 4666 3247 4331 
Q 3641 3997 3641 3322 
Q 3641 2881 3436 2590 
Q 3231 2300 2841 2188 
z
M 1259 4147 
L 1259 2491 
L 2053 2491 
Q 2509 2491 2742 2702 
Q 2975 2913 2975 3322 
Q 2975 3731 2742 3939 
Q 2509 4147 2053 4147 
L 1259 4147 
z
" transform="scale(0.015625)"/>
       <path id="DejaVuSans-69" d="M 603 3500 
L 1178 3500 
L 1178 0 
L 603 0 
L 603 3500 
z
M 603 4863 
L 1178 4863 
L 1178 4134 
L 603 4134 
L 603 4863 
z
" transform="scale(0.015625)"/>
       <path id="DejaVuSans-62" d="M 3116 1747 
Q 3116 2381 2855 2742 
Q 2594 3103 2138 3103 
Q 1681 3103 1420 2742 
Q 1159 2381 1159 1747 
Q 1159 1113 1420 752 
Q 1681 391 2138 391 
Q 2594 391 2855 752 
Q 3116 1113 3116 1747 
z
M 1159 2969 
Q 1341 3281 1617 3432 
Q 1894 3584 2278 3584 
Q 2916 3584 3314 3078 
Q 3713 2572 3713 1747 
Q 3713 922 3314 415 
Q 2916 -91 2278 -91 
Q 1894 -91 1617 61 
Q 1341 213 1159 525 
L 1159 0 
L 581 0 
L 581 4863 
L 1159 4863 
L 1159 2969 
z
" transform="scale(0.015625)"/>
       <path id="DejaVuSans-6f" d="M 1959 3097 
Q 1497 3097 1228 2736 
Q 959 2375 959 1747 
Q 959 1119 1226 758 
Q 1494 397 1959 397 
Q 2419 397 2687 759 
Q 2956 1122 2956 1747 
Q 2956 2369 2687 2733 
Q 2419 3097 1959 3097 
z
M 1959 3584 
Q 2709 3584 3137 3096 
Q 3566 2609 3566 1747 
Q 3566 888 3137 398 
Q 2709 -91 1959 -91 
Q 1206 -91 779 398 
Q 353 888 353 1747 
Q 353 2609 779 3096 
Q 1206 3584 1959 3584 
z
" transform="scale(0.015625)"/>
       <path id="DejaVuSans-73" d="M 2834 3397 
L 2834 2853 
Q 2591 2978 2328 3040 
Q 2066 3103 1784 3103 
Q 1356 3103 1142 2972 
Q 928 2841 928 2578 
Q 928 2378 1081 2264 
Q 1234 2150 1697 2047 
L 1894 2003 
Q 2506 1872 2764 1633 
Q 3022 1394 3022 966 
Q 3022 478 2636 193 
Q 2250 -91 1575 -91 
Q 1294 -91 989 -36 
Q 684 19 347 128 
L 347 722 
Q 666 556 975 473 
Q 1284 391 1588 391 
Q 1994 391 2212 530 
Q 2431 669 2431 922 
Q 2431 1156 2273 1281 
Q 2116 1406 1581 1522 
L 1381 1569 
Q 847 1681 609 1914 
Q 372 2147 372 2553 
Q 372 3047 722 3315 
Q 1072 3584 1716 3584 
Q 2034 3584 2315 3537 
Q 2597 3491 2834 3397 
z
" transform="scale(0.015625)"/>
       <path id="DejaVuSans-6d" d="M 3328 2828 
Q 3544 3216 3844 3400 
Q 4144 3584 4550 3584 
Q 5097 3584 5394 3201 
Q 5691 2819 5691 2113 
L 5691 0 
L 5113 0 
L 5113 2094 
Q 5113 2597 4934 2840 
Q 4756 3084 4391 3084 
Q 3944 3084 3684 2787 
Q 3425 2491 3425 1978 
L 3425 0 
L 2847 0 
L 2847 2094 
Q 2847 2600 2669 2842 
Q 2491 3084 2119 3084 
Q 1678 3084 1418 2786 
Q 1159 2488 1159 1978 
L 1159 0 
L 581 0 
L 581 3500 
L 1159 3500 
L 1159 2956 
Q 1356 3278 1631 3431 
Q 1906 3584 2284 3584 
Q 2666 3584 2933 3390 
Q 3200 3197 3328 2828 
z
" transform="scale(0.015625)"/>
       <path id="DejaVuSans-4c" d="M 628 4666 
L 1259 4666 
L 1259 531 
L 3531 531 
L 3531 0 
L 628 0 
L 628 4666 
z
" transform="scale(0.015625)"/>
       <path id="DejaVuSans-64" d="M 2906 2969 
L 2906 4863 
L 3481 4863 
L 3481 0 
L 2906 0 
L 2906 525 
Q 2725 213 2448 61 
Q 2172 -91 1784 -91 
Q 1150 -91 751 415 
Q 353 922 353 1747 
Q 353 2572 751 3078 
Q 1150 3584 1784 3584 
Q 2172 3584 2448 3432 
Q 2725 3281 2906 2969 
z
M 947 1747 
Q 947 1113 1208 752 
Q 1469 391 1925 391 
Q 2381 391 2643 752 
Q 2906 1113 2906 1747 
Q 2906 2381 2643 2742 
Q 2381 3103 1925 3103 
Q 1469 3103 1208 2742 
Q 947 2381 947 1747 
z
" transform="scale(0.015625)"/>
      </defs>
      <use xlink:href="#DejaVuSans-4d"/>
      <use xlink:href="#DejaVuSans-65" x="86.279297"/>
      <use xlink:href="#DejaVuSans-61" x="147.802734"/>
      <use xlink:href="#DejaVuSans-6e" x="209.082031"/>
      <use xlink:href="#DejaVuSans-20" x="272.460938"/>
      <use xlink:href="#DejaVuSans-52" x="304.248047"/>
      <use xlink:href="#DejaVuSans-69" x="373.730469"/>
      <use xlink:href="#DejaVuSans-62" x="401.513672"/>
      <use xlink:href="#DejaVuSans-6f" x="464.990234"/>
      <use xlink:href="#DejaVuSans-73" x="526.171875"/>
      <use xlink:href="#DejaVuSans-6f" x="578.271484"/>
      <use xlink:href="#DejaVuSans-6d" x="639.453125"/>
      <use xlink:href="#DejaVuSans-65" x="736.865234"/>
      <use xlink:href="#DejaVuSans-20" x="798.388672"/>
      <use xlink:href="#DejaVuSans-4c" x="830.175781"/>
      <use xlink:href="#DejaVuSans-6f" x="884.138672"/>
      <use xlink:href="#DejaVuSans-61" x="945.320312"/>
      <use xlink:href="#DejaVuSans-64" x="1006.599609"/>
     </g>
    </g>
   </g>
   <g id="matplotlib.axis_2">
    <g id="ytick_1">
     <g id="line2d_8">
      <defs>
       <path id="m9b54dcc498" d="M 0 0 
L -3.5 0 
" style="stroke: #000000; stroke-width: 0.8"/>
      </defs>
      <g>
       <use xlink:href="#m9b54dcc498" x="108" y="128.16" style="stroke: #000000; stroke-width: 0.8"/>
      </g>
     </g>
     <g id="text_9">
      <!-- 0.0 -->
      <g transform="translate(85.096875 131.959219) scale(0.1 -0.1)">
       <defs>
        <path id="DejaVuSans-2e" d="M 684 794 
L 1344 794 
L 1344 0 
L 684 0 
L 684 794 
z
" transform="scale(0.015625)"/>
       </defs>
       <use xlink:href="#DejaVuSans-30"/>
       <use xlink:href="#DejaVuSans-2e" x="63.623047"/>
       <use xlink:href="#DejaVuSans-30" x="95.410156"/>
      </g>
     </g>
    </g>
    <g id="ytick_2">
     <g id="line2d_9">
      <g>
       <use xlink:href="#m9b54dcc498" x="108" y="84.545684" style="stroke: #000000; stroke-width: 0.8"/>
      </g>
     </g>
     <g id="text_10">
      <!-- 0.5 -->
      <g transform="translate(85.096875 88.344902) scale(0.1 -0.1)">
       <defs>
        <path id="DejaVuSans-35" d="M 691 4666 
L 3169 4666 
L 3169 4134 
L 1269 4134 
L 1269 2991 
Q 1406 3038 1543 3061 
Q 1681 3084 1819 3084 
Q 2600 3084 3056 2656 
Q 3513 2228 3513 1497 
Q 3513 744 3044 326 
Q 2575 -91 1722 -91 
Q 1428 -91 1123 -41 
Q 819 9 494 109 
L 494 744 
Q 775 591 1075 516 
Q 1375 441 1709 441 
Q 2250 441 2565 725 
Q 2881 1009 2881 1497 
Q 2881 1984 2565 2268 
Q 2250 2553 1709 2553 
Q 1456 2553 1204 2497 
Q 953 2441 691 2322 
L 691 4666 
z
" transform="scale(0.015625)"/>
       </defs>
       <use xlink:href="#DejaVuSans-30"/>
       <use xlink:href="#DejaVuSans-2e" x="63.623047"/>
       <use xlink:href="#DejaVuSans-35" x="95.410156"/>
      </g>
     </g>
    </g>
    <g id="ytick_3">
     <g id="line2d_10">
      <g>
       <use xlink:href="#m9b54dcc498" x="108" y="40.931367" style="stroke: #000000; stroke-width: 0.8"/>
      </g>
     </g>
     <g id="text_11">
      <!-- 1.0 -->
      <g transform="translate(85.096875 44.730586) scale(0.1 -0.1)">
       <use xlink:href="#DejaVuSans-31"/>
       <use xlink:href="#DejaVuSans-2e" x="63.623047"/>
       <use xlink:href="#DejaVuSans-30" x="95.410156"/>
      </g>
     </g>
    </g>
    <g id="text_12">
     <!-- Density -->
     <g transform="translate(79.641094 86.026016) rotate(-90) scale(0.07 -0.07)">
      <defs>
       <path id="DejaVuSans-44" d="M 1259 4147 
L 1259 519 
L 2022 519 
Q 2988 519 3436 956 
Q 3884 1394 3884 2338 
Q 3884 3275 3436 3711 
Q 2988 4147 2022 4147 
L 1259 4147 
z
M 628 4666 
L 1925 4666 
Q 3281 4666 3915 4102 
Q 4550 3538 4550 2338 
Q 4550 1131 3912 565 
Q 3275 0 1925 0 
L 628 0 
L 628 4666 
z
" transform="scale(0.015625)"/>
       <path id="DejaVuSans-74" d="M 1172 4494 
L 1172 3500 
L 2356 3500 
L 2356 3053 
L 1172 3053 
L 1172 1153 
Q 1172 725 1289 603 
Q 1406 481 1766 481 
L 2356 481 
L 2356 0 
L 1766 0 
Q 1100 0 847 248 
Q 594 497 594 1153 
L 594 3053 
L 172 3053 
L 172 3500 
L 594 3500 
L 594 4494 
L 1172 4494 
z
" transform="scale(0.015625)"/>
       <path id="DejaVuSans-79" d="M 2059 -325 
Q 1816 -950 1584 -1140 
Q 1353 -1331 966 -1331 
L 506 -1331 
L 506 -850 
L 844 -850 
Q 1081 -850 1212 -737 
Q 1344 -625 1503 -206 
L 1606 56 
L 191 3500 
L 800 3500 
L 1894 763 
L 2988 3500 
L 3597 3500 
L 2059 -325 
z
" transform="scale(0.015625)"/>
      </defs>
      <use xlink:href="#DejaVuSans-44"/>
      <use xlink:href="#DejaVuSans-65" x="77.001953"/>
      <use xlink:href="#DejaVuSans-6e" x="138.525391"/>
      <use xlink:href="#DejaVuSans-73" x="201.904297"/>
      <use xlink:href="#DejaVuSans-69" x="254.003906"/>
      <use xlink:href="#DejaVuSans-74" x="281.787109"/>
      <use xlink:href="#DejaVuSans-79" x="320.996094"/>
     </g>
    </g>
   </g>
   <g id="patch_3">
    <path d="M 108 128.16 
L 108 17.28 
" style="fill: none; stroke: #000000; stroke-width: 0.8; stroke-linejoin: miter; stroke-linecap: square"/>
   </g>
   <g id="patch_4">
    <path d="M 412.363636 128.16 
L 412.363636 17.28 
" style="fill: none; stroke: #000000; stroke-width: 0.8; stroke-linejoin: miter; stroke-linecap: square"/>
   </g>
   <g id="patch_5">
    <path d="M 108 128.16 
L 412.363636 128.16 
" style="fill: none; stroke: #000000; stroke-width: 0.8; stroke-linejoin: miter; stroke-linecap: square"/>
   </g>
   <g id="patch_6">
    <path d="M 108 17.28 
L 412.363636 17.28 
" style="fill: none; stroke: #000000; stroke-width: 0.8; stroke-linejoin: miter; stroke-linecap: square"/>
   </g>
   <g id="text_13">
    <!-- p-value = 5.04e-90 -->
    <g transform="translate(138.436364 105.984) scale(0.07 -0.07)">
     <defs>
      <path id="DejaVuSans-70" d="M 1159 525 
L 1159 -1331 
L 581 -1331 
L 581 3500 
L 1159 3500 
L 1159 2969 
Q 1341 3281 1617 3432 
Q 1894 3584 2278 3584 
Q 2916 3584 3314 3078 
Q 3713 2572 3713 1747 
Q 3713 922 3314 415 
Q 2916 -91 2278 -91 
Q 1894 -91 1617 61 
Q 1341 213 1159 525 
z
M 3116 1747 
Q 3116 2381 2855 2742 
Q 2594 3103 2138 3103 
Q 1681 3103 1420 2742 
Q 1159 2381 1159 1747 
Q 1159 1113 1420 752 
Q 1681 391 2138 391 
Q 2594 391 2855 752 
Q 3116 1113 3116 1747 
z
" transform="scale(0.015625)"/>
      <path id="DejaVuSans-2d" d="M 313 2009 
L 1997 2009 
L 1997 1497 
L 313 1497 
L 313 2009 
z
" transform="scale(0.015625)"/>
      <path id="DejaVuSans-76" d="M 191 3500 
L 800 3500 
L 1894 563 
L 2988 3500 
L 3597 3500 
L 2284 0 
L 1503 0 
L 191 3500 
z
" transform="scale(0.015625)"/>
      <path id="DejaVuSans-6c" d="M 603 4863 
L 1178 4863 
L 1178 0 
L 603 0 
L 603 4863 
z
" transform="scale(0.015625)"/>
      <path id="DejaVuSans-75" d="M 544 1381 
L 544 3500 
L 1119 3500 
L 1119 1403 
Q 1119 906 1312 657 
Q 1506 409 1894 409 
Q 2359 409 2629 706 
Q 2900 1003 2900 1516 
L 2900 3500 
L 3475 3500 
L 3475 0 
L 2900 0 
L 2900 538 
Q 2691 219 2414 64 
Q 2138 -91 1772 -91 
Q 1169 -91 856 284 
Q 544 659 544 1381 
z
M 1991 3584 
L 1991 3584 
z
" transform="scale(0.015625)"/>
      <path id="DejaVuSans-3d" d="M 678 2906 
L 4684 2906 
L 4684 2381 
L 678 2381 
L 678 2906 
z
M 678 1631 
L 4684 1631 
L 4684 1100 
L 678 1100 
L 678 1631 
z
" transform="scale(0.015625)"/>
      <path id="DejaVuSans-39" d="M 703 97 
L 703 672 
Q 941 559 1184 500 
Q 1428 441 1663 441 
Q 2288 441 2617 861 
Q 2947 1281 2994 2138 
Q 2813 1869 2534 1725 
Q 2256 1581 1919 1581 
Q 1219 1581 811 2004 
Q 403 2428 403 3163 
Q 403 3881 828 4315 
Q 1253 4750 1959 4750 
Q 2769 4750 3195 4129 
Q 3622 3509 3622 2328 
Q 3622 1225 3098 567 
Q 2575 -91 1691 -91 
Q 1453 -91 1209 -44 
Q 966 3 703 97 
z
M 1959 2075 
Q 2384 2075 2632 2365 
Q 2881 2656 2881 3163 
Q 2881 3666 2632 3958 
Q 2384 4250 1959 4250 
Q 1534 4250 1286 3958 
Q 1038 3666 1038 3163 
Q 1038 2656 1286 2365 
Q 1534 2075 1959 2075 
z
" transform="scale(0.015625)"/>
     </defs>
     <use xlink:href="#DejaVuSans-70"/>
     <use xlink:href="#DejaVuSans-2d" x="63.476562"/>
     <use xlink:href="#DejaVuSans-76" x="96.935547"/>
     <use xlink:href="#DejaVuSans-61" x="156.115234"/>
     <use xlink:href="#DejaVuSans-6c" x="217.394531"/>
     <use xlink:href="#DejaVuSans-75" x="245.177734"/>
     <use xlink:href="#DejaVuSans-65" x="308.556641"/>
     <use xlink:href="#DejaVuSans-20" x="370.080078"/>
     <use xlink:href="#DejaVuSans-3d" x="401.867188"/>
     <use xlink:href="#DejaVuSans-20" x="485.65625"/>
     <use xlink:href="#DejaVuSans-35" x="517.443359"/>
     <use xlink:href="#DejaVuSans-2e" x="581.066406"/>
     <use xlink:href="#DejaVuSans-30" x="612.853516"/>
     <use xlink:href="#DejaVuSans-34" x="676.476562"/>
     <use xlink:href="#DejaVuSans-65" x="740.099609"/>
     <use xlink:href="#DejaVuSans-2d" x="801.623047"/>
     <use xlink:href="#DejaVuSans-39" x="837.707031"/>
     <use xlink:href="#DejaVuSans-30" x="901.330078"/>
    </g>
   </g>
   <g id="text_14">
    <!-- (a) Zero-Shot for the Mean Ribosome Load task -->
    <g transform="translate(108 11.28) scale(0.07 -0.07)">
     <defs>
      <path id="DejaVuSans-28" d="M 1984 4856 
Q 1566 4138 1362 3434 
Q 1159 2731 1159 2009 
Q 1159 1288 1364 580 
Q 1569 -128 1984 -844 
L 1484 -844 
Q 1016 -109 783 600 
Q 550 1309 550 2009 
Q 550 2706 781 3412 
Q 1013 4119 1484 4856 
L 1984 4856 
z
" transform="scale(0.015625)"/>
      <path id="DejaVuSans-29" d="M 513 4856 
L 1013 4856 
Q 1481 4119 1714 3412 
Q 1947 2706 1947 2009 
Q 1947 1309 1714 600 
Q 1481 -109 1013 -844 
L 513 -844 
Q 928 -128 1133 580 
Q 1338 1288 1338 2009 
Q 1338 2731 1133 3434 
Q 928 4138 513 4856 
z
" transform="scale(0.015625)"/>
      <path id="DejaVuSans-5a" d="M 359 4666 
L 4025 4666 
L 4025 4184 
L 1075 531 
L 4097 531 
L 4097 0 
L 288 0 
L 288 481 
L 3238 4134 
L 359 4134 
L 359 4666 
z
" transform="scale(0.015625)"/>
      <path id="DejaVuSans-72" d="M 2631 2963 
Q 2534 3019 2420 3045 
Q 2306 3072 2169 3072 
Q 1681 3072 1420 2755 
Q 1159 2438 1159 1844 
L 1159 0 
L 581 0 
L 581 3500 
L 1159 3500 
L 1159 2956 
Q 1341 3275 1631 3429 
Q 1922 3584 2338 3584 
Q 2397 3584 2469 3576 
Q 2541 3569 2628 3553 
L 2631 2963 
z
" transform="scale(0.015625)"/>
      <path id="DejaVuSans-53" d="M 3425 4513 
L 3425 3897 
Q 3066 4069 2747 4153 
Q 2428 4238 2131 4238 
Q 1616 4238 1336 4038 
Q 1056 3838 1056 3469 
Q 1056 3159 1242 3001 
Q 1428 2844 1947 2747 
L 2328 2669 
Q 3034 2534 3370 2195 
Q 3706 1856 3706 1288 
Q 3706 609 3251 259 
Q 2797 -91 1919 -91 
Q 1588 -91 1214 -16 
Q 841 59 441 206 
L 441 856 
Q 825 641 1194 531 
Q 1563 422 1919 422 
Q 2459 422 2753 634 
Q 3047 847 3047 1241 
Q 3047 1584 2836 1778 
Q 2625 1972 2144 2069 
L 1759 2144 
Q 1053 2284 737 2584 
Q 422 2884 422 3419 
Q 422 4038 858 4394 
Q 1294 4750 2059 4750 
Q 2388 4750 2728 4690 
Q 3069 4631 3425 4513 
z
" transform="scale(0.015625)"/>
      <path id="DejaVuSans-68" d="M 3513 2113 
L 3513 0 
L 2938 0 
L 2938 2094 
Q 2938 2591 2744 2837 
Q 2550 3084 2163 3084 
Q 1697 3084 1428 2787 
Q 1159 2491 1159 1978 
L 1159 0 
L 581 0 
L 581 4863 
L 1159 4863 
L 1159 2956 
Q 1366 3272 1645 3428 
Q 1925 3584 2291 3584 
Q 2894 3584 3203 3211 
Q 3513 2838 3513 2113 
z
" transform="scale(0.015625)"/>
      <path id="DejaVuSans-66" d="M 2375 4863 
L 2375 4384 
L 1825 4384 
Q 1516 4384 1395 4259 
Q 1275 4134 1275 3809 
L 1275 3500 
L 2222 3500 
L 2222 3053 
L 1275 3053 
L 1275 0 
L 697 0 
L 697 3053 
L 147 3053 
L 147 3500 
L 697 3500 
L 697 3744 
Q 697 4328 969 4595 
Q 1241 4863 1831 4863 
L 2375 4863 
z
" transform="scale(0.015625)"/>
      <path id="DejaVuSans-6b" d="M 581 4863 
L 1159 4863 
L 1159 1991 
L 2875 3500 
L 3609 3500 
L 1753 1863 
L 3688 0 
L 2938 0 
L 1159 1709 
L 1159 0 
L 581 0 
L 581 4863 
z
" transform="scale(0.015625)"/>
     </defs>
     <use xlink:href="#DejaVuSans-28"/>
     <use xlink:href="#DejaVuSans-61" x="39.013672"/>
     <use xlink:href="#DejaVuSans-29" x="100.292969"/>
     <use xlink:href="#DejaVuSans-20" x="139.306641"/>
     <use xlink:href="#DejaVuSans-5a" x="171.09375"/>
     <use xlink:href="#DejaVuSans-65" x="239.599609"/>
     <use xlink:href="#DejaVuSans-72" x="301.123047"/>
     <use xlink:href="#DejaVuSans-6f" x="339.986328"/>
     <use xlink:href="#DejaVuSans-2d" x="403.042969"/>
     <use xlink:href="#DejaVuSans-53" x="439.126953"/>
     <use xlink:href="#DejaVuSans-68" x="502.603516"/>
     <use xlink:href="#DejaVuSans-6f" x="565.982422"/>
     <use xlink:href="#DejaVuSans-74" x="627.164062"/>
     <use xlink:href="#DejaVuSans-20" x="666.373047"/>
     <use xlink:href="#DejaVuSans-66" x="698.160156"/>
     <use xlink:href="#DejaVuSans-6f" x="733.365234"/>
     <use xlink:href="#DejaVuSans-72" x="794.546875"/>
     <use xlink:href="#DejaVuSans-20" x="835.660156"/>
     <use xlink:href="#DejaVuSans-74" x="867.447266"/>
     <use xlink:href="#DejaVuSans-68" x="906.65625"/>
     <use xlink:href="#DejaVuSans-65" x="970.035156"/>
     <use xlink:href="#DejaVuSans-20" x="1031.558594"/>
     <use xlink:href="#DejaVuSans-4d" x="1063.345703"/>
     <use xlink:href="#DejaVuSans-65" x="1149.625"/>
     <use xlink:href="#DejaVuSans-61" x="1211.148438"/>
     <use xlink:href="#DejaVuSans-6e" x="1272.427734"/>
     <use xlink:href="#DejaVuSans-20" x="1335.806641"/>
     <use xlink:href="#DejaVuSans-52" x="1367.59375"/>
     <use xlink:href="#DejaVuSans-69" x="1437.076172"/>
     <use xlink:href="#DejaVuSans-62" x="1464.859375"/>
     <use xlink:href="#DejaVuSans-6f" x="1528.335938"/>
     <use xlink:href="#DejaVuSans-73" x="1589.517578"/>
     <use xlink:href="#DejaVuSans-6f" x="1641.617188"/>
     <use xlink:href="#DejaVuSans-6d" x="1702.798828"/>
     <use xlink:href="#DejaVuSans-65" x="1800.210938"/>
     <use xlink:href="#DejaVuSans-20" x="1861.734375"/>
     <use xlink:href="#DejaVuSans-4c" x="1893.521484"/>
     <use xlink:href="#DejaVuSans-6f" x="1947.484375"/>
     <use xlink:href="#DejaVuSans-61" x="2008.666016"/>
     <use xlink:href="#DejaVuSans-64" x="2069.945312"/>
     <use xlink:href="#DejaVuSans-20" x="2133.421875"/>
     <use xlink:href="#DejaVuSans-74" x="2165.208984"/>
     <use xlink:href="#DejaVuSans-61" x="2204.417969"/>
     <use xlink:href="#DejaVuSans-73" x="2265.697266"/>
     <use xlink:href="#DejaVuSans-6b" x="2317.796875"/>
    </g>
   </g>
   <g id="legend_1">
    <g id="patch_7">
     <path d="M 112.9 43.429375 
L 258.465 43.429375 
Q 259.865 43.429375 259.865 42.029375 
L 259.865 22.18 
Q 259.865 20.78 258.465 20.78 
L 112.9 20.78 
Q 111.5 20.78 111.5 22.18 
L 111.5 42.029375 
Q 111.5 43.429375 112.9 43.429375 
z
" style="fill: #ffffff; opacity: 0.8; stroke: #cccccc; stroke-linejoin: miter"/>
    </g>
    <g id="patch_8">
     <path d="M 114.3 28.898906 
L 128.3 28.898906 
L 128.3 23.998906 
L 114.3 23.998906 
z
" style="fill: #008000; fill-opacity: 0.2; stroke: #008000; stroke-linejoin: miter"/>
    </g>
    <g id="text_15">
     <!-- Random training UTRs (n=260000) -->
     <g transform="translate(133.9 28.898906) scale(0.07 -0.07)">
      <defs>
       <path id="DejaVuSans-67" d="M 2906 1791 
Q 2906 2416 2648 2759 
Q 2391 3103 1925 3103 
Q 1463 3103 1205 2759 
Q 947 2416 947 1791 
Q 947 1169 1205 825 
Q 1463 481 1925 481 
Q 2391 481 2648 825 
Q 2906 1169 2906 1791 
z
M 3481 434 
Q 3481 -459 3084 -895 
Q 2688 -1331 1869 -1331 
Q 1566 -1331 1297 -1286 
Q 1028 -1241 775 -1147 
L 775 -588 
Q 1028 -725 1275 -790 
Q 1522 -856 1778 -856 
Q 2344 -856 2625 -561 
Q 2906 -266 2906 331 
L 2906 616 
Q 2728 306 2450 153 
Q 2172 0 1784 0 
Q 1141 0 747 490 
Q 353 981 353 1791 
Q 353 2603 747 3093 
Q 1141 3584 1784 3584 
Q 2172 3584 2450 3431 
Q 2728 3278 2906 2969 
L 2906 3500 
L 3481 3500 
L 3481 434 
z
" transform="scale(0.015625)"/>
       <path id="DejaVuSans-55" d="M 556 4666 
L 1191 4666 
L 1191 1831 
Q 1191 1081 1462 751 
Q 1734 422 2344 422 
Q 2950 422 3222 751 
Q 3494 1081 3494 1831 
L 3494 4666 
L 4128 4666 
L 4128 1753 
Q 4128 841 3676 375 
Q 3225 -91 2344 -91 
Q 1459 -91 1007 375 
Q 556 841 556 1753 
L 556 4666 
z
" transform="scale(0.015625)"/>
       <path id="DejaVuSans-54" d="M -19 4666 
L 3928 4666 
L 3928 4134 
L 2272 4134 
L 2272 0 
L 1638 0 
L 1638 4134 
L -19 4134 
L -19 4666 
z
" transform="scale(0.015625)"/>
      </defs>
      <use xlink:href="#DejaVuSans-52"/>
      <use xlink:href="#DejaVuSans-61" x="67.232422"/>
      <use xlink:href="#DejaVuSans-6e" x="128.511719"/>
      <use xlink:href="#DejaVuSans-64" x="191.890625"/>
      <use xlink:href="#DejaVuSans-6f" x="255.367188"/>
      <use xlink:href="#DejaVuSans-6d" x="316.548828"/>
      <use xlink:href="#DejaVuSans-20" x="413.960938"/>
      <use xlink:href="#DejaVuSans-74" x="445.748047"/>
      <use xlink:href="#DejaVuSans-72" x="484.957031"/>
      <use xlink:href="#DejaVuSans-61" x="526.070312"/>
      <use xlink:href="#DejaVuSans-69" x="587.349609"/>
      <use xlink:href="#DejaVuSans-6e" x="615.132812"/>
      <use xlink:href="#DejaVuSans-69" x="678.511719"/>
      <use xlink:href="#DejaVuSans-6e" x="706.294922"/>
      <use xlink:href="#DejaVuSans-67" x="769.673828"/>
      <use xlink:href="#DejaVuSans-20" x="833.150391"/>
      <use xlink:href="#DejaVuSans-55" x="864.9375"/>
      <use xlink:href="#DejaVuSans-54" x="938.130859"/>
      <use xlink:href="#DejaVuSans-52" x="999.214844"/>
      <use xlink:href="#DejaVuSans-73" x="1068.697266"/>
      <use xlink:href="#DejaVuSans-20" x="1120.796875"/>
      <use xlink:href="#DejaVuSans-28" x="1152.583984"/>
      <use xlink:href="#DejaVuSans-6e" x="1191.597656"/>
      <use xlink:href="#DejaVuSans-3d" x="1254.976562"/>
      <use xlink:href="#DejaVuSans-32" x="1338.765625"/>
      <use xlink:href="#DejaVuSans-36" x="1402.388672"/>
      <use xlink:href="#DejaVuSans-30" x="1466.011719"/>
      <use xlink:href="#DejaVuSans-30" x="1529.634766"/>
      <use xlink:href="#DejaVuSans-30" x="1593.257812"/>
      <use xlink:href="#DejaVuSans-30" x="1656.880859"/>
      <use xlink:href="#DejaVuSans-29" x="1720.503906"/>
     </g>
    </g>
    <g id="patch_9">
     <path d="M 114.3 39.173594 
L 128.3 39.173594 
L 128.3 34.273594 
L 114.3 34.273594 
z
" style="fill: #ff0000; fill-opacity: 0.2; stroke: #ff0000; stroke-linejoin: miter"/>
    </g>
    <g id="text_16">
     <!-- In-house UTRs (n=211) -->
     <g transform="translate(133.9 39.173594) scale(0.07 -0.07)">
      <defs>
       <path id="DejaVuSans-49" d="M 628 4666 
L 1259 4666 
L 1259 0 
L 628 0 
L 628 4666 
z
" transform="scale(0.015625)"/>
      </defs>
      <use xlink:href="#DejaVuSans-49"/>
      <use xlink:href="#DejaVuSans-6e" x="29.492188"/>
      <use xlink:href="#DejaVuSans-2d" x="92.871094"/>
      <use xlink:href="#DejaVuSans-68" x="128.955078"/>
      <use xlink:href="#DejaVuSans-6f" x="192.333984"/>
      <use xlink:href="#DejaVuSans-75" x="253.515625"/>
      <use xlink:href="#DejaVuSans-73" x="316.894531"/>
      <use xlink:href="#DejaVuSans-65" x="368.994141"/>
      <use xlink:href="#DejaVuSans-20" x="430.517578"/>
      <use xlink:href="#DejaVuSans-55" x="462.304688"/>
      <use xlink:href="#DejaVuSans-54" x="535.498047"/>
      <use xlink:href="#DejaVuSans-52" x="596.582031"/>
      <use xlink:href="#DejaVuSans-73" x="666.064453"/>
      <use xlink:href="#DejaVuSans-20" x="718.164062"/>
      <use xlink:href="#DejaVuSans-28" x="749.951172"/>
      <use xlink:href="#DejaVuSans-6e" x="788.964844"/>
      <use xlink:href="#DejaVuSans-3d" x="852.34375"/>
      <use xlink:href="#DejaVuSans-32" x="936.132812"/>
      <use xlink:href="#DejaVuSans-31" x="999.755859"/>
      <use xlink:href="#DejaVuSans-31" x="1063.378906"/>
      <use xlink:href="#DejaVuSans-29" x="1127.001953"/>
     </g>
    </g>
   </g>
  </g>
  <g id="axes_2">
   <g id="patch_10">
    <path d="M 473.236364 128.16 
L 777.6 128.16 
L 777.6 17.28 
L 473.236364 17.28 
z
" style="fill: #ffffff"/>
   </g>
   <g id="PolyCollection_3">
    <defs>
     <path id="mffa3b70792" d="M 487.071074 -15.84026 
L 487.071074 -15.84 
L 488.461498 -15.84 
L 489.851921 -15.84 
L 491.242344 -15.84 
L 492.632767 -15.84 
L 494.02319 -15.84 
L 495.413614 -15.84 
L 496.804037 -15.84 
L 498.19446 -15.84 
L 499.584883 -15.84 
L 500.975306 -15.84 
L 502.365729 -15.84 
L 503.756153 -15.84 
L 505.146576 -15.84 
L 506.536999 -15.84 
L 507.927422 -15.84 
L 509.317845 -15.84 
L 510.708269 -15.84 
L 512.098692 -15.84 
L 513.489115 -15.84 
L 514.879538 -15.84 
L 516.269961 -15.84 
L 517.660385 -15.84 
L 519.050808 -15.84 
L 520.441231 -15.84 
L 521.831654 -15.84 
L 523.222077 -15.84 
L 524.612501 -15.84 
L 526.002924 -15.84 
L 527.393347 -15.84 
L 528.78377 -15.84 
L 530.174193 -15.84 
L 531.564616 -15.84 
L 532.95504 -15.84 
L 534.345463 -15.84 
L 535.735886 -15.84 
L 537.126309 -15.84 
L 538.516732 -15.84 
L 539.907156 -15.84 
L 541.297579 -15.84 
L 542.688002 -15.84 
L 544.078425 -15.84 
L 545.468848 -15.84 
L 546.859272 -15.84 
L 548.249695 -15.84 
L 549.640118 -15.84 
L 551.030541 -15.84 
L 552.420964 -15.84 
L 553.811388 -15.84 
L 555.201811 -15.84 
L 556.592234 -15.84 
L 557.982657 -15.84 
L 559.37308 -15.84 
L 560.763503 -15.84 
L 562.153927 -15.84 
L 563.54435 -15.84 
L 564.934773 -15.84 
L 566.325196 -15.84 
L 567.715619 -15.84 
L 569.106043 -15.84 
L 570.496466 -15.84 
L 571.886889 -15.84 
L 573.277312 -15.84 
L 574.667735 -15.84 
L 576.058159 -15.84 
L 577.448582 -15.84 
L 578.839005 -15.84 
L 580.229428 -15.84 
L 581.619851 -15.84 
L 583.010275 -15.84 
L 584.400698 -15.84 
L 585.791121 -15.84 
L 587.181544 -15.84 
L 588.571967 -15.84 
L 589.96239 -15.84 
L 591.352814 -15.84 
L 592.743237 -15.84 
L 594.13366 -15.84 
L 595.524083 -15.84 
L 596.914506 -15.84 
L 598.30493 -15.84 
L 599.695353 -15.84 
L 601.085776 -15.84 
L 602.476199 -15.84 
L 603.866622 -15.84 
L 605.257046 -15.84 
L 606.647469 -15.84 
L 608.037892 -15.84 
L 609.428315 -15.84 
L 610.818738 -15.84 
L 612.209162 -15.84 
L 613.599585 -15.84 
L 614.990008 -15.84 
L 616.380431 -15.84 
L 617.770854 -15.84 
L 619.161277 -15.84 
L 620.551701 -15.84 
L 621.942124 -15.84 
L 623.332547 -15.84 
L 624.72297 -15.84 
L 626.113393 -15.84 
L 627.503817 -15.84 
L 628.89424 -15.84 
L 630.284663 -15.84 
L 631.675086 -15.84 
L 633.065509 -15.84 
L 634.455933 -15.84 
L 635.846356 -15.84 
L 637.236779 -15.84 
L 638.627202 -15.84 
L 640.017625 -15.84 
L 641.408049 -15.84 
L 642.798472 -15.84 
L 644.188895 -15.84 
L 645.579318 -15.84 
L 646.969741 -15.84 
L 648.360164 -15.84 
L 649.750588 -15.84 
L 651.141011 -15.84 
L 652.531434 -15.84 
L 653.921857 -15.84 
L 655.31228 -15.84 
L 656.702704 -15.84 
L 658.093127 -15.84 
L 659.48355 -15.84 
L 660.873973 -15.84 
L 662.264396 -15.84 
L 663.65482 -15.84 
L 665.045243 -15.84 
L 666.435666 -15.84 
L 667.826089 -15.84 
L 669.216512 -15.84 
L 670.606936 -15.84 
L 671.997359 -15.84 
L 673.387782 -15.84 
L 674.778205 -15.84 
L 676.168628 -15.84 
L 677.559051 -15.84 
L 678.949475 -15.84 
L 680.339898 -15.84 
L 681.730321 -15.84 
L 683.120744 -15.84 
L 684.511167 -15.84 
L 685.901591 -15.84 
L 687.292014 -15.84 
L 688.682437 -15.84 
L 690.07286 -15.84 
L 691.463283 -15.84 
L 692.853707 -15.84 
L 694.24413 -15.84 
L 695.634553 -15.84 
L 697.024976 -15.84 
L 698.415399 -15.84 
L 699.805823 -15.84 
L 701.196246 -15.84 
L 702.586669 -15.84 
L 703.977092 -15.84 
L 705.367515 -15.84 
L 706.757938 -15.84 
L 708.148362 -15.84 
L 709.538785 -15.84 
L 710.929208 -15.84 
L 712.319631 -15.84 
L 713.710054 -15.84 
L 715.100478 -15.84 
L 716.490901 -15.84 
L 717.881324 -15.84 
L 719.271747 -15.84 
L 720.66217 -15.84 
L 722.052594 -15.84 
L 723.443017 -15.84 
L 724.83344 -15.84 
L 726.223863 -15.84 
L 727.614286 -15.84 
L 729.004709 -15.84 
L 730.395133 -15.84 
L 731.785556 -15.84 
L 733.175979 -15.84 
L 734.566402 -15.84 
L 735.956825 -15.84 
L 737.347249 -15.84 
L 738.737672 -15.84 
L 740.128095 -15.84 
L 741.518518 -15.84 
L 742.908941 -15.84 
L 744.299365 -15.84 
L 745.689788 -15.84 
L 747.080211 -15.84 
L 748.470634 -15.84 
L 749.861057 -15.84 
L 751.251481 -15.84 
L 752.641904 -15.84 
L 754.032327 -15.84 
L 755.42275 -15.84 
L 756.813173 -15.84 
L 758.203596 -15.84 
L 759.59402 -15.84 
L 760.984443 -15.84 
L 762.374866 -15.84 
L 763.765289 -15.84 
L 763.765289 -15.840138 
L 763.765289 -15.840138 
L 762.374866 -15.840441 
L 760.984443 -15.841196 
L 759.59402 -15.842761 
L 758.203596 -15.845471 
L 756.813173 -15.849413 
L 755.42275 -15.854294 
L 754.032327 -15.859535 
L 752.641904 -15.864455 
L 751.251481 -15.868293 
L 749.861057 -15.870223 
L 748.470634 -15.869799 
L 747.080211 -15.867684 
L 745.689788 -15.865742 
L 744.299365 -15.865954 
L 742.908941 -15.868984 
L 741.518518 -15.873836 
L 740.128095 -15.878954 
L 738.737672 -15.883537 
L 737.347249 -15.88776 
L 735.956825 -15.89201 
L 734.566402 -15.896457 
L 733.175979 -15.901745 
L 731.785556 -15.910041 
L 730.395133 -15.924895 
L 729.004709 -15.949366 
L 727.614286 -15.983882 
L 726.223863 -16.02614 
L 724.83344 -16.073552 
L 723.443017 -16.125327 
L 722.052594 -16.180548 
L 720.66217 -16.233142 
L 719.271747 -16.270252 
L 717.881324 -16.278883 
L 716.490901 -16.25663 
L 715.100478 -16.216252 
L 713.710054 -16.179388 
L 712.319631 -16.165428 
L 710.929208 -16.184649 
L 709.538785 -16.238138 
L 708.148362 -16.320554 
L 706.757938 -16.422205 
L 705.367515 -16.531211 
L 703.977092 -16.637779 
L 702.586669 -16.739254 
L 701.196246 -16.84153 
L 699.805823 -16.955235 
L 698.415399 -17.091825 
L 697.024976 -17.265728 
L 695.634553 -17.500271 
L 694.24413 -17.828288 
L 692.853707 -18.283398 
L 691.463283 -18.88749 
L 690.07286 -19.641964 
L 688.682437 -20.526907 
L 687.292014 -21.510795 
L 685.901591 -22.568554 
L 684.511167 -23.695629 
L 683.120744 -24.905626 
L 681.730321 -26.217823 
L 680.339898 -27.653659 
L 678.949475 -29.245184 
L 677.559051 -31.035723 
L 676.168628 -33.061957 
L 674.778205 -35.336386 
L 673.387782 -37.85113 
L 671.997359 -40.591709 
L 670.606936 -43.533383 
L 669.216512 -46.620314 
L 667.826089 -49.759623 
L 666.435666 -52.851086 
L 665.045243 -55.828186 
L 663.65482 -58.662424 
L 662.264396 -61.31866 
L 660.873973 -63.709878 
L 659.48355 -65.706239 
L 658.093127 -67.194058 
L 656.702704 -68.134958 
L 655.31228 -68.590023 
L 653.921857 -68.702318 
L 652.531434 -68.638961 
L 651.141011 -68.511264 
L 649.750588 -68.3245 
L 648.360164 -68.000934 
L 646.969741 -67.45291 
L 645.579318 -66.634967 
L 644.188895 -65.540663 
L 642.798472 -64.178727 
L 641.408049 -62.572924 
L 640.017625 -60.781341 
L 638.627202 -58.898823 
L 637.236779 -57.029224 
L 635.846356 -55.253852 
L 634.455933 -53.623266 
L 633.065509 -52.162164 
L 631.675086 -50.85943 
L 630.284663 -49.648497 
L 628.89424 -48.41958 
L 627.503817 -47.084561 
L 626.113393 -45.650549 
L 624.72297 -44.226368 
L 623.332547 -42.93773 
L 621.942124 -41.817799 
L 620.551701 -40.770406 
L 619.161277 -39.635942 
L 617.770854 -38.300194 
L 616.380431 -36.765129 
L 614.990008 -35.147581 
L 613.599585 -33.621904 
L 612.209162 -32.340293 
L 610.818738 -31.364763 
L 609.428315 -30.643473 
L 608.037892 -30.048221 
L 606.647469 -29.449957 
L 605.257046 -28.77723 
L 603.866622 -28.021343 
L 602.476199 -27.206605 
L 601.085776 -26.369257 
L 599.695353 -25.558593 
L 598.30493 -24.836216 
L 596.914506 -24.253816 
L 595.524083 -23.823646 
L 594.13366 -23.511118 
L 592.743237 -23.25683 
L 591.352814 -23.005198 
L 589.96239 -22.716641 
L 588.571967 -22.367018 
L 587.181544 -21.952382 
L 585.791121 -21.499415 
L 584.400698 -21.061319 
L 583.010275 -20.689876 
L 581.619851 -20.403863 
L 580.229428 -20.181145 
L 578.839005 -19.97797 
L 577.448582 -19.75627 
L 576.058159 -19.50065 
L 574.667735 -19.219452 
L 573.277312 -18.933204 
L 571.886889 -18.658957 
L 570.496466 -18.401782 
L 569.106043 -18.15929 
L 567.715619 -17.933146 
L 566.325196 -17.734968 
L 564.934773 -17.580186 
L 563.54435 -17.475643 
L 562.153927 -17.412003 
L 560.763503 -17.366487 
L 559.37308 -17.313066 
L 557.982657 -17.234141 
L 556.592234 -17.128181 
L 555.201811 -17.008414 
L 553.811388 -16.891621 
L 552.420964 -16.785193 
L 551.030541 -16.684685 
L 549.640118 -16.584079 
L 548.249695 -16.486565 
L 546.859272 -16.403319 
L 545.468848 -16.342339 
L 544.078425 -16.300175 
L 542.688002 -16.264639 
L 541.297579 -16.224855 
L 539.907156 -16.179762 
L 538.516732 -16.139346 
L 537.126309 -16.118085 
L 535.735886 -16.124045 
L 534.345463 -16.150509 
L 532.95504 -16.177522 
L 531.564616 -16.184231 
L 530.174193 -16.162669 
L 528.78377 -16.121227 
L 527.393347 -16.075895 
L 526.002924 -16.038688 
L 524.612501 -16.01271 
L 523.222077 -15.994664 
L 521.831654 -15.979691 
L 520.441231 -15.964719 
L 519.050808 -15.949557 
L 517.660385 -15.935868 
L 516.269961 -15.924826 
L 514.879538 -15.915581 
L 513.489115 -15.90616 
L 512.098692 -15.895729 
L 510.708269 -15.885749 
L 509.317845 -15.87926 
L 507.927422 -15.879532 
L 506.536999 -15.889 
L 505.146576 -15.908007 
L 503.756153 -15.933075 
L 502.365729 -15.956381 
L 500.975306 -15.968578 
L 499.584883 -15.964072 
L 498.19446 -15.944461 
L 496.804037 -15.917038 
L 495.413614 -15.890038 
L 494.02319 -15.868744 
L 492.632767 -15.854613 
L 491.242344 -15.846554 
L 489.851921 -15.842576 
L 488.461498 -15.84088 
L 487.071074 -15.84026 
z
" style="stroke: #008000"/>
    </defs>
    <g clip-path="url(#p942ee04214)">
     <use xlink:href="#mffa3b70792" x="0" y="144" style="fill: #008000; fill-opacity: 0.2; stroke: #008000"/>
    </g>
   </g>
   <g id="PolyCollection_4">
    <defs>
     <path id="m5d4e8fb7e7" d="M 589.028915 -15.854577 
L 589.028915 -15.84 
L 589.56125 -15.84 
L 590.093585 -15.84 
L 590.62592 -15.84 
L 591.158255 -15.84 
L 591.69059 -15.84 
L 592.222924 -15.84 
L 592.755259 -15.84 
L 593.287594 -15.84 
L 593.819929 -15.84 
L 594.352264 -15.84 
L 594.884599 -15.84 
L 595.416934 -15.84 
L 595.949268 -15.84 
L 596.481603 -15.84 
L 597.013938 -15.84 
L 597.546273 -15.84 
L 598.078608 -15.84 
L 598.610943 -15.84 
L 599.143277 -15.84 
L 599.675612 -15.84 
L 600.207947 -15.84 
L 600.740282 -15.84 
L 601.272617 -15.84 
L 601.804952 -15.84 
L 602.337287 -15.84 
L 602.869621 -15.84 
L 603.401956 -15.84 
L 603.934291 -15.84 
L 604.466626 -15.84 
L 604.998961 -15.84 
L 605.531296 -15.84 
L 606.063631 -15.84 
L 606.595965 -15.84 
L 607.1283 -15.84 
L 607.660635 -15.84 
L 608.19297 -15.84 
L 608.725305 -15.84 
L 609.25764 -15.84 
L 609.789974 -15.84 
L 610.322309 -15.84 
L 610.854644 -15.84 
L 611.386979 -15.84 
L 611.919314 -15.84 
L 612.451649 -15.84 
L 612.983984 -15.84 
L 613.516318 -15.84 
L 614.048653 -15.84 
L 614.580988 -15.84 
L 615.113323 -15.84 
L 615.645658 -15.84 
L 616.177993 -15.84 
L 616.710328 -15.84 
L 617.242662 -15.84 
L 617.774997 -15.84 
L 618.307332 -15.84 
L 618.839667 -15.84 
L 619.372002 -15.84 
L 619.904337 -15.84 
L 620.436672 -15.84 
L 620.969006 -15.84 
L 621.501341 -15.84 
L 622.033676 -15.84 
L 622.566011 -15.84 
L 623.098346 -15.84 
L 623.630681 -15.84 
L 624.163015 -15.84 
L 624.69535 -15.84 
L 625.227685 -15.84 
L 625.76002 -15.84 
L 626.292355 -15.84 
L 626.82469 -15.84 
L 627.357025 -15.84 
L 627.889359 -15.84 
L 628.421694 -15.84 
L 628.954029 -15.84 
L 629.486364 -15.84 
L 630.018699 -15.84 
L 630.551034 -15.84 
L 631.083369 -15.84 
L 631.615703 -15.84 
L 632.148038 -15.84 
L 632.680373 -15.84 
L 633.212708 -15.84 
L 633.745043 -15.84 
L 634.277378 -15.84 
L 634.809712 -15.84 
L 635.342047 -15.84 
L 635.874382 -15.84 
L 636.406717 -15.84 
L 636.939052 -15.84 
L 637.471387 -15.84 
L 638.003722 -15.84 
L 638.536056 -15.84 
L 639.068391 -15.84 
L 639.600726 -15.84 
L 640.133061 -15.84 
L 640.665396 -15.84 
L 641.197731 -15.84 
L 641.730066 -15.84 
L 642.2624 -15.84 
L 642.794735 -15.84 
L 643.32707 -15.84 
L 643.859405 -15.84 
L 644.39174 -15.84 
L 644.924075 -15.84 
L 645.456409 -15.84 
L 645.988744 -15.84 
L 646.521079 -15.84 
L 647.053414 -15.84 
L 647.585749 -15.84 
L 648.118084 -15.84 
L 648.650419 -15.84 
L 649.182753 -15.84 
L 649.715088 -15.84 
L 650.247423 -15.84 
L 650.779758 -15.84 
L 651.312093 -15.84 
L 651.844428 -15.84 
L 652.376763 -15.84 
L 652.909097 -15.84 
L 653.441432 -15.84 
L 653.973767 -15.84 
L 654.506102 -15.84 
L 655.038437 -15.84 
L 655.570772 -15.84 
L 656.103107 -15.84 
L 656.635441 -15.84 
L 657.167776 -15.84 
L 657.700111 -15.84 
L 658.232446 -15.84 
L 658.764781 -15.84 
L 659.297116 -15.84 
L 659.82945 -15.84 
L 660.361785 -15.84 
L 660.89412 -15.84 
L 661.426455 -15.84 
L 661.95879 -15.84 
L 662.491125 -15.84 
L 663.02346 -15.84 
L 663.555794 -15.84 
L 664.088129 -15.84 
L 664.620464 -15.84 
L 665.152799 -15.84 
L 665.685134 -15.84 
L 666.217469 -15.84 
L 666.749804 -15.84 
L 667.282138 -15.84 
L 667.814473 -15.84 
L 668.346808 -15.84 
L 668.879143 -15.84 
L 669.411478 -15.84 
L 669.943813 -15.84 
L 670.476147 -15.84 
L 671.008482 -15.84 
L 671.540817 -15.84 
L 672.073152 -15.84 
L 672.605487 -15.84 
L 673.137822 -15.84 
L 673.670157 -15.84 
L 674.202491 -15.84 
L 674.734826 -15.84 
L 675.267161 -15.84 
L 675.799496 -15.84 
L 676.331831 -15.84 
L 676.864166 -15.84 
L 677.396501 -15.84 
L 677.928835 -15.84 
L 678.46117 -15.84 
L 678.993505 -15.84 
L 679.52584 -15.84 
L 680.058175 -15.84 
L 680.59051 -15.84 
L 681.122844 -15.84 
L 681.655179 -15.84 
L 682.187514 -15.84 
L 682.719849 -15.84 
L 683.252184 -15.84 
L 683.784519 -15.84 
L 684.316854 -15.84 
L 684.849188 -15.84 
L 685.381523 -15.84 
L 685.913858 -15.84 
L 686.446193 -15.84 
L 686.978528 -15.84 
L 687.510863 -15.84 
L 688.043198 -15.84 
L 688.575532 -15.84 
L 689.107867 -15.84 
L 689.640202 -15.84 
L 690.172537 -15.84 
L 690.704872 -15.84 
L 691.237207 -15.84 
L 691.769542 -15.84 
L 692.301876 -15.84 
L 692.834211 -15.84 
L 693.366546 -15.84 
L 693.898881 -15.84 
L 694.431216 -15.84 
L 694.963551 -15.84 
L 694.963551 -15.857951 
L 694.963551 -15.857951 
L 694.431216 -15.86637 
L 693.898881 -15.878171 
L 693.366546 -15.894456 
L 692.834211 -15.916574 
L 692.301876 -15.946149 
L 691.769542 -15.985084 
L 691.237207 -16.035556 
L 690.704872 -16.099995 
L 690.172537 -16.181036 
L 689.640202 -16.281463 
L 689.107867 -16.404122 
L 688.575532 -16.551836 
L 688.043198 -16.727306 
L 687.510863 -16.933023 
L 686.978528 -17.171192 
L 686.446193 -17.443688 
L 685.913858 -17.752041 
L 685.381523 -18.097468 
L 684.849188 -18.480942 
L 684.316854 -18.903304 
L 683.784519 -19.365406 
L 683.252184 -19.868264 
L 682.719849 -20.413227 
L 682.187514 -21.002117 
L 681.655179 -21.63735 
L 681.122844 -22.322013 
L 680.59051 -23.059886 
L 680.058175 -23.85541 
L 679.52584 -24.713602 
L 678.993505 -25.639917 
L 678.46117 -26.640075 
L 677.928835 -27.719853 
L 677.396501 -28.884871 
L 676.864166 -30.140377 
L 676.331831 -31.491057 
L 675.799496 -32.940885 
L 675.267161 -34.493034 
L 674.734826 -36.149854 
L 674.202491 -37.912937 
L 673.670157 -39.783264 
L 673.137822 -41.761411 
L 672.605487 -43.847805 
L 672.073152 -46.042978 
L 671.540817 -48.347773 
L 671.008482 -50.763444 
L 670.476147 -53.291608 
L 669.943813 -55.934 
L 669.411478 -58.692031 
L 668.879143 -61.566159 
L 668.346808 -64.555126 
L 667.814473 -67.655145 
L 667.282138 -70.859135 
L 666.749804 -74.156115 
L 666.217469 -77.530845 
L 665.685134 -80.963787 
L 665.152799 -84.431411 
L 664.620464 -87.906809 
L 664.088129 -91.360553 
L 663.555794 -94.761691 
L 663.02346 -98.078742 
L 662.491125 -101.280585 
L 661.95879 -104.33714 
L 661.426455 -107.219791 
L 660.89412 -109.901568 
L 660.361785 -112.357139 
L 659.82945 -114.562722 
L 659.297116 -116.496033 
L 658.764781 -118.1364 
L 658.232446 -119.46513 
L 657.700111 -120.466173 
L 657.167776 -121.127054 
L 656.635441 -121.44 
L 656.103107 -121.403095 
L 655.570772 -121.0213 
L 655.038437 -120.307138 
L 654.506102 -119.280865 
L 653.973767 -117.970022 
L 653.441432 -116.408307 
L 652.909097 -114.63381 
L 652.376763 -112.686741 
L 651.844428 -110.606851 
L 651.312093 -108.430803 
L 650.779758 -106.189773 
L 650.247423 -103.90754 
L 649.715088 -101.599282 
L 649.182753 -99.271211 
L 648.650419 -96.921099 
L 648.118084 -94.53962 
L 647.585749 -92.112379 
L 647.053414 -89.622394 
L 646.521079 -87.052762 
L 645.988744 -84.389255 
L 645.456409 -81.622573 
L 644.924075 -78.750059 
L 644.39174 -75.776747 
L 643.859405 -72.715679 
L 643.32707 -69.58752 
L 642.794735 -66.419544 
L 642.2624 -63.244154 
L 641.730066 -60.097068 
L 641.197731 -57.015378 
L 640.665396 -54.035625 
L 640.133061 -51.192031 
L 639.600726 -48.515003 
L 639.068391 -46.02996 
L 638.536056 -43.756514 
L 638.003722 -41.708007 
L 637.471387 -39.891373 
L 636.939052 -38.30727 
L 636.406717 -36.95045 
L 635.874382 -35.810304 
L 635.342047 -34.871535 
L 634.809712 -34.114932 
L 634.277378 -33.518207 
L 633.745043 -33.056878 
L 633.212708 -32.705176 
L 632.680373 -32.436962 
L 632.148038 -32.226634 
L 631.615703 -32.049996 
L 631.083369 -31.885067 
L 630.551034 -31.712779 
L 630.018699 -31.517552 
L 629.486364 -31.287674 
L 628.954029 -31.015489 
L 628.421694 -30.697349 
L 627.889359 -30.333328 
L 627.357025 -29.926725 
L 626.82469 -29.483368 
L 626.292355 -29.010794 
L 625.76002 -28.517355 
L 625.227685 -28.011338 
L 624.69535 -27.500185 
L 624.163015 -26.989857 
L 623.630681 -26.484433 
L 623.098346 -25.985951 
L 622.566011 -25.494492 
L 622.033676 -25.00851 
L 621.501341 -24.52532 
L 620.969006 -24.041709 
L 620.436672 -23.554574 
L 619.904337 -23.061514 
L 619.372002 -22.561306 
L 618.839667 -22.054225 
L 618.307332 -21.542169 
L 617.774997 -21.028593 
L 617.242662 -20.518278 
L 616.710328 -20.016965 
L 616.177993 -19.530911 
L 615.645658 -19.066424 
L 615.113323 -18.629421 
L 614.580988 -18.225064 
L 614.048653 -17.857491 
L 613.516318 -17.52966 
L 612.983984 -17.24331 
L 612.451649 -16.999017 
L 611.919314 -16.796329 
L 611.386979 -16.633941 
L 610.854644 -16.50989 
L 610.322309 -16.421742 
L 609.789974 -16.366742 
L 609.25764 -16.341924 
L 608.725305 -16.344173 
L 608.19297 -16.37024 
L 607.660635 -16.416724 
L 607.1283 -16.480045 
L 606.595965 -16.556405 
L 606.063631 -16.641787 
L 605.531296 -16.73197 
L 604.998961 -16.822608 
L 604.466626 -16.90934 
L 603.934291 -16.987951 
L 603.401956 -17.054562 
L 602.869621 -17.105823 
L 602.337287 -17.139107 
L 601.804952 -17.152659 
L 601.272617 -17.145703 
L 600.740282 -17.118474 
L 600.207947 -17.072188 
L 599.675612 -17.00893 
L 599.143277 -16.931491 
L 598.610943 -16.843156 
L 598.078608 -16.747466 
L 597.546273 -16.647988 
L 597.013938 -16.548094 
L 596.481603 -16.450785 
L 595.949268 -16.358557 
L 595.416934 -16.273327 
L 594.884599 -16.196406 
L 594.352264 -16.128526 
L 593.819929 -16.069898 
L 593.287594 -16.0203 
L 592.755259 -15.979177 
L 592.222924 -15.945742 
L 591.69059 -15.919075 
L 591.158255 -15.898203 
L 590.62592 -15.882165 
L 590.093585 -15.870066 
L 589.56125 -15.861101 
L 589.028915 -15.854577 
z
" style="stroke: #0000ff"/>
    </defs>
    <g clip-path="url(#p942ee04214)">
     <use xlink:href="#m5d4e8fb7e7" x="0" y="144" style="fill: #0000ff; fill-opacity: 0.2; stroke: #0000ff"/>
    </g>
   </g>
   <g id="matplotlib.axis_3">
    <g id="xtick_8">
     <g id="line2d_11">
      <g>
       <use xlink:href="#mff65d38be2" x="508.664973" y="128.16" style="stroke: #000000; stroke-width: 0.8"/>
      </g>
     </g>
     <g id="text_17">
      <!-- 6 -->
      <g transform="translate(501.293879 142.758438) scale(0.1 -0.1)">
       <defs>
        <path id="DejaVuSans-2212" d="M 678 2272 
L 4684 2272 
L 4684 1741 
L 678 1741 
L 678 2272 
z
" transform="scale(0.015625)"/>
       </defs>
       <use xlink:href="#DejaVuSans-2212"/>
       <use xlink:href="#DejaVuSans-36" x="83.789062"/>
      </g>
     </g>
    </g>
    <g id="xtick_9">
     <g id="line2d_12">
      <g>
       <use xlink:href="#mff65d38be2" x="557.011799" y="128.16" style="stroke: #000000; stroke-width: 0.8"/>
      </g>
     </g>
     <g id="text_18">
      <!-- 4 -->
      <g transform="translate(549.640705 142.758438) scale(0.1 -0.1)">
       <use xlink:href="#DejaVuSans-2212"/>
       <use xlink:href="#DejaVuSans-34" x="83.789062"/>
      </g>
     </g>
    </g>
    <g id="xtick_10">
     <g id="line2d_13">
      <g>
       <use xlink:href="#mff65d38be2" x="605.358625" y="128.16" style="stroke: #000000; stroke-width: 0.8"/>
      </g>
     </g>
     <g id="text_19">
      <!-- 2 -->
      <g transform="translate(597.987531 142.758438) scale(0.1 -0.1)">
       <use xlink:href="#DejaVuSans-2212"/>
       <use xlink:href="#DejaVuSans-32" x="83.789062"/>
      </g>
     </g>
    </g>
    <g id="xtick_11">
     <g id="line2d_14">
      <g>
       <use xlink:href="#mff65d38be2" x="653.70545" y="128.16" style="stroke: #000000; stroke-width: 0.8"/>
      </g>
     </g>
     <g id="text_20">
      <!-- 0 -->
      <g transform="translate(650.5242 142.758438) scale(0.1 -0.1)">
       <use xlink:href="#DejaVuSans-30"/>
      </g>
     </g>
    </g>
    <g id="xtick_12">
     <g id="line2d_15">
      <g>
       <use xlink:href="#mff65d38be2" x="702.052276" y="128.16" style="stroke: #000000; stroke-width: 0.8"/>
      </g>
     </g>
     <g id="text_21">
      <!-- 2 -->
      <g transform="translate(698.871026 142.758438) scale(0.1 -0.1)">
       <use xlink:href="#DejaVuSans-32"/>
      </g>
     </g>
    </g>
    <g id="xtick_13">
     <g id="line2d_16">
      <g>
       <use xlink:href="#mff65d38be2" x="750.399102" y="128.16" style="stroke: #000000; stroke-width: 0.8"/>
      </g>
     </g>
     <g id="text_22">
      <!-- 4 -->
      <g transform="translate(747.217852 142.758438) scale(0.1 -0.1)">
       <use xlink:href="#DejaVuSans-34"/>
      </g>
     </g>
    </g>
    <g id="text_23">
     <!-- Translation Efficiency -->
     <g transform="translate(588.325291 154.157031) scale(0.07 -0.07)">
      <defs>
       <path id="DejaVuSans-45" d="M 628 4666 
L 3578 4666 
L 3578 4134 
L 1259 4134 
L 1259 2753 
L 3481 2753 
L 3481 2222 
L 1259 2222 
L 1259 531 
L 3634 531 
L 3634 0 
L 628 0 
L 628 4666 
z
" transform="scale(0.015625)"/>
       <path id="DejaVuSans-63" d="M 3122 3366 
L 3122 2828 
Q 2878 2963 2633 3030 
Q 2388 3097 2138 3097 
Q 1578 3097 1268 2742 
Q 959 2388 959 1747 
Q 959 1106 1268 751 
Q 1578 397 2138 397 
Q 2388 397 2633 464 
Q 2878 531 3122 666 
L 3122 134 
Q 2881 22 2623 -34 
Q 2366 -91 2075 -91 
Q 1284 -91 818 406 
Q 353 903 353 1747 
Q 353 2603 823 3093 
Q 1294 3584 2113 3584 
Q 2378 3584 2631 3529 
Q 2884 3475 3122 3366 
z
" transform="scale(0.015625)"/>
      </defs>
      <use xlink:href="#DejaVuSans-54"/>
      <use xlink:href="#DejaVuSans-72" x="46.333984"/>
      <use xlink:href="#DejaVuSans-61" x="87.447266"/>
      <use xlink:href="#DejaVuSans-6e" x="148.726562"/>
      <use xlink:href="#DejaVuSans-73" x="212.105469"/>
      <use xlink:href="#DejaVuSans-6c" x="264.205078"/>
      <use xlink:href="#DejaVuSans-61" x="291.988281"/>
      <use xlink:href="#DejaVuSans-74" x="353.267578"/>
      <use xlink:href="#DejaVuSans-69" x="392.476562"/>
      <use xlink:href="#DejaVuSans-6f" x="420.259766"/>
      <use xlink:href="#DejaVuSans-6e" x="481.441406"/>
      <use xlink:href="#DejaVuSans-20" x="544.820312"/>
      <use xlink:href="#DejaVuSans-45" x="576.607422"/>
      <use xlink:href="#DejaVuSans-66" x="639.791016"/>
      <use xlink:href="#DejaVuSans-66" x="674.996094"/>
      <use xlink:href="#DejaVuSans-69" x="710.201172"/>
      <use xlink:href="#DejaVuSans-63" x="737.984375"/>
      <use xlink:href="#DejaVuSans-69" x="792.964844"/>
      <use xlink:href="#DejaVuSans-65" x="820.748047"/>
      <use xlink:href="#DejaVuSans-6e" x="882.271484"/>
      <use xlink:href="#DejaVuSans-63" x="945.650391"/>
      <use xlink:href="#DejaVuSans-79" x="1000.630859"/>
     </g>
    </g>
   </g>
   <g id="matplotlib.axis_4">
    <g id="ytick_4">
     <g id="line2d_17">
      <g>
       <use xlink:href="#m9b54dcc498" x="473.236364" y="128.16" style="stroke: #000000; stroke-width: 0.8"/>
      </g>
     </g>
     <g id="text_24">
      <!-- 0.0 -->
      <g transform="translate(450.333239 131.959219) scale(0.1 -0.1)">
       <use xlink:href="#DejaVuSans-30"/>
       <use xlink:href="#DejaVuSans-2e" x="63.623047"/>
       <use xlink:href="#DejaVuSans-30" x="95.410156"/>
      </g>
     </g>
    </g>
    <g id="ytick_5">
     <g id="line2d_18">
      <g>
       <use xlink:href="#m9b54dcc498" x="473.236364" y="103.892468" style="stroke: #000000; stroke-width: 0.8"/>
      </g>
     </g>
     <g id="text_25">
      <!-- 0.2 -->
      <g transform="translate(450.333239 107.691686) scale(0.1 -0.1)">
       <use xlink:href="#DejaVuSans-30"/>
       <use xlink:href="#DejaVuSans-2e" x="63.623047"/>
       <use xlink:href="#DejaVuSans-32" x="95.410156"/>
      </g>
     </g>
    </g>
    <g id="ytick_6">
     <g id="line2d_19">
      <g>
       <use xlink:href="#m9b54dcc498" x="473.236364" y="79.624935" style="stroke: #000000; stroke-width: 0.8"/>
      </g>
     </g>
     <g id="text_26">
      <!-- 0.4 -->
      <g transform="translate(450.333239 83.424154) scale(0.1 -0.1)">
       <use xlink:href="#DejaVuSans-30"/>
       <use xlink:href="#DejaVuSans-2e" x="63.623047"/>
       <use xlink:href="#DejaVuSans-34" x="95.410156"/>
      </g>
     </g>
    </g>
    <g id="ytick_7">
     <g id="line2d_20">
      <g>
       <use xlink:href="#m9b54dcc498" x="473.236364" y="55.357403" style="stroke: #000000; stroke-width: 0.8"/>
      </g>
     </g>
     <g id="text_27">
      <!-- 0.6 -->
      <g transform="translate(450.333239 59.156622) scale(0.1 -0.1)">
       <use xlink:href="#DejaVuSans-30"/>
       <use xlink:href="#DejaVuSans-2e" x="63.623047"/>
       <use xlink:href="#DejaVuSans-36" x="95.410156"/>
      </g>
     </g>
    </g>
    <g id="ytick_8">
     <g id="line2d_21">
      <g>
       <use xlink:href="#m9b54dcc498" x="473.236364" y="31.089871" style="stroke: #000000; stroke-width: 0.8"/>
      </g>
     </g>
     <g id="text_28">
      <!-- 0.8 -->
      <g transform="translate(450.333239 34.88909) scale(0.1 -0.1)">
       <use xlink:href="#DejaVuSans-30"/>
       <use xlink:href="#DejaVuSans-2e" x="63.623047"/>
       <use xlink:href="#DejaVuSans-38" x="95.410156"/>
      </g>
     </g>
    </g>
    <g id="text_29">
     <!-- Density -->
     <g transform="translate(444.877457 86.026016) rotate(-90) scale(0.07 -0.07)">
      <use xlink:href="#DejaVuSans-44"/>
      <use xlink:href="#DejaVuSans-65" x="77.001953"/>
      <use xlink:href="#DejaVuSans-6e" x="138.525391"/>
      <use xlink:href="#DejaVuSans-73" x="201.904297"/>
      <use xlink:href="#DejaVuSans-69" x="254.003906"/>
      <use xlink:href="#DejaVuSans-74" x="281.787109"/>
      <use xlink:href="#DejaVuSans-79" x="320.996094"/>
     </g>
    </g>
   </g>
   <g id="patch_11">
    <path d="M 473.236364 128.16 
L 473.236364 17.28 
" style="fill: none; stroke: #000000; stroke-width: 0.8; stroke-linejoin: miter; stroke-linecap: square"/>
   </g>
   <g id="patch_12">
    <path d="M 777.6 128.16 
L 777.6 17.28 
" style="fill: none; stroke: #000000; stroke-width: 0.8; stroke-linejoin: miter; stroke-linecap: square"/>
   </g>
   <g id="patch_13">
    <path d="M 473.236364 128.16 
L 777.6 128.16 
" style="fill: none; stroke: #000000; stroke-width: 0.8; stroke-linejoin: miter; stroke-linecap: square"/>
   </g>
   <g id="patch_14">
    <path d="M 473.236364 17.28 
L 777.6 17.28 
" style="fill: none; stroke: #000000; stroke-width: 0.8; stroke-linejoin: miter; stroke-linecap: square"/>
   </g>
   <g id="text_30">
    <!-- p-value = 1.62e-32 -->
    <g transform="translate(503.672727 105.984) scale(0.07 -0.07)">
     <defs>
      <path id="DejaVuSans-33" d="M 2597 2516 
Q 3050 2419 3304 2112 
Q 3559 1806 3559 1356 
Q 3559 666 3084 287 
Q 2609 -91 1734 -91 
Q 1441 -91 1130 -33 
Q 819 25 488 141 
L 488 750 
Q 750 597 1062 519 
Q 1375 441 1716 441 
Q 2309 441 2620 675 
Q 2931 909 2931 1356 
Q 2931 1769 2642 2001 
Q 2353 2234 1838 2234 
L 1294 2234 
L 1294 2753 
L 1863 2753 
Q 2328 2753 2575 2939 
Q 2822 3125 2822 3475 
Q 2822 3834 2567 4026 
Q 2313 4219 1838 4219 
Q 1578 4219 1281 4162 
Q 984 4106 628 3988 
L 628 4550 
Q 988 4650 1302 4700 
Q 1616 4750 1894 4750 
Q 2613 4750 3031 4423 
Q 3450 4097 3450 3541 
Q 3450 3153 3228 2886 
Q 3006 2619 2597 2516 
z
" transform="scale(0.015625)"/>
     </defs>
     <use xlink:href="#DejaVuSans-70"/>
     <use xlink:href="#DejaVuSans-2d" x="63.476562"/>
     <use xlink:href="#DejaVuSans-76" x="96.935547"/>
     <use xlink:href="#DejaVuSans-61" x="156.115234"/>
     <use xlink:href="#DejaVuSans-6c" x="217.394531"/>
     <use xlink:href="#DejaVuSans-75" x="245.177734"/>
     <use xlink:href="#DejaVuSans-65" x="308.556641"/>
     <use xlink:href="#DejaVuSans-20" x="370.080078"/>
     <use xlink:href="#DejaVuSans-3d" x="401.867188"/>
     <use xlink:href="#DejaVuSans-20" x="485.65625"/>
     <use xlink:href="#DejaVuSans-31" x="517.443359"/>
     <use xlink:href="#DejaVuSans-2e" x="581.066406"/>
     <use xlink:href="#DejaVuSans-36" x="612.853516"/>
     <use xlink:href="#DejaVuSans-32" x="676.476562"/>
     <use xlink:href="#DejaVuSans-65" x="740.099609"/>
     <use xlink:href="#DejaVuSans-2d" x="801.623047"/>
     <use xlink:href="#DejaVuSans-33" x="837.707031"/>
     <use xlink:href="#DejaVuSans-32" x="901.330078"/>
    </g>
   </g>
   <g id="text_31">
    <!-- (b) Zero-Shot for the Translation Efficiency task -->
    <g transform="translate(473.236364 11.28) scale(0.07 -0.07)">
     <use xlink:href="#DejaVuSans-28"/>
     <use xlink:href="#DejaVuSans-62" x="39.013672"/>
     <use xlink:href="#DejaVuSans-29" x="102.490234"/>
     <use xlink:href="#DejaVuSans-20" x="141.503906"/>
     <use xlink:href="#DejaVuSans-5a" x="173.291016"/>
     <use xlink:href="#DejaVuSans-65" x="241.796875"/>
     <use xlink:href="#DejaVuSans-72" x="303.320312"/>
     <use xlink:href="#DejaVuSans-6f" x="342.183594"/>
     <use xlink:href="#DejaVuSans-2d" x="405.240234"/>
     <use xlink:href="#DejaVuSans-53" x="441.324219"/>
     <use xlink:href="#DejaVuSans-68" x="504.800781"/>
     <use xlink:href="#DejaVuSans-6f" x="568.179688"/>
     <use xlink:href="#DejaVuSans-74" x="629.361328"/>
     <use xlink:href="#DejaVuSans-20" x="668.570312"/>
     <use xlink:href="#DejaVuSans-66" x="700.357422"/>
     <use xlink:href="#DejaVuSans-6f" x="735.5625"/>
     <use xlink:href="#DejaVuSans-72" x="796.744141"/>
     <use xlink:href="#DejaVuSans-20" x="837.857422"/>
     <use xlink:href="#DejaVuSans-74" x="869.644531"/>
     <use xlink:href="#DejaVuSans-68" x="908.853516"/>
     <use xlink:href="#DejaVuSans-65" x="972.232422"/>
     <use xlink:href="#DejaVuSans-20" x="1033.755859"/>
     <use xlink:href="#DejaVuSans-54" x="1065.542969"/>
     <use xlink:href="#DejaVuSans-72" x="1111.876953"/>
     <use xlink:href="#DejaVuSans-61" x="1152.990234"/>
     <use xlink:href="#DejaVuSans-6e" x="1214.269531"/>
     <use xlink:href="#DejaVuSans-73" x="1277.648438"/>
     <use xlink:href="#DejaVuSans-6c" x="1329.748047"/>
     <use xlink:href="#DejaVuSans-61" x="1357.53125"/>
     <use xlink:href="#DejaVuSans-74" x="1418.810547"/>
     <use xlink:href="#DejaVuSans-69" x="1458.019531"/>
     <use xlink:href="#DejaVuSans-6f" x="1485.802734"/>
     <use xlink:href="#DejaVuSans-6e" x="1546.984375"/>
     <use xlink:href="#DejaVuSans-20" x="1610.363281"/>
     <use xlink:href="#DejaVuSans-45" x="1642.150391"/>
     <use xlink:href="#DejaVuSans-66" x="1705.333984"/>
     <use xlink:href="#DejaVuSans-66" x="1740.539062"/>
     <use xlink:href="#DejaVuSans-69" x="1775.744141"/>
     <use xlink:href="#DejaVuSans-63" x="1803.527344"/>
     <use xlink:href="#DejaVuSans-69" x="1858.507812"/>
     <use xlink:href="#DejaVuSans-65" x="1886.291016"/>
     <use xlink:href="#DejaVuSans-6e" x="1947.814453"/>
     <use xlink:href="#DejaVuSans-63" x="2011.193359"/>
     <use xlink:href="#DejaVuSans-79" x="2066.173828"/>
     <use xlink:href="#DejaVuSans-20" x="2125.353516"/>
     <use xlink:href="#DejaVuSans-74" x="2157.140625"/>
     <use xlink:href="#DejaVuSans-61" x="2196.349609"/>
     <use xlink:href="#DejaVuSans-73" x="2257.628906"/>
     <use xlink:href="#DejaVuSans-6b" x="2309.728516"/>
    </g>
   </g>
   <g id="legend_2">
    <g id="patch_15">
     <path d="M 478.136364 43.429375 
L 633.409489 43.429375 
Q 634.809489 43.429375 634.809489 42.029375 
L 634.809489 22.18 
Q 634.809489 20.78 633.409489 20.78 
L 478.136364 20.78 
Q 476.736364 20.78 476.736364 22.18 
L 476.736364 42.029375 
Q 476.736364 43.429375 478.136364 43.429375 
z
" style="fill: #ffffff; opacity: 0.8; stroke: #cccccc; stroke-linejoin: miter"/>
    </g>
    <g id="patch_16">
     <path d="M 479.536364 28.898906 
L 493.536364 28.898906 
L 493.536364 23.998906 
L 479.536364 23.998906 
z
" style="fill: #008000; fill-opacity: 0.2; stroke: #008000; stroke-linejoin: miter"/>
    </g>
    <g id="text_32">
     <!-- Endogenous training UTRs (n=28246) -->
     <g transform="translate(499.136364 28.898906) scale(0.07 -0.07)">
      <use xlink:href="#DejaVuSans-45"/>
      <use xlink:href="#DejaVuSans-6e" x="63.183594"/>
      <use xlink:href="#DejaVuSans-64" x="126.5625"/>
      <use xlink:href="#DejaVuSans-6f" x="190.039062"/>
      <use xlink:href="#DejaVuSans-67" x="251.220703"/>
      <use xlink:href="#DejaVuSans-65" x="314.697266"/>
      <use xlink:href="#DejaVuSans-6e" x="376.220703"/>
      <use xlink:href="#DejaVuSans-6f" x="439.599609"/>
      <use xlink:href="#DejaVuSans-75" x="500.78125"/>
      <use xlink:href="#DejaVuSans-73" x="564.160156"/>
      <use xlink:href="#DejaVuSans-20" x="616.259766"/>
      <use xlink:href="#DejaVuSans-74" x="648.046875"/>
      <use xlink:href="#DejaVuSans-72" x="687.255859"/>
      <use xlink:href="#DejaVuSans-61" x="728.369141"/>
      <use xlink:href="#DejaVuSans-69" x="789.648438"/>
      <use xlink:href="#DejaVuSans-6e" x="817.431641"/>
      <use xlink:href="#DejaVuSans-69" x="880.810547"/>
      <use xlink:href="#DejaVuSans-6e" x="908.59375"/>
      <use xlink:href="#DejaVuSans-67" x="971.972656"/>
      <use xlink:href="#DejaVuSans-20" x="1035.449219"/>
      <use xlink:href="#DejaVuSans-55" x="1067.236328"/>
      <use xlink:href="#DejaVuSans-54" x="1140.429688"/>
      <use xlink:href="#DejaVuSans-52" x="1201.513672"/>
      <use xlink:href="#DejaVuSans-73" x="1270.996094"/>
      <use xlink:href="#DejaVuSans-20" x="1323.095703"/>
      <use xlink:href="#DejaVuSans-28" x="1354.882812"/>
      <use xlink:href="#DejaVuSans-6e" x="1393.896484"/>
      <use xlink:href="#DejaVuSans-3d" x="1457.275391"/>
      <use xlink:href="#DejaVuSans-32" x="1541.064453"/>
      <use xlink:href="#DejaVuSans-38" x="1604.6875"/>
      <use xlink:href="#DejaVuSans-32" x="1668.310547"/>
      <use xlink:href="#DejaVuSans-34" x="1731.933594"/>
      <use xlink:href="#DejaVuSans-36" x="1795.556641"/>
      <use xlink:href="#DejaVuSans-29" x="1859.179688"/>
     </g>
    </g>
    <g id="patch_17">
     <path d="M 479.536364 39.173594 
L 493.536364 39.173594 
L 493.536364 34.273594 
L 479.536364 34.273594 
z
" style="fill: #0000ff; fill-opacity: 0.2; stroke: #0000ff; stroke-linejoin: miter"/>
    </g>
    <g id="text_33">
     <!-- In-house UTRs (n=211) -->
     <g transform="translate(499.136364 39.173594) scale(0.07 -0.07)">
      <use xlink:href="#DejaVuSans-49"/>
      <use xlink:href="#DejaVuSans-6e" x="29.492188"/>
      <use xlink:href="#DejaVuSans-2d" x="92.871094"/>
      <use xlink:href="#DejaVuSans-68" x="128.955078"/>
      <use xlink:href="#DejaVuSans-6f" x="192.333984"/>
      <use xlink:href="#DejaVuSans-75" x="253.515625"/>
      <use xlink:href="#DejaVuSans-73" x="316.894531"/>
      <use xlink:href="#DejaVuSans-65" x="368.994141"/>
      <use xlink:href="#DejaVuSans-20" x="430.517578"/>
      <use xlink:href="#DejaVuSans-55" x="462.304688"/>
      <use xlink:href="#DejaVuSans-54" x="535.498047"/>
      <use xlink:href="#DejaVuSans-52" x="596.582031"/>
      <use xlink:href="#DejaVuSans-73" x="666.064453"/>
      <use xlink:href="#DejaVuSans-20" x="718.164062"/>
      <use xlink:href="#DejaVuSans-28" x="749.951172"/>
      <use xlink:href="#DejaVuSans-6e" x="788.964844"/>
      <use xlink:href="#DejaVuSans-3d" x="852.34375"/>
      <use xlink:href="#DejaVuSans-32" x="936.132812"/>
      <use xlink:href="#DejaVuSans-31" x="999.755859"/>
      <use xlink:href="#DejaVuSans-31" x="1063.378906"/>
      <use xlink:href="#DejaVuSans-29" x="1127.001953"/>
     </g>
    </g>
   </g>
  </g>
 </g>
 <defs>
  <clipPath id="pfa0b92f21d">
   <rect x="108" y="17.28" width="304.363636" height="110.88"/>
  </clipPath>
  <clipPath id="p942ee04214">
   <rect x="473.236364" y="17.28" width="304.363636" height="110.88"/>
  </clipPath>
 </defs>
</svg>
