<?xml version="1.0" encoding="utf-8" standalone="no"?>
<!DOCTYPE svg PUBLIC "-//W3C//DTD SVG 1.1//EN"
  "http://www.w3.org/Graphics/SVG/1.1/DTD/svg11.dtd">
<svg xmlns:xlink="http://www.w3.org/1999/xlink" width="432pt" height="432pt" viewBox="0 0 432 432" xmlns="http://www.w3.org/2000/svg" version="1.1">
 <metadata>
  <rdf:RDF xmlns:dc="http://purl.org/dc/elements/1.1/" xmlns:cc="http://creativecommons.org/ns#" xmlns:rdf="http://www.w3.org/1999/02/22-rdf-syntax-ns#">
   <cc:Work>
    <dc:type rdf:resource="http://purl.org/dc/dcmitype/StillImage"/>
    <dc:date>2023-05-23T21:44:18.896565</dc:date>
    <dc:format>image/svg+xml</dc:format>
    <dc:creator>
     <cc:Agent>
      <dc:title>Matplotlib v3.7.1, https://matplotlib.org/</dc:title>
     </cc:Agent>
    </dc:creator>
   </cc:Work>
  </rdf:RDF>
 </metadata>
 <defs>
  <style type="text/css">*{stroke-linejoin: round; stroke-linecap: butt}</style>
 </defs>
 <g id="figure_1">
  <g id="patch_1">
   <path d="M 0 432 
L 432 432 
L 432 0 
L 0 0 
z
" style="fill: #ffffff"/>
  </g>
  <g id="axes_1">
   <g id="patch_2">
    <path d="M 54 384.48 
L 388.8 384.48 
L 388.8 51.84 
L 54 51.84 
z
" style="fill: #ffffff"/>
   </g>
   <g id="matplotlib.axis_1">
    <g id="xtick_1">
     <g id="line2d_1">
      <defs>
       <path id="m6f7ad801b4" d="M 0 0 
L 0 3.5 
" style="stroke: #000000; stroke-width: 0.8"/>
      </defs>
      <g>
       <use xlink:href="#m6f7ad801b4" x="66.291608" y="384.48" style="stroke: #000000; stroke-width: 0.8"/>
      </g>
     </g>
     <g id="text_1">
      <!-- 0% -->
      <g transform="translate(58.359577 399.078438) scale(0.1 -0.1)">
       <defs>
        <path id="DejaVuSans-30" d="M 2034 4250 
Q 1547 4250 1301 3770 
Q 1056 3291 1056 2328 
Q 1056 1369 1301 889 
Q 1547 409 2034 409 
Q 2525 409 2770 889 
Q 3016 1369 3016 2328 
Q 3016 3291 2770 3770 
Q 2525 4250 2034 4250 
z
M 2034 4750 
Q 2819 4750 3233 4129 
Q 3647 3509 3647 2328 
Q 3647 1150 3233 529 
Q 2819 -91 2034 -91 
Q 1250 -91 836 529 
Q 422 1150 422 2328 
Q 422 3509 836 4129 
Q 1250 4750 2034 4750 
z
" transform="scale(0.015625)"/>
        <path id="DejaVuSans-25" d="M 4653 2053 
Q 4381 2053 4226 1822 
Q 4072 1591 4072 1178 
Q 4072 772 4226 539 
Q 4381 306 4653 306 
Q 4919 306 5073 539 
Q 5228 772 5228 1178 
Q 5228 1588 5073 1820 
Q 4919 2053 4653 2053 
z
M 4653 2450 
Q 5147 2450 5437 2106 
Q 5728 1763 5728 1178 
Q 5728 594 5436 251 
Q 5144 -91 4653 -91 
Q 4153 -91 3862 251 
Q 3572 594 3572 1178 
Q 3572 1766 3864 2108 
Q 4156 2450 4653 2450 
z
M 1428 4353 
Q 1159 4353 1004 4120 
Q 850 3888 850 3481 
Q 850 3069 1003 2837 
Q 1156 2606 1428 2606 
Q 1700 2606 1854 2837 
Q 2009 3069 2009 3481 
Q 2009 3884 1853 4118 
Q 1697 4353 1428 4353 
z
M 4250 4750 
L 4750 4750 
L 1831 -91 
L 1331 -91 
L 4250 4750 
z
M 1428 4750 
Q 1922 4750 2215 4408 
Q 2509 4066 2509 3481 
Q 2509 2891 2217 2550 
Q 1925 2209 1428 2209 
Q 931 2209 642 2551 
Q 353 2894 353 3481 
Q 353 4063 643 4406 
Q 934 4750 1428 4750 
z
" transform="scale(0.015625)"/>
       </defs>
       <use xlink:href="#DejaVuSans-30"/>
       <use xlink:href="#DejaVuSans-25" x="63.623047"/>
      </g>
     </g>
    </g>
    <g id="xtick_2">
     <g id="line2d_2">
      <g>
       <use xlink:href="#m6f7ad801b4" x="97.166958" y="384.48" style="stroke: #000000; stroke-width: 0.8"/>
      </g>
     </g>
     <g id="text_2">
      <!-- 5% -->
      <g transform="translate(89.234927 399.078438) scale(0.1 -0.1)">
       <defs>
        <path id="DejaVuSans-35" d="M 691 4666 
L 3169 4666 
L 3169 4134 
L 1269 4134 
L 1269 2991 
Q 1406 3038 1543 3061 
Q 1681 3084 1819 3084 
Q 2600 3084 3056 2656 
Q 3513 2228 3513 1497 
Q 3513 744 3044 326 
Q 2575 -91 1722 -91 
Q 1428 -91 1123 -41 
Q 819 9 494 109 
L 494 744 
Q 775 591 1075 516 
Q 1375 441 1709 441 
Q 2250 441 2565 725 
Q 2881 1009 2881 1497 
Q 2881 1984 2565 2268 
Q 2250 2553 1709 2553 
Q 1456 2553 1204 2497 
Q 953 2441 691 2322 
L 691 4666 
z
" transform="scale(0.015625)"/>
       </defs>
       <use xlink:href="#DejaVuSans-35"/>
       <use xlink:href="#DejaVuSans-25" x="63.623047"/>
      </g>
     </g>
    </g>
    <g id="xtick_3">
     <g id="line2d_3">
      <g>
       <use xlink:href="#m6f7ad801b4" x="128.042308" y="384.48" style="stroke: #000000; stroke-width: 0.8"/>
      </g>
     </g>
     <g id="text_3">
      <!-- 10% -->
      <g transform="translate(116.929026 399.078438) scale(0.1 -0.1)">
       <defs>
        <path id="DejaVuSans-31" d="M 794 531 
L 1825 531 
L 1825 4091 
L 703 3866 
L 703 4441 
L 1819 4666 
L 2450 4666 
L 2450 531 
L 3481 531 
L 3481 0 
L 794 0 
L 794 531 
z
" transform="scale(0.015625)"/>
       </defs>
       <use xlink:href="#DejaVuSans-31"/>
       <use xlink:href="#DejaVuSans-30" x="63.623047"/>
       <use xlink:href="#DejaVuSans-25" x="127.246094"/>
      </g>
     </g>
    </g>
    <g id="xtick_4">
     <g id="line2d_4">
      <g>
       <use xlink:href="#m6f7ad801b4" x="158.917657" y="384.48" style="stroke: #000000; stroke-width: 0.8"/>
      </g>
     </g>
     <g id="text_4">
      <!-- 15% -->
      <g transform="translate(147.804376 399.078438) scale(0.1 -0.1)">
       <use xlink:href="#DejaVuSans-31"/>
       <use xlink:href="#DejaVuSans-35" x="63.623047"/>
       <use xlink:href="#DejaVuSans-25" x="127.246094"/>
      </g>
     </g>
    </g>
    <g id="xtick_5">
     <g id="line2d_5">
      <g>
       <use xlink:href="#m6f7ad801b4" x="189.793007" y="384.48" style="stroke: #000000; stroke-width: 0.8"/>
      </g>
     </g>
     <g id="text_5">
      <!-- 20% -->
      <g transform="translate(178.679726 399.078438) scale(0.1 -0.1)">
       <defs>
        <path id="DejaVuSans-32" d="M 1228 531 
L 3431 531 
L 3431 0 
L 469 0 
L 469 531 
Q 828 903 1448 1529 
Q 2069 2156 2228 2338 
Q 2531 2678 2651 2914 
Q 2772 3150 2772 3378 
Q 2772 3750 2511 3984 
Q 2250 4219 1831 4219 
Q 1534 4219 1204 4116 
Q 875 4013 500 3803 
L 500 4441 
Q 881 4594 1212 4672 
Q 1544 4750 1819 4750 
Q 2544 4750 2975 4387 
Q 3406 4025 3406 3419 
Q 3406 3131 3298 2873 
Q 3191 2616 2906 2266 
Q 2828 2175 2409 1742 
Q 1991 1309 1228 531 
z
" transform="scale(0.015625)"/>
       </defs>
       <use xlink:href="#DejaVuSans-32"/>
       <use xlink:href="#DejaVuSans-30" x="63.623047"/>
       <use xlink:href="#DejaVuSans-25" x="127.246094"/>
      </g>
     </g>
    </g>
    <g id="xtick_6">
     <g id="line2d_6">
      <g>
       <use xlink:href="#m6f7ad801b4" x="220.668357" y="384.48" style="stroke: #000000; stroke-width: 0.8"/>
      </g>
     </g>
     <g id="text_6">
      <!-- 25% -->
      <g transform="translate(209.555075 399.078438) scale(0.1 -0.1)">
       <use xlink:href="#DejaVuSans-32"/>
       <use xlink:href="#DejaVuSans-35" x="63.623047"/>
       <use xlink:href="#DejaVuSans-25" x="127.246094"/>
      </g>
     </g>
    </g>
    <g id="xtick_7">
     <g id="line2d_7">
      <g>
       <use xlink:href="#m6f7ad801b4" x="251.543706" y="384.48" style="stroke: #000000; stroke-width: 0.8"/>
      </g>
     </g>
     <g id="text_7">
      <!-- 30% -->
      <g transform="translate(240.430425 399.078438) scale(0.1 -0.1)">
       <defs>
        <path id="DejaVuSans-33" d="M 2597 2516 
Q 3050 2419 3304 2112 
Q 3559 1806 3559 1356 
Q 3559 666 3084 287 
Q 2609 -91 1734 -91 
Q 1441 -91 1130 -33 
Q 819 25 488 141 
L 488 750 
Q 750 597 1062 519 
Q 1375 441 1716 441 
Q 2309 441 2620 675 
Q 2931 909 2931 1356 
Q 2931 1769 2642 2001 
Q 2353 2234 1838 2234 
L 1294 2234 
L 1294 2753 
L 1863 2753 
Q 2328 2753 2575 2939 
Q 2822 3125 2822 3475 
Q 2822 3834 2567 4026 
Q 2313 4219 1838 4219 
Q 1578 4219 1281 4162 
Q 984 4106 628 3988 
L 628 4550 
Q 988 4650 1302 4700 
Q 1616 4750 1894 4750 
Q 2613 4750 3031 4423 
Q 3450 4097 3450 3541 
Q 3450 3153 3228 2886 
Q 3006 2619 2597 2516 
z
" transform="scale(0.015625)"/>
       </defs>
       <use xlink:href="#DejaVuSans-33"/>
       <use xlink:href="#DejaVuSans-30" x="63.623047"/>
       <use xlink:href="#DejaVuSans-25" x="127.246094"/>
      </g>
     </g>
    </g>
    <g id="xtick_8">
     <g id="line2d_8">
      <g>
       <use xlink:href="#m6f7ad801b4" x="282.419056" y="384.48" style="stroke: #000000; stroke-width: 0.8"/>
      </g>
     </g>
     <g id="text_8">
      <!-- 35% -->
      <g transform="translate(271.305775 399.078438) scale(0.1 -0.1)">
       <use xlink:href="#DejaVuSans-33"/>
       <use xlink:href="#DejaVuSans-35" x="63.623047"/>
       <use xlink:href="#DejaVuSans-25" x="127.246094"/>
      </g>
     </g>
    </g>
    <g id="xtick_9">
     <g id="line2d_9">
      <g>
       <use xlink:href="#m6f7ad801b4" x="313.294406" y="384.48" style="stroke: #000000; stroke-width: 0.8"/>
      </g>
     </g>
     <g id="text_9">
      <!-- 40% -->
      <g transform="translate(302.181124 399.078438) scale(0.1 -0.1)">
       <defs>
        <path id="DejaVuSans-34" d="M 2419 4116 
L 825 1625 
L 2419 1625 
L 2419 4116 
z
M 2253 4666 
L 3047 4666 
L 3047 1625 
L 3713 1625 
L 3713 1100 
L 3047 1100 
L 3047 0 
L 2419 0 
L 2419 1100 
L 313 1100 
L 313 1709 
L 2253 4666 
z
" transform="scale(0.015625)"/>
       </defs>
       <use xlink:href="#DejaVuSans-34"/>
       <use xlink:href="#DejaVuSans-30" x="63.623047"/>
       <use xlink:href="#DejaVuSans-25" x="127.246094"/>
      </g>
     </g>
    </g>
    <g id="xtick_10">
     <g id="line2d_10">
      <g>
       <use xlink:href="#m6f7ad801b4" x="344.169755" y="384.48" style="stroke: #000000; stroke-width: 0.8"/>
      </g>
     </g>
     <g id="text_10">
      <!-- 45% -->
      <g transform="translate(333.056474 399.078438) scale(0.1 -0.1)">
       <use xlink:href="#DejaVuSans-34"/>
       <use xlink:href="#DejaVuSans-35" x="63.623047"/>
       <use xlink:href="#DejaVuSans-25" x="127.246094"/>
      </g>
     </g>
    </g>
    <g id="xtick_11">
     <g id="line2d_11">
      <g>
       <use xlink:href="#m6f7ad801b4" x="375.045105" y="384.48" style="stroke: #000000; stroke-width: 0.8"/>
      </g>
     </g>
     <g id="text_11">
      <!-- 50% -->
      <g transform="translate(363.931824 399.078438) scale(0.1 -0.1)">
       <use xlink:href="#DejaVuSans-35"/>
       <use xlink:href="#DejaVuSans-30" x="63.623047"/>
       <use xlink:href="#DejaVuSans-25" x="127.246094"/>
      </g>
     </g>
    </g>
    <g id="text_12">
     <!-- Top True Label Rank % -->
     <g transform="translate(182.101016 410.477031) scale(0.07 -0.07)">
      <defs>
       <path id="DejaVuSans-54" d="M -19 4666 
L 3928 4666 
L 3928 4134 
L 2272 4134 
L 2272 0 
L 1638 0 
L 1638 4134 
L -19 4134 
L -19 4666 
z
" transform="scale(0.015625)"/>
       <path id="DejaVuSans-6f" d="M 1959 3097 
Q 1497 3097 1228 2736 
Q 959 2375 959 1747 
Q 959 1119 1226 758 
Q 1494 397 1959 397 
Q 2419 397 2687 759 
Q 2956 1122 2956 1747 
Q 2956 2369 2687 2733 
Q 2419 3097 1959 3097 
z
M 1959 3584 
Q 2709 3584 3137 3096 
Q 3566 2609 3566 1747 
Q 3566 888 3137 398 
Q 2709 -91 1959 -91 
Q 1206 -91 779 398 
Q 353 888 353 1747 
Q 353 2609 779 3096 
Q 1206 3584 1959 3584 
z
" transform="scale(0.015625)"/>
       <path id="DejaVuSans-70" d="M 1159 525 
L 1159 -1331 
L 581 -1331 
L 581 3500 
L 1159 3500 
L 1159 2969 
Q 1341 3281 1617 3432 
Q 1894 3584 2278 3584 
Q 2916 3584 3314 3078 
Q 3713 2572 3713 1747 
Q 3713 922 3314 415 
Q 2916 -91 2278 -91 
Q 1894 -91 1617 61 
Q 1341 213 1159 525 
z
M 3116 1747 
Q 3116 2381 2855 2742 
Q 2594 3103 2138 3103 
Q 1681 3103 1420 2742 
Q 1159 2381 1159 1747 
Q 1159 1113 1420 752 
Q 1681 391 2138 391 
Q 2594 391 2855 752 
Q 3116 1113 3116 1747 
z
" transform="scale(0.015625)"/>
       <path id="DejaVuSans-20" transform="scale(0.015625)"/>
       <path id="DejaVuSans-72" d="M 2631 2963 
Q 2534 3019 2420 3045 
Q 2306 3072 2169 3072 
Q 1681 3072 1420 2755 
Q 1159 2438 1159 1844 
L 1159 0 
L 581 0 
L 581 3500 
L 1159 3500 
L 1159 2956 
Q 1341 3275 1631 3429 
Q 1922 3584 2338 3584 
Q 2397 3584 2469 3576 
Q 2541 3569 2628 3553 
L 2631 2963 
z
" transform="scale(0.015625)"/>
       <path id="DejaVuSans-75" d="M 544 1381 
L 544 3500 
L 1119 3500 
L 1119 1403 
Q 1119 906 1312 657 
Q 1506 409 1894 409 
Q 2359 409 2629 706 
Q 2900 1003 2900 1516 
L 2900 3500 
L 3475 3500 
L 3475 0 
L 2900 0 
L 2900 538 
Q 2691 219 2414 64 
Q 2138 -91 1772 -91 
Q 1169 -91 856 284 
Q 544 659 544 1381 
z
M 1991 3584 
L 1991 3584 
z
" transform="scale(0.015625)"/>
       <path id="DejaVuSans-65" d="M 3597 1894 
L 3597 1613 
L 953 1613 
Q 991 1019 1311 708 
Q 1631 397 2203 397 
Q 2534 397 2845 478 
Q 3156 559 3463 722 
L 3463 178 
Q 3153 47 2828 -22 
Q 2503 -91 2169 -91 
Q 1331 -91 842 396 
Q 353 884 353 1716 
Q 353 2575 817 3079 
Q 1281 3584 2069 3584 
Q 2775 3584 3186 3129 
Q 3597 2675 3597 1894 
z
M 3022 2063 
Q 3016 2534 2758 2815 
Q 2500 3097 2075 3097 
Q 1594 3097 1305 2825 
Q 1016 2553 972 2059 
L 3022 2063 
z
" transform="scale(0.015625)"/>
       <path id="DejaVuSans-4c" d="M 628 4666 
L 1259 4666 
L 1259 531 
L 3531 531 
L 3531 0 
L 628 0 
L 628 4666 
z
" transform="scale(0.015625)"/>
       <path id="DejaVuSans-61" d="M 2194 1759 
Q 1497 1759 1228 1600 
Q 959 1441 959 1056 
Q 959 750 1161 570 
Q 1363 391 1709 391 
Q 2188 391 2477 730 
Q 2766 1069 2766 1631 
L 2766 1759 
L 2194 1759 
z
M 3341 1997 
L 3341 0 
L 2766 0 
L 2766 531 
Q 2569 213 2275 61 
Q 1981 -91 1556 -91 
Q 1019 -91 701 211 
Q 384 513 384 1019 
Q 384 1609 779 1909 
Q 1175 2209 1959 2209 
L 2766 2209 
L 2766 2266 
Q 2766 2663 2505 2880 
Q 2244 3097 1772 3097 
Q 1472 3097 1187 3025 
Q 903 2953 641 2809 
L 641 3341 
Q 956 3463 1253 3523 
Q 1550 3584 1831 3584 
Q 2591 3584 2966 3190 
Q 3341 2797 3341 1997 
z
" transform="scale(0.015625)"/>
       <path id="DejaVuSans-62" d="M 3116 1747 
Q 3116 2381 2855 2742 
Q 2594 3103 2138 3103 
Q 1681 3103 1420 2742 
Q 1159 2381 1159 1747 
Q 1159 1113 1420 752 
Q 1681 391 2138 391 
Q 2594 391 2855 752 
Q 3116 1113 3116 1747 
z
M 1159 2969 
Q 1341 3281 1617 3432 
Q 1894 3584 2278 3584 
Q 2916 3584 3314 3078 
Q 3713 2572 3713 1747 
Q 3713 922 3314 415 
Q 2916 -91 2278 -91 
Q 1894 -91 1617 61 
Q 1341 213 1159 525 
L 1159 0 
L 581 0 
L 581 4863 
L 1159 4863 
L 1159 2969 
z
" transform="scale(0.015625)"/>
       <path id="DejaVuSans-6c" d="M 603 4863 
L 1178 4863 
L 1178 0 
L 603 0 
L 603 4863 
z
" transform="scale(0.015625)"/>
       <path id="DejaVuSans-52" d="M 2841 2188 
Q 3044 2119 3236 1894 
Q 3428 1669 3622 1275 
L 4263 0 
L 3584 0 
L 2988 1197 
Q 2756 1666 2539 1819 
Q 2322 1972 1947 1972 
L 1259 1972 
L 1259 0 
L 628 0 
L 628 4666 
L 2053 4666 
Q 2853 4666 3247 4331 
Q 3641 3997 3641 3322 
Q 3641 2881 3436 2590 
Q 3231 2300 2841 2188 
z
M 1259 4147 
L 1259 2491 
L 2053 2491 
Q 2509 2491 2742 2702 
Q 2975 2913 2975 3322 
Q 2975 3731 2742 3939 
Q 2509 4147 2053 4147 
L 1259 4147 
z
" transform="scale(0.015625)"/>
       <path id="DejaVuSans-6e" d="M 3513 2113 
L 3513 0 
L 2938 0 
L 2938 2094 
Q 2938 2591 2744 2837 
Q 2550 3084 2163 3084 
Q 1697 3084 1428 2787 
Q 1159 2491 1159 1978 
L 1159 0 
L 581 0 
L 581 3500 
L 1159 3500 
L 1159 2956 
Q 1366 3272 1645 3428 
Q 1925 3584 2291 3584 
Q 2894 3584 3203 3211 
Q 3513 2838 3513 2113 
z
" transform="scale(0.015625)"/>
       <path id="DejaVuSans-6b" d="M 581 4863 
L 1159 4863 
L 1159 1991 
L 2875 3500 
L 3609 3500 
L 1753 1863 
L 3688 0 
L 2938 0 
L 1159 1709 
L 1159 0 
L 581 0 
L 581 4863 
z
" transform="scale(0.015625)"/>
      </defs>
      <use xlink:href="#DejaVuSans-54"/>
      <use xlink:href="#DejaVuSans-6f" x="44.083984"/>
      <use xlink:href="#DejaVuSans-70" x="105.265625"/>
      <use xlink:href="#DejaVuSans-20" x="168.742188"/>
      <use xlink:href="#DejaVuSans-54" x="200.529297"/>
      <use xlink:href="#DejaVuSans-72" x="246.863281"/>
      <use xlink:href="#DejaVuSans-75" x="287.976562"/>
      <use xlink:href="#DejaVuSans-65" x="351.355469"/>
      <use xlink:href="#DejaVuSans-20" x="412.878906"/>
      <use xlink:href="#DejaVuSans-4c" x="444.666016"/>
      <use xlink:href="#DejaVuSans-61" x="500.378906"/>
      <use xlink:href="#DejaVuSans-62" x="561.658203"/>
      <use xlink:href="#DejaVuSans-65" x="625.134766"/>
      <use xlink:href="#DejaVuSans-6c" x="686.658203"/>
      <use xlink:href="#DejaVuSans-20" x="714.441406"/>
      <use xlink:href="#DejaVuSans-52" x="746.228516"/>
      <use xlink:href="#DejaVuSans-61" x="813.460938"/>
      <use xlink:href="#DejaVuSans-6e" x="874.740234"/>
      <use xlink:href="#DejaVuSans-6b" x="938.119141"/>
      <use xlink:href="#DejaVuSans-20" x="996.029297"/>
      <use xlink:href="#DejaVuSans-25" x="1027.816406"/>
     </g>
    </g>
   </g>
   <g id="matplotlib.axis_2">
    <g id="ytick_1">
     <g id="line2d_12">
      <defs>
       <path id="m29a19bc149" d="M 0 0 
L -3.5 0 
" style="stroke: #000000; stroke-width: 0.8"/>
      </defs>
      <g>
       <use xlink:href="#m29a19bc149" x="54" y="369.36" style="stroke: #000000; stroke-width: 0.8"/>
      </g>
     </g>
     <g id="text_13">
      <!-- 0% -->
      <g transform="translate(31.135937 373.159219) scale(0.1 -0.1)">
       <use xlink:href="#DejaVuSans-30"/>
       <use xlink:href="#DejaVuSans-25" x="63.623047"/>
      </g>
     </g>
    </g>
    <g id="ytick_2">
     <g id="line2d_13">
      <g>
       <use xlink:href="#m29a19bc149" x="54" y="318.96" style="stroke: #000000; stroke-width: 0.8"/>
      </g>
     </g>
     <g id="text_14">
      <!-- 10% -->
      <g transform="translate(24.773438 322.759219) scale(0.1 -0.1)">
       <use xlink:href="#DejaVuSans-31"/>
       <use xlink:href="#DejaVuSans-30" x="63.623047"/>
       <use xlink:href="#DejaVuSans-25" x="127.246094"/>
      </g>
     </g>
    </g>
    <g id="ytick_3">
     <g id="line2d_14">
      <g>
       <use xlink:href="#m29a19bc149" x="54" y="268.56" style="stroke: #000000; stroke-width: 0.8"/>
      </g>
     </g>
     <g id="text_15">
      <!-- 20% -->
      <g transform="translate(24.773438 272.359219) scale(0.1 -0.1)">
       <use xlink:href="#DejaVuSans-32"/>
       <use xlink:href="#DejaVuSans-30" x="63.623047"/>
       <use xlink:href="#DejaVuSans-25" x="127.246094"/>
      </g>
     </g>
    </g>
    <g id="ytick_4">
     <g id="line2d_15">
      <g>
       <use xlink:href="#m29a19bc149" x="54" y="218.16" style="stroke: #000000; stroke-width: 0.8"/>
      </g>
     </g>
     <g id="text_16">
      <!-- 30% -->
      <g transform="translate(24.773438 221.959219) scale(0.1 -0.1)">
       <use xlink:href="#DejaVuSans-33"/>
       <use xlink:href="#DejaVuSans-30" x="63.623047"/>
       <use xlink:href="#DejaVuSans-25" x="127.246094"/>
      </g>
     </g>
    </g>
    <g id="ytick_5">
     <g id="line2d_16">
      <g>
       <use xlink:href="#m29a19bc149" x="54" y="167.76" style="stroke: #000000; stroke-width: 0.8"/>
      </g>
     </g>
     <g id="text_17">
      <!-- 40% -->
      <g transform="translate(24.773438 171.559219) scale(0.1 -0.1)">
       <use xlink:href="#DejaVuSans-34"/>
       <use xlink:href="#DejaVuSans-30" x="63.623047"/>
       <use xlink:href="#DejaVuSans-25" x="127.246094"/>
      </g>
     </g>
    </g>
    <g id="ytick_6">
     <g id="line2d_17">
      <g>
       <use xlink:href="#m29a19bc149" x="54" y="117.36" style="stroke: #000000; stroke-width: 0.8"/>
      </g>
     </g>
     <g id="text_18">
      <!-- 50% -->
      <g transform="translate(24.773438 121.159219) scale(0.1 -0.1)">
       <use xlink:href="#DejaVuSans-35"/>
       <use xlink:href="#DejaVuSans-30" x="63.623047"/>
       <use xlink:href="#DejaVuSans-25" x="127.246094"/>
      </g>
     </g>
    </g>
    <g id="ytick_7">
     <g id="line2d_18">
      <g>
       <use xlink:href="#m29a19bc149" x="54" y="66.96" style="stroke: #000000; stroke-width: 0.8"/>
      </g>
     </g>
     <g id="text_19">
      <!-- 60% -->
      <g transform="translate(24.773438 70.759219) scale(0.1 -0.1)">
       <defs>
        <path id="DejaVuSans-36" d="M 2113 2584 
Q 1688 2584 1439 2293 
Q 1191 2003 1191 1497 
Q 1191 994 1439 701 
Q 1688 409 2113 409 
Q 2538 409 2786 701 
Q 3034 994 3034 1497 
Q 3034 2003 2786 2293 
Q 2538 2584 2113 2584 
z
M 3366 4563 
L 3366 3988 
Q 3128 4100 2886 4159 
Q 2644 4219 2406 4219 
Q 1781 4219 1451 3797 
Q 1122 3375 1075 2522 
Q 1259 2794 1537 2939 
Q 1816 3084 2150 3084 
Q 2853 3084 3261 2657 
Q 3669 2231 3669 1497 
Q 3669 778 3244 343 
Q 2819 -91 2113 -91 
Q 1303 -91 875 529 
Q 447 1150 447 2328 
Q 447 3434 972 4092 
Q 1497 4750 2381 4750 
Q 2619 4750 2861 4703 
Q 3103 4656 3366 4563 
z
" transform="scale(0.015625)"/>
       </defs>
       <use xlink:href="#DejaVuSans-36"/>
       <use xlink:href="#DejaVuSans-30" x="63.623047"/>
       <use xlink:href="#DejaVuSans-25" x="127.246094"/>
      </g>
     </g>
    </g>
    <g id="text_20">
     <!-- Top Overlap-Prediction Rank % -->
     <g transform="translate(19.317656 271.878437) rotate(-90) scale(0.07 -0.07)">
      <defs>
       <path id="DejaVuSans-4f" d="M 2522 4238 
Q 1834 4238 1429 3725 
Q 1025 3213 1025 2328 
Q 1025 1447 1429 934 
Q 1834 422 2522 422 
Q 3209 422 3611 934 
Q 4013 1447 4013 2328 
Q 4013 3213 3611 3725 
Q 3209 4238 2522 4238 
z
M 2522 4750 
Q 3503 4750 4090 4092 
Q 4678 3434 4678 2328 
Q 4678 1225 4090 567 
Q 3503 -91 2522 -91 
Q 1538 -91 948 565 
Q 359 1222 359 2328 
Q 359 3434 948 4092 
Q 1538 4750 2522 4750 
z
" transform="scale(0.015625)"/>
       <path id="DejaVuSans-76" d="M 191 3500 
L 800 3500 
L 1894 563 
L 2988 3500 
L 3597 3500 
L 2284 0 
L 1503 0 
L 191 3500 
z
" transform="scale(0.015625)"/>
       <path id="DejaVuSans-2d" d="M 313 2009 
L 1997 2009 
L 1997 1497 
L 313 1497 
L 313 2009 
z
" transform="scale(0.015625)"/>
       <path id="DejaVuSans-50" d="M 1259 4147 
L 1259 2394 
L 2053 2394 
Q 2494 2394 2734 2622 
Q 2975 2850 2975 3272 
Q 2975 3691 2734 3919 
Q 2494 4147 2053 4147 
L 1259 4147 
z
M 628 4666 
L 2053 4666 
Q 2838 4666 3239 4311 
Q 3641 3956 3641 3272 
Q 3641 2581 3239 2228 
Q 2838 1875 2053 1875 
L 1259 1875 
L 1259 0 
L 628 0 
L 628 4666 
z
" transform="scale(0.015625)"/>
       <path id="DejaVuSans-64" d="M 2906 2969 
L 2906 4863 
L 3481 4863 
L 3481 0 
L 2906 0 
L 2906 525 
Q 2725 213 2448 61 
Q 2172 -91 1784 -91 
Q 1150 -91 751 415 
Q 353 922 353 1747 
Q 353 2572 751 3078 
Q 1150 3584 1784 3584 
Q 2172 3584 2448 3432 
Q 2725 3281 2906 2969 
z
M 947 1747 
Q 947 1113 1208 752 
Q 1469 391 1925 391 
Q 2381 391 2643 752 
Q 2906 1113 2906 1747 
Q 2906 2381 2643 2742 
Q 2381 3103 1925 3103 
Q 1469 3103 1208 2742 
Q 947 2381 947 1747 
z
" transform="scale(0.015625)"/>
       <path id="DejaVuSans-69" d="M 603 3500 
L 1178 3500 
L 1178 0 
L 603 0 
L 603 3500 
z
M 603 4863 
L 1178 4863 
L 1178 4134 
L 603 4134 
L 603 4863 
z
" transform="scale(0.015625)"/>
       <path id="DejaVuSans-63" d="M 3122 3366 
L 3122 2828 
Q 2878 2963 2633 3030 
Q 2388 3097 2138 3097 
Q 1578 3097 1268 2742 
Q 959 2388 959 1747 
Q 959 1106 1268 751 
Q 1578 397 2138 397 
Q 2388 397 2633 464 
Q 2878 531 3122 666 
L 3122 134 
Q 2881 22 2623 -34 
Q 2366 -91 2075 -91 
Q 1284 -91 818 406 
Q 353 903 353 1747 
Q 353 2603 823 3093 
Q 1294 3584 2113 3584 
Q 2378 3584 2631 3529 
Q 2884 3475 3122 3366 
z
" transform="scale(0.015625)"/>
       <path id="DejaVuSans-74" d="M 1172 4494 
L 1172 3500 
L 2356 3500 
L 2356 3053 
L 1172 3053 
L 1172 1153 
Q 1172 725 1289 603 
Q 1406 481 1766 481 
L 2356 481 
L 2356 0 
L 1766 0 
Q 1100 0 847 248 
Q 594 497 594 1153 
L 594 3053 
L 172 3053 
L 172 3500 
L 594 3500 
L 594 4494 
L 1172 4494 
z
" transform="scale(0.015625)"/>
      </defs>
      <use xlink:href="#DejaVuSans-54"/>
      <use xlink:href="#DejaVuSans-6f" x="44.083984"/>
      <use xlink:href="#DejaVuSans-70" x="105.265625"/>
      <use xlink:href="#DejaVuSans-20" x="168.742188"/>
      <use xlink:href="#DejaVuSans-4f" x="200.529297"/>
      <use xlink:href="#DejaVuSans-76" x="279.240234"/>
      <use xlink:href="#DejaVuSans-65" x="338.419922"/>
      <use xlink:href="#DejaVuSans-72" x="399.943359"/>
      <use xlink:href="#DejaVuSans-6c" x="441.056641"/>
      <use xlink:href="#DejaVuSans-61" x="468.839844"/>
      <use xlink:href="#DejaVuSans-70" x="530.119141"/>
      <use xlink:href="#DejaVuSans-2d" x="593.595703"/>
      <use xlink:href="#DejaVuSans-50" x="629.679688"/>
      <use xlink:href="#DejaVuSans-72" x="688.232422"/>
      <use xlink:href="#DejaVuSans-65" x="727.095703"/>
      <use xlink:href="#DejaVuSans-64" x="788.619141"/>
      <use xlink:href="#DejaVuSans-69" x="852.095703"/>
      <use xlink:href="#DejaVuSans-63" x="879.878906"/>
      <use xlink:href="#DejaVuSans-74" x="934.859375"/>
      <use xlink:href="#DejaVuSans-69" x="974.068359"/>
      <use xlink:href="#DejaVuSans-6f" x="1001.851562"/>
      <use xlink:href="#DejaVuSans-6e" x="1063.033203"/>
      <use xlink:href="#DejaVuSans-20" x="1126.412109"/>
      <use xlink:href="#DejaVuSans-52" x="1158.199219"/>
      <use xlink:href="#DejaVuSans-61" x="1225.431641"/>
      <use xlink:href="#DejaVuSans-6e" x="1286.710938"/>
      <use xlink:href="#DejaVuSans-6b" x="1350.089844"/>
      <use xlink:href="#DejaVuSans-20" x="1408"/>
      <use xlink:href="#DejaVuSans-25" x="1439.787109"/>
     </g>
    </g>
   </g>
   <g id="line2d_19">
    <path d="M 69.218182 369.36 
L 72.144755 369.36 
L 75.071329 369.36 
L 77.997902 369.36 
L 80.924476 369.36 
L 83.851049 369.36 
L 86.777622 369.36 
L 89.704196 369.36 
L 92.630769 313.92 
L 95.557343 318.96 
L 98.483916 278.64 
L 101.41049 283.68 
L 104.337063 293.76 
L 107.263636 298.8 
L 110.19021 303.84 
L 113.116783 308.88 
L 116.043357 278.64 
L 118.96993 283.68 
L 121.896503 288.72 
L 124.823077 293.76 
L 127.74965 298.8 
L 130.676224 278.64 
L 133.602797 283.68 
L 136.529371 283.68 
L 139.455944 288.72 
L 142.382517 293.76 
L 145.309091 293.76 
L 148.235664 298.8 
L 151.162238 298.8 
L 154.088811 303.84 
L 157.015385 303.84 
L 159.941958 308.88 
L 162.868531 308.88 
L 165.795105 308.88 
L 168.721678 313.92 
L 171.648252 313.92 
L 174.574825 313.92 
L 177.501399 313.92 
L 180.427972 318.96 
L 183.354545 318.96 
L 186.281119 318.96 
L 189.207692 308.88 
L 192.134266 288.72 
L 195.060839 288.72 
L 197.987413 278.64 
L 200.913986 283.68 
L 203.840559 273.6 
L 206.767133 273.6 
L 209.693706 268.56 
L 212.62028 268.56 
L 215.546853 258.48 
L 218.473427 263.52 
L 221.4 263.52 
L 224.326573 258.48 
L 227.253147 248.4 
L 230.17972 233.28 
L 233.106294 228.24 
L 236.032867 228.24 
L 238.959441 223.2 
L 241.886014 218.16 
L 244.812587 213.12 
L 247.739161 213.12 
L 250.665734 208.08 
L 253.592308 203.04 
L 256.518881 198 
L 259.445455 192.96 
L 262.372028 182.88 
L 265.298601 177.84 
L 268.225175 177.84 
L 271.151748 172.8 
L 274.078322 177.84 
L 277.004895 177.84 
L 279.931469 177.84 
L 282.858042 162.72 
L 285.784615 152.64 
L 288.711189 157.68 
L 291.637762 157.68 
L 294.564336 157.68 
L 297.490909 152.64 
L 300.417483 157.68 
L 303.344056 152.64 
L 306.270629 152.64 
L 309.197203 142.56 
L 312.123776 147.6 
L 315.05035 142.56 
L 317.976923 132.48 
L 320.903497 132.48 
L 323.83007 127.44 
L 326.756643 132.48 
L 329.683217 127.44 
L 332.60979 132.48 
L 335.536364 132.48 
L 338.462937 137.52 
L 341.38951 132.48 
L 344.316084 127.44 
L 347.242657 117.36 
L 350.169231 122.4 
L 353.095804 122.4 
L 356.022378 122.4 
L 358.948951 117.36 
L 361.875524 117.36 
L 364.802098 117.36 
L 367.728671 117.36 
L 370.655245 107.28 
L 373.581818 112.32 
" clip-path="url(#p99d3c8762e)" style="fill: none; stroke-dasharray: 5.55,2.4; stroke-dashoffset: 0; stroke: #008000; stroke-width: 1.5"/>
   </g>
   <g id="line2d_20">
    <path d="M 69.218182 369.36 
L 72.144755 369.36 
L 75.071329 369.36 
L 77.997902 243.36 
L 80.924476 268.56 
L 83.851049 283.68 
L 86.777622 298.8 
L 89.704196 308.88 
L 92.630769 313.92 
L 95.557343 318.96 
L 98.483916 278.64 
L 101.41049 283.68 
L 104.337063 293.76 
L 107.263636 298.8 
L 110.19021 303.84 
L 113.116783 273.6 
L 116.043357 278.64 
L 118.96993 283.68 
L 121.896503 288.72 
L 124.823077 293.76 
L 127.74965 298.8 
L 130.676224 298.8 
L 133.602797 303.84 
L 136.529371 308.88 
L 139.455944 288.72 
L 142.382517 273.6 
L 145.309091 258.48 
L 148.235664 263.52 
L 151.162238 263.52 
L 154.088811 268.56 
L 157.015385 273.6 
L 159.941958 273.6 
L 162.868531 278.64 
L 165.795105 278.64 
L 168.721678 283.68 
L 171.648252 273.6 
L 174.574825 273.6 
L 177.501399 278.64 
L 180.427972 278.64 
L 183.354545 278.64 
L 186.281119 283.68 
L 189.207692 283.68 
L 192.134266 263.52 
L 195.060839 253.44 
L 197.987413 248.4 
L 200.913986 248.4 
L 203.840559 238.32 
L 206.767133 243.36 
L 209.693706 223.2 
L 212.62028 228.24 
L 215.546853 233.28 
L 218.473427 223.2 
L 221.4 218.16 
L 224.326573 218.16 
L 227.253147 223.2 
L 230.17972 223.2 
L 233.106294 208.08 
L 236.032867 203.04 
L 238.959441 208.08 
L 241.886014 192.96 
L 244.812587 198 
L 247.739161 192.96 
L 250.665734 192.96 
L 253.592308 187.92 
L 256.518881 192.96 
L 259.445455 187.92 
L 262.372028 187.92 
L 265.298601 177.84 
L 268.225175 177.84 
L 271.151748 172.8 
L 274.078322 172.8 
L 277.004895 167.76 
L 279.931469 162.72 
L 282.858042 157.68 
L 285.784615 152.64 
L 288.711189 152.64 
L 291.637762 152.64 
L 294.564336 142.56 
L 297.490909 132.48 
L 300.417483 127.44 
L 303.344056 132.48 
L 306.270629 137.52 
L 309.197203 132.48 
L 312.123776 137.52 
L 315.05035 137.52 
L 317.976923 127.44 
L 320.903497 127.44 
L 323.83007 127.44 
L 326.756643 132.48 
L 329.683217 132.48 
L 332.60979 132.48 
L 335.536364 132.48 
L 338.462937 132.48 
L 341.38951 122.4 
L 344.316084 112.32 
L 347.242657 112.32 
L 350.169231 107.28 
L 353.095804 107.28 
L 356.022378 107.28 
L 358.948951 107.28 
L 361.875524 102.24 
L 364.802098 97.2 
L 367.728671 97.2 
L 370.655245 92.16 
L 373.581818 87.12 
" clip-path="url(#p99d3c8762e)" style="fill: none; stroke: #ff0000; stroke-width: 1.5; stroke-linecap: square"/>
   </g>
   <g id="line2d_21">
    <path d="M 69.218182 369.36 
L 72.144755 369.36 
L 75.071329 369.36 
L 77.997902 369.36 
L 80.924476 369.36 
L 83.851049 369.36 
L 86.777622 369.36 
L 89.704196 369.36 
L 92.630769 369.36 
L 95.557343 369.36 
L 98.483916 369.36 
L 101.41049 329.04 
L 104.337063 329.04 
L 107.263636 334.08 
L 110.19021 334.08 
L 113.116783 339.12 
L 116.043357 339.12 
L 118.96993 339.12 
L 121.896503 344.16 
L 124.823077 344.16 
L 127.74965 344.16 
L 130.676224 324 
L 133.602797 303.84 
L 136.529371 283.68 
L 139.455944 288.72 
L 142.382517 293.76 
L 145.309091 293.76 
L 148.235664 278.64 
L 151.162238 283.68 
L 154.088811 283.68 
L 157.015385 288.72 
L 159.941958 288.72 
L 162.868531 278.64 
L 165.795105 278.64 
L 168.721678 283.68 
L 171.648252 283.68 
L 174.574825 288.72 
L 177.501399 288.72 
L 180.427972 278.64 
L 183.354545 278.64 
L 186.281119 268.56 
L 189.207692 273.6 
L 192.134266 263.52 
L 195.060839 268.56 
L 197.987413 258.48 
L 200.913986 248.4 
L 203.840559 253.44 
L 206.767133 253.44 
L 209.693706 258.48 
L 212.62028 258.48 
L 215.546853 248.4 
L 218.473427 243.36 
L 221.4 228.24 
L 224.326573 213.12 
L 227.253147 213.12 
L 230.17972 208.08 
L 233.106294 203.04 
L 236.032867 187.92 
L 238.959441 182.88 
L 241.886014 182.88 
L 244.812587 187.92 
L 247.739161 182.88 
L 250.665734 177.84 
L 253.592308 172.8 
L 256.518881 167.76 
L 259.445455 172.8 
L 262.372028 172.8 
L 265.298601 167.76 
L 268.225175 162.72 
L 271.151748 167.76 
L 274.078322 157.68 
L 277.004895 157.68 
L 279.931469 157.68 
L 282.858042 152.64 
L 285.784615 147.6 
L 288.711189 142.56 
L 291.637762 147.6 
L 294.564336 147.6 
L 297.490909 147.6 
L 300.417483 147.6 
L 303.344056 147.6 
L 306.270629 142.56 
L 309.197203 132.48 
L 312.123776 122.4 
L 315.05035 127.44 
L 317.976923 127.44 
L 320.903497 127.44 
L 323.83007 122.4 
L 326.756643 127.44 
L 329.683217 117.36 
L 332.60979 112.32 
L 335.536364 107.28 
L 338.462937 102.24 
L 341.38951 97.2 
L 344.316084 87.12 
L 347.242657 82.08 
L 350.169231 77.04 
L 353.095804 77.04 
L 356.022378 77.04 
L 358.948951 82.08 
L 361.875524 82.08 
L 364.802098 77.04 
L 367.728671 77.04 
L 370.655245 72 
L 373.581818 66.96 
" clip-path="url(#p99d3c8762e)" style="fill: none; stroke: #0000ff; stroke-width: 1.5; stroke-linecap: square"/>
   </g>
   <g id="line2d_22">
    <path d="M 69.218182 366.971374 
L 72.144755 364.582749 
L 75.071329 362.194123 
L 77.997902 359.805498 
L 80.924476 357.416872 
L 83.851049 355.028246 
L 86.777622 352.639621 
L 89.704196 350.250995 
L 92.630769 347.86237 
L 95.557343 345.473744 
L 98.483916 343.085118 
L 101.41049 340.696493 
L 104.337063 338.307867 
L 107.263636 335.919242 
L 110.19021 333.530616 
L 113.116783 331.141991 
L 116.043357 328.753365 
L 118.96993 326.364739 
L 121.896503 323.976114 
L 124.823077 321.587488 
L 127.74965 319.198863 
L 130.676224 316.810237 
L 133.602797 314.421611 
L 136.529371 312.032986 
L 139.455944 309.64436 
L 142.382517 307.255735 
L 145.309091 304.867109 
L 148.235664 302.478483 
L 151.162238 300.089858 
L 154.088811 297.701232 
L 157.015385 295.312607 
L 159.941958 292.923981 
L 162.868531 290.535355 
L 165.795105 288.14673 
L 168.721678 285.758104 
L 171.648252 283.369479 
L 174.574825 280.980853 
L 177.501399 278.592227 
L 180.427972 276.203602 
L 183.354545 273.814976 
L 186.281119 271.426351 
L 189.207692 269.037725 
L 192.134266 266.6491 
L 195.060839 264.260474 
L 197.987413 261.871848 
L 200.913986 259.483223 
L 203.840559 257.094597 
L 206.767133 254.705972 
L 209.693706 252.317346 
L 212.62028 249.92872 
L 215.546853 247.540095 
L 218.473427 245.151469 
L 221.4 242.762844 
L 224.326573 240.374218 
L 227.253147 237.985592 
L 230.17972 235.596967 
L 233.106294 233.208341 
L 236.032867 230.819716 
L 238.959441 228.43109 
L 241.886014 226.042464 
L 244.812587 223.653839 
L 247.739161 221.265213 
L 250.665734 218.876588 
L 253.592308 216.487962 
L 256.518881 214.099336 
L 259.445455 211.710711 
L 262.372028 209.322085 
L 265.298601 206.93346 
L 268.225175 204.544834 
L 271.151748 202.156209 
L 274.078322 199.767583 
L 277.004895 197.378957 
L 279.931469 194.990332 
L 282.858042 192.601706 
L 285.784615 190.213081 
L 288.711189 187.824455 
L 291.637762 185.435829 
L 294.564336 183.047204 
L 297.490909 180.658578 
L 300.417483 178.269953 
L 303.344056 175.881327 
L 306.270629 173.492701 
L 309.197203 171.104076 
L 312.123776 168.71545 
L 315.05035 166.326825 
L 317.976923 163.938199 
L 320.903497 161.549573 
L 323.83007 159.160948 
L 326.756643 156.772322 
L 329.683217 154.383697 
L 332.60979 151.995071 
L 335.536364 149.606445 
L 338.462937 147.21782 
L 341.38951 144.829194 
L 344.316084 142.440569 
L 347.242657 140.051943 
L 350.169231 137.663318 
L 353.095804 135.274692 
L 356.022378 132.886066 
L 358.948951 130.497441 
L 361.875524 128.108815 
L 364.802098 125.72019 
L 367.728671 123.331564 
L 370.655245 120.942938 
L 373.581818 118.554313 
" clip-path="url(#p99d3c8762e)" style="fill: none; stroke-dasharray: 1.5,2.475; stroke-dashoffset: 0; stroke: #000000; stroke-width: 1.5"/>
   </g>
   <g id="patch_3">
    <path d="M 54 384.48 
L 54 51.84 
" style="fill: none; stroke: #000000; stroke-width: 0.8; stroke-linejoin: miter; stroke-linecap: square"/>
   </g>
   <g id="patch_4">
    <path d="M 388.8 384.48 
L 388.8 51.84 
" style="fill: none; stroke: #000000; stroke-width: 0.8; stroke-linejoin: miter; stroke-linecap: square"/>
   </g>
   <g id="patch_5">
    <path d="M 54 384.48 
L 388.8 384.48 
" style="fill: none; stroke: #000000; stroke-width: 0.8; stroke-linejoin: miter; stroke-linecap: square"/>
   </g>
   <g id="patch_6">
    <path d="M 54 51.84 
L 388.8 51.84 
" style="fill: none; stroke: #000000; stroke-width: 0.8; stroke-linejoin: miter; stroke-linecap: square"/>
   </g>
   <g id="text_21">
    <!-- (c) Ranking performance of the Zero-Shot -->
    <g transform="translate(54 45.84) scale(0.07 -0.07)">
     <defs>
      <path id="DejaVuSans-28" d="M 1984 4856 
Q 1566 4138 1362 3434 
Q 1159 2731 1159 2009 
Q 1159 1288 1364 580 
Q 1569 -128 1984 -844 
L 1484 -844 
Q 1016 -109 783 600 
Q 550 1309 550 2009 
Q 550 2706 781 3412 
Q 1013 4119 1484 4856 
L 1984 4856 
z
" transform="scale(0.015625)"/>
      <path id="DejaVuSans-29" d="M 513 4856 
L 1013 4856 
Q 1481 4119 1714 3412 
Q 1947 2706 1947 2009 
Q 1947 1309 1714 600 
Q 1481 -109 1013 -844 
L 513 -844 
Q 928 -128 1133 580 
Q 1338 1288 1338 2009 
Q 1338 2731 1133 3434 
Q 928 4138 513 4856 
z
" transform="scale(0.015625)"/>
      <path id="DejaVuSans-67" d="M 2906 1791 
Q 2906 2416 2648 2759 
Q 2391 3103 1925 3103 
Q 1463 3103 1205 2759 
Q 947 2416 947 1791 
Q 947 1169 1205 825 
Q 1463 481 1925 481 
Q 2391 481 2648 825 
Q 2906 1169 2906 1791 
z
M 3481 434 
Q 3481 -459 3084 -895 
Q 2688 -1331 1869 -1331 
Q 1566 -1331 1297 -1286 
Q 1028 -1241 775 -1147 
L 775 -588 
Q 1028 -725 1275 -790 
Q 1522 -856 1778 -856 
Q 2344 -856 2625 -561 
Q 2906 -266 2906 331 
L 2906 616 
Q 2728 306 2450 153 
Q 2172 0 1784 0 
Q 1141 0 747 490 
Q 353 981 353 1791 
Q 353 2603 747 3093 
Q 1141 3584 1784 3584 
Q 2172 3584 2450 3431 
Q 2728 3278 2906 2969 
L 2906 3500 
L 3481 3500 
L 3481 434 
z
" transform="scale(0.015625)"/>
      <path id="DejaVuSans-66" d="M 2375 4863 
L 2375 4384 
L 1825 4384 
Q 1516 4384 1395 4259 
Q 1275 4134 1275 3809 
L 1275 3500 
L 2222 3500 
L 2222 3053 
L 1275 3053 
L 1275 0 
L 697 0 
L 697 3053 
L 147 3053 
L 147 3500 
L 697 3500 
L 697 3744 
Q 697 4328 969 4595 
Q 1241 4863 1831 4863 
L 2375 4863 
z
" transform="scale(0.015625)"/>
      <path id="DejaVuSans-6d" d="M 3328 2828 
Q 3544 3216 3844 3400 
Q 4144 3584 4550 3584 
Q 5097 3584 5394 3201 
Q 5691 2819 5691 2113 
L 5691 0 
L 5113 0 
L 5113 2094 
Q 5113 2597 4934 2840 
Q 4756 3084 4391 3084 
Q 3944 3084 3684 2787 
Q 3425 2491 3425 1978 
L 3425 0 
L 2847 0 
L 2847 2094 
Q 2847 2600 2669 2842 
Q 2491 3084 2119 3084 
Q 1678 3084 1418 2786 
Q 1159 2488 1159 1978 
L 1159 0 
L 581 0 
L 581 3500 
L 1159 3500 
L 1159 2956 
Q 1356 3278 1631 3431 
Q 1906 3584 2284 3584 
Q 2666 3584 2933 3390 
Q 3200 3197 3328 2828 
z
" transform="scale(0.015625)"/>
      <path id="DejaVuSans-68" d="M 3513 2113 
L 3513 0 
L 2938 0 
L 2938 2094 
Q 2938 2591 2744 2837 
Q 2550 3084 2163 3084 
Q 1697 3084 1428 2787 
Q 1159 2491 1159 1978 
L 1159 0 
L 581 0 
L 581 4863 
L 1159 4863 
L 1159 2956 
Q 1366 3272 1645 3428 
Q 1925 3584 2291 3584 
Q 2894 3584 3203 3211 
Q 3513 2838 3513 2113 
z
" transform="scale(0.015625)"/>
      <path id="DejaVuSans-5a" d="M 359 4666 
L 4025 4666 
L 4025 4184 
L 1075 531 
L 4097 531 
L 4097 0 
L 288 0 
L 288 481 
L 3238 4134 
L 359 4134 
L 359 4666 
z
" transform="scale(0.015625)"/>
      <path id="DejaVuSans-53" d="M 3425 4513 
L 3425 3897 
Q 3066 4069 2747 4153 
Q 2428 4238 2131 4238 
Q 1616 4238 1336 4038 
Q 1056 3838 1056 3469 
Q 1056 3159 1242 3001 
Q 1428 2844 1947 2747 
L 2328 2669 
Q 3034 2534 3370 2195 
Q 3706 1856 3706 1288 
Q 3706 609 3251 259 
Q 2797 -91 1919 -91 
Q 1588 -91 1214 -16 
Q 841 59 441 206 
L 441 856 
Q 825 641 1194 531 
Q 1563 422 1919 422 
Q 2459 422 2753 634 
Q 3047 847 3047 1241 
Q 3047 1584 2836 1778 
Q 2625 1972 2144 2069 
L 1759 2144 
Q 1053 2284 737 2584 
Q 422 2884 422 3419 
Q 422 4038 858 4394 
Q 1294 4750 2059 4750 
Q 2388 4750 2728 4690 
Q 3069 4631 3425 4513 
z
" transform="scale(0.015625)"/>
     </defs>
     <use xlink:href="#DejaVuSans-28"/>
     <use xlink:href="#DejaVuSans-63" x="39.013672"/>
     <use xlink:href="#DejaVuSans-29" x="93.994141"/>
     <use xlink:href="#DejaVuSans-20" x="133.007812"/>
     <use xlink:href="#DejaVuSans-52" x="164.794922"/>
     <use xlink:href="#DejaVuSans-61" x="232.027344"/>
     <use xlink:href="#DejaVuSans-6e" x="293.306641"/>
     <use xlink:href="#DejaVuSans-6b" x="356.685547"/>
     <use xlink:href="#DejaVuSans-69" x="414.595703"/>
     <use xlink:href="#DejaVuSans-6e" x="442.378906"/>
     <use xlink:href="#DejaVuSans-67" x="505.757812"/>
     <use xlink:href="#DejaVuSans-20" x="569.234375"/>
     <use xlink:href="#DejaVuSans-70" x="601.021484"/>
     <use xlink:href="#DejaVuSans-65" x="664.498047"/>
     <use xlink:href="#DejaVuSans-72" x="726.021484"/>
     <use xlink:href="#DejaVuSans-66" x="767.134766"/>
     <use xlink:href="#DejaVuSans-6f" x="802.339844"/>
     <use xlink:href="#DejaVuSans-72" x="863.521484"/>
     <use xlink:href="#DejaVuSans-6d" x="902.884766"/>
     <use xlink:href="#DejaVuSans-61" x="1000.296875"/>
     <use xlink:href="#DejaVuSans-6e" x="1061.576172"/>
     <use xlink:href="#DejaVuSans-63" x="1124.955078"/>
     <use xlink:href="#DejaVuSans-65" x="1179.935547"/>
     <use xlink:href="#DejaVuSans-20" x="1241.458984"/>
     <use xlink:href="#DejaVuSans-6f" x="1273.246094"/>
     <use xlink:href="#DejaVuSans-66" x="1334.427734"/>
     <use xlink:href="#DejaVuSans-20" x="1369.632812"/>
     <use xlink:href="#DejaVuSans-74" x="1401.419922"/>
     <use xlink:href="#DejaVuSans-68" x="1440.628906"/>
     <use xlink:href="#DejaVuSans-65" x="1504.007812"/>
     <use xlink:href="#DejaVuSans-20" x="1565.53125"/>
     <use xlink:href="#DejaVuSans-5a" x="1597.318359"/>
     <use xlink:href="#DejaVuSans-65" x="1665.824219"/>
     <use xlink:href="#DejaVuSans-72" x="1727.347656"/>
     <use xlink:href="#DejaVuSans-6f" x="1766.210938"/>
     <use xlink:href="#DejaVuSans-2d" x="1829.267578"/>
     <use xlink:href="#DejaVuSans-53" x="1865.351562"/>
     <use xlink:href="#DejaVuSans-68" x="1928.828125"/>
     <use xlink:href="#DejaVuSans-6f" x="1992.207031"/>
     <use xlink:href="#DejaVuSans-74" x="2053.388672"/>
    </g>
   </g>
   <g id="legend_1">
    <g id="patch_7">
     <path d="M 58.9 99.424688 
L 290.67 99.424688 
Q 292.07 99.424688 292.07 98.024688 
L 292.07 56.74 
Q 292.07 55.34 290.67 55.34 
L 58.9 55.34 
Q 57.5 55.34 57.5 56.74 
L 57.5 98.024688 
Q 57.5 99.424688 58.9 99.424688 
z
" style="fill: #ffffff; opacity: 0.8; stroke: #cccccc; stroke-linejoin: miter"/>
    </g>
    <g id="line2d_23">
     <path d="M 60.3 61.08 
L 67.3 61.08 
L 74.3 61.08 
" style="fill: none; stroke-dasharray: 5.55,2.4; stroke-dashoffset: 0; stroke: #008000; stroke-width: 1.5"/>
    </g>
    <g id="text_22">
     <!-- MRL: Optimus|${AUC_{50\%}}$=28|${AUC_{100\%}}$=109|Spearman R=0.09 -->
     <g transform="translate(79.9 63.53) scale(0.07 -0.07)">
      <defs>
       <path id="DejaVuSans-4d" d="M 628 4666 
L 1569 4666 
L 2759 1491 
L 3956 4666 
L 4897 4666 
L 4897 0 
L 4281 0 
L 4281 4097 
L 3078 897 
L 2444 897 
L 1241 4097 
L 1241 0 
L 628 0 
L 628 4666 
z
" transform="scale(0.015625)"/>
       <path id="DejaVuSans-3a" d="M 750 794 
L 1409 794 
L 1409 0 
L 750 0 
L 750 794 
z
M 750 3309 
L 1409 3309 
L 1409 2516 
L 750 2516 
L 750 3309 
z
" transform="scale(0.015625)"/>
       <path id="DejaVuSans-73" d="M 2834 3397 
L 2834 2853 
Q 2591 2978 2328 3040 
Q 2066 3103 1784 3103 
Q 1356 3103 1142 2972 
Q 928 2841 928 2578 
Q 928 2378 1081 2264 
Q 1234 2150 1697 2047 
L 1894 2003 
Q 2506 1872 2764 1633 
Q 3022 1394 3022 966 
Q 3022 478 2636 193 
Q 2250 -91 1575 -91 
Q 1294 -91 989 -36 
Q 684 19 347 128 
L 347 722 
Q 666 556 975 473 
Q 1284 391 1588 391 
Q 1994 391 2212 530 
Q 2431 669 2431 922 
Q 2431 1156 2273 1281 
Q 2116 1406 1581 1522 
L 1381 1569 
Q 847 1681 609 1914 
Q 372 2147 372 2553 
Q 372 3047 722 3315 
Q 1072 3584 1716 3584 
Q 2034 3584 2315 3537 
Q 2597 3491 2834 3397 
z
" transform="scale(0.015625)"/>
       <path id="DejaVuSans-7c" d="M 1344 4891 
L 1344 -1509 
L 813 -1509 
L 813 4891 
L 1344 4891 
z
" transform="scale(0.015625)"/>
       <path id="DejaVuSans-Oblique-41" d="M 2356 4666 
L 3072 4666 
L 3938 0 
L 3278 0 
L 3084 1197 
L 984 1197 
L 325 0 
L -341 0 
L 2356 4666 
z
M 2584 4044 
L 1275 1722 
L 2988 1722 
L 2584 4044 
z
" transform="scale(0.015625)"/>
       <path id="DejaVuSans-Oblique-55" d="M 991 4666 
L 1625 4666 
L 1075 1831 
Q 1041 1641 1027 1517 
Q 1013 1394 1013 1300 
Q 1013 869 1253 645 
Q 1494 422 1959 422 
Q 2563 422 2898 753 
Q 3234 1084 3378 1831 
L 3928 4666 
L 4563 4666 
L 4000 1753 
Q 3816 809 3300 359 
Q 2784 -91 1888 -91 
Q 1188 -91 780 261 
Q 372 613 372 1216 
Q 372 1325 387 1461 
Q 403 1597 434 1753 
L 991 4666 
z
" transform="scale(0.015625)"/>
       <path id="DejaVuSans-Oblique-43" d="M 4447 4306 
L 4319 3641 
Q 4019 3944 3683 4091 
Q 3347 4238 2956 4238 
Q 2422 4238 2017 3981 
Q 1613 3725 1319 3200 
Q 1131 2863 1032 2486 
Q 934 2109 934 1728 
Q 934 1091 1264 756 
Q 1594 422 2222 422 
Q 2656 422 3056 561 
Q 3456 700 3834 978 
L 3688 231 
Q 3316 72 2936 -9 
Q 2556 -91 2175 -91 
Q 1278 -91 773 396 
Q 269 884 269 1753 
Q 269 2309 461 2846 
Q 653 3384 1013 3828 
Q 1394 4300 1883 4525 
Q 2372 4750 3022 4750 
Q 3422 4750 3780 4639 
Q 4138 4528 4447 4306 
z
" transform="scale(0.015625)"/>
       <path id="DejaVuSans-3d" d="M 678 2906 
L 4684 2906 
L 4684 2381 
L 678 2381 
L 678 2906 
z
M 678 1631 
L 4684 1631 
L 4684 1100 
L 678 1100 
L 678 1631 
z
" transform="scale(0.015625)"/>
       <path id="DejaVuSans-38" d="M 2034 2216 
Q 1584 2216 1326 1975 
Q 1069 1734 1069 1313 
Q 1069 891 1326 650 
Q 1584 409 2034 409 
Q 2484 409 2743 651 
Q 3003 894 3003 1313 
Q 3003 1734 2745 1975 
Q 2488 2216 2034 2216 
z
M 1403 2484 
Q 997 2584 770 2862 
Q 544 3141 544 3541 
Q 544 4100 942 4425 
Q 1341 4750 2034 4750 
Q 2731 4750 3128 4425 
Q 3525 4100 3525 3541 
Q 3525 3141 3298 2862 
Q 3072 2584 2669 2484 
Q 3125 2378 3379 2068 
Q 3634 1759 3634 1313 
Q 3634 634 3220 271 
Q 2806 -91 2034 -91 
Q 1263 -91 848 271 
Q 434 634 434 1313 
Q 434 1759 690 2068 
Q 947 2378 1403 2484 
z
M 1172 3481 
Q 1172 3119 1398 2916 
Q 1625 2713 2034 2713 
Q 2441 2713 2670 2916 
Q 2900 3119 2900 3481 
Q 2900 3844 2670 4047 
Q 2441 4250 2034 4250 
Q 1625 4250 1398 4047 
Q 1172 3844 1172 3481 
z
" transform="scale(0.015625)"/>
       <path id="DejaVuSans-39" d="M 703 97 
L 703 672 
Q 941 559 1184 500 
Q 1428 441 1663 441 
Q 2288 441 2617 861 
Q 2947 1281 2994 2138 
Q 2813 1869 2534 1725 
Q 2256 1581 1919 1581 
Q 1219 1581 811 2004 
Q 403 2428 403 3163 
Q 403 3881 828 4315 
Q 1253 4750 1959 4750 
Q 2769 4750 3195 4129 
Q 3622 3509 3622 2328 
Q 3622 1225 3098 567 
Q 2575 -91 1691 -91 
Q 1453 -91 1209 -44 
Q 966 3 703 97 
z
M 1959 2075 
Q 2384 2075 2632 2365 
Q 2881 2656 2881 3163 
Q 2881 3666 2632 3958 
Q 2384 4250 1959 4250 
Q 1534 4250 1286 3958 
Q 1038 3666 1038 3163 
Q 1038 2656 1286 2365 
Q 1534 2075 1959 2075 
z
" transform="scale(0.015625)"/>
       <path id="DejaVuSans-2e" d="M 684 794 
L 1344 794 
L 1344 0 
L 684 0 
L 684 794 
z
" transform="scale(0.015625)"/>
      </defs>
      <use xlink:href="#DejaVuSans-4d" transform="translate(0 0.578125)"/>
      <use xlink:href="#DejaVuSans-52" transform="translate(86.279297 0.578125)"/>
      <use xlink:href="#DejaVuSans-4c" transform="translate(155.761719 0.578125)"/>
      <use xlink:href="#DejaVuSans-3a" transform="translate(211.474609 0.578125)"/>
      <use xlink:href="#DejaVuSans-20" transform="translate(245.166016 0.578125)"/>
      <use xlink:href="#DejaVuSans-4f" transform="translate(276.953125 0.578125)"/>
      <use xlink:href="#DejaVuSans-70" transform="translate(355.664062 0.578125)"/>
      <use xlink:href="#DejaVuSans-74" transform="translate(419.140625 0.578125)"/>
      <use xlink:href="#DejaVuSans-69" transform="translate(458.349609 0.578125)"/>
      <use xlink:href="#DejaVuSans-6d" transform="translate(486.132812 0.578125)"/>
      <use xlink:href="#DejaVuSans-75" transform="translate(583.544922 0.578125)"/>
      <use xlink:href="#DejaVuSans-73" transform="translate(646.923828 0.578125)"/>
      <use xlink:href="#DejaVuSans-7c" transform="translate(699.023438 0.578125)"/>
      <use xlink:href="#DejaVuSans-Oblique-41" transform="translate(732.714844 0.578125)"/>
      <use xlink:href="#DejaVuSans-Oblique-55" transform="translate(801.123047 0.578125)"/>
      <use xlink:href="#DejaVuSans-Oblique-43" transform="translate(874.316406 0.578125)"/>
      <use xlink:href="#DejaVuSans-35" transform="translate(944.140625 -15.828125) scale(0.7)"/>
      <use xlink:href="#DejaVuSans-30" transform="translate(988.676758 -15.828125) scale(0.7)"/>
      <use xlink:href="#DejaVuSans-25" transform="translate(1033.212891 -15.828125) scale(0.7)"/>
      <use xlink:href="#DejaVuSans-3d" transform="translate(1102.460938 0.578125)"/>
      <use xlink:href="#DejaVuSans-32" transform="translate(1186.25 0.578125)"/>
      <use xlink:href="#DejaVuSans-38" transform="translate(1249.873047 0.578125)"/>
      <use xlink:href="#DejaVuSans-7c" transform="translate(1313.496094 0.578125)"/>
      <use xlink:href="#DejaVuSans-Oblique-41" transform="translate(1347.1875 0.578125)"/>
      <use xlink:href="#DejaVuSans-Oblique-55" transform="translate(1415.595703 0.578125)"/>
      <use xlink:href="#DejaVuSans-Oblique-43" transform="translate(1488.789062 0.578125)"/>
      <use xlink:href="#DejaVuSans-31" transform="translate(1558.613281 -15.828125) scale(0.7)"/>
      <use xlink:href="#DejaVuSans-30" transform="translate(1603.149414 -15.828125) scale(0.7)"/>
      <use xlink:href="#DejaVuSans-30" transform="translate(1647.685547 -15.828125) scale(0.7)"/>
      <use xlink:href="#DejaVuSans-25" transform="translate(1692.22168 -15.828125) scale(0.7)"/>
      <use xlink:href="#DejaVuSans-3d" transform="translate(1761.469727 0.578125)"/>
      <use xlink:href="#DejaVuSans-31" transform="translate(1845.258789 0.578125)"/>
      <use xlink:href="#DejaVuSans-30" transform="translate(1908.881836 0.578125)"/>
      <use xlink:href="#DejaVuSans-39" transform="translate(1972.504883 0.578125)"/>
      <use xlink:href="#DejaVuSans-7c" transform="translate(2036.12793 0.578125)"/>
      <use xlink:href="#DejaVuSans-53" transform="translate(2069.819336 0.578125)"/>
      <use xlink:href="#DejaVuSans-70" transform="translate(2133.295898 0.578125)"/>
      <use xlink:href="#DejaVuSans-65" transform="translate(2196.772461 0.578125)"/>
      <use xlink:href="#DejaVuSans-61" transform="translate(2258.295898 0.578125)"/>
      <use xlink:href="#DejaVuSans-72" transform="translate(2319.575195 0.578125)"/>
      <use xlink:href="#DejaVuSans-6d" transform="translate(2360.688477 0.578125)"/>
      <use xlink:href="#DejaVuSans-61" transform="translate(2458.100586 0.578125)"/>
      <use xlink:href="#DejaVuSans-6e" transform="translate(2519.379883 0.578125)"/>
      <use xlink:href="#DejaVuSans-20" transform="translate(2582.758789 0.578125)"/>
      <use xlink:href="#DejaVuSans-52" transform="translate(2614.545898 0.578125)"/>
      <use xlink:href="#DejaVuSans-3d" transform="translate(2684.02832 0.578125)"/>
      <use xlink:href="#DejaVuSans-30" transform="translate(2767.817383 0.578125)"/>
      <use xlink:href="#DejaVuSans-2e" transform="translate(2831.44043 0.578125)"/>
      <use xlink:href="#DejaVuSans-30" transform="translate(2863.227539 0.578125)"/>
      <use xlink:href="#DejaVuSans-39" transform="translate(2926.850586 0.578125)"/>
     </g>
    </g>
    <g id="line2d_24">
     <path d="M 60.3 71.65 
L 67.3 71.65 
L 74.3 71.65 
" style="fill: none; stroke: #ff0000; stroke-width: 1.5; stroke-linecap: square"/>
    </g>
    <g id="text_23">
     <!-- MRL: UTR-LM|${AUC_{50\%}}$=32|${AUC_{100\%}}$=113|Spearman R=0.13 -->
     <g transform="translate(79.9 74.1) scale(0.07 -0.07)">
      <defs>
       <path id="DejaVuSans-55" d="M 556 4666 
L 1191 4666 
L 1191 1831 
Q 1191 1081 1462 751 
Q 1734 422 2344 422 
Q 2950 422 3222 751 
Q 3494 1081 3494 1831 
L 3494 4666 
L 4128 4666 
L 4128 1753 
Q 4128 841 3676 375 
Q 3225 -91 2344 -91 
Q 1459 -91 1007 375 
Q 556 841 556 1753 
L 556 4666 
z
" transform="scale(0.015625)"/>
      </defs>
      <use xlink:href="#DejaVuSans-4d" transform="translate(0 0.578125)"/>
      <use xlink:href="#DejaVuSans-52" transform="translate(86.279297 0.578125)"/>
      <use xlink:href="#DejaVuSans-4c" transform="translate(155.761719 0.578125)"/>
      <use xlink:href="#DejaVuSans-3a" transform="translate(211.474609 0.578125)"/>
      <use xlink:href="#DejaVuSans-20" transform="translate(245.166016 0.578125)"/>
      <use xlink:href="#DejaVuSans-55" transform="translate(276.953125 0.578125)"/>
      <use xlink:href="#DejaVuSans-54" transform="translate(348.396484 0.578125)"/>
      <use xlink:href="#DejaVuSans-52" transform="translate(409.480469 0.578125)"/>
      <use xlink:href="#DejaVuSans-2d" transform="translate(478.962891 0.578125)"/>
      <use xlink:href="#DejaVuSans-4c" transform="translate(515.046875 0.578125)"/>
      <use xlink:href="#DejaVuSans-4d" transform="translate(570.759766 0.578125)"/>
      <use xlink:href="#DejaVuSans-7c" transform="translate(657.039062 0.578125)"/>
      <use xlink:href="#DejaVuSans-Oblique-41" transform="translate(690.730469 0.578125)"/>
      <use xlink:href="#DejaVuSans-Oblique-55" transform="translate(759.138672 0.578125)"/>
      <use xlink:href="#DejaVuSans-Oblique-43" transform="translate(832.332031 0.578125)"/>
      <use xlink:href="#DejaVuSans-35" transform="translate(902.15625 -15.828125) scale(0.7)"/>
      <use xlink:href="#DejaVuSans-30" transform="translate(946.692383 -15.828125) scale(0.7)"/>
      <use xlink:href="#DejaVuSans-25" transform="translate(991.228516 -15.828125) scale(0.7)"/>
      <use xlink:href="#DejaVuSans-3d" transform="translate(1060.476562 0.578125)"/>
      <use xlink:href="#DejaVuSans-33" transform="translate(1144.265625 0.578125)"/>
      <use xlink:href="#DejaVuSans-32" transform="translate(1207.888672 0.578125)"/>
      <use xlink:href="#DejaVuSans-7c" transform="translate(1271.511719 0.578125)"/>
      <use xlink:href="#DejaVuSans-Oblique-41" transform="translate(1305.203125 0.578125)"/>
      <use xlink:href="#DejaVuSans-Oblique-55" transform="translate(1373.611328 0.578125)"/>
      <use xlink:href="#DejaVuSans-Oblique-43" transform="translate(1446.804688 0.578125)"/>
      <use xlink:href="#DejaVuSans-31" transform="translate(1516.628906 -15.828125) scale(0.7)"/>
      <use xlink:href="#DejaVuSans-30" transform="translate(1561.165039 -15.828125) scale(0.7)"/>
      <use xlink:href="#DejaVuSans-30" transform="translate(1605.701172 -15.828125) scale(0.7)"/>
      <use xlink:href="#DejaVuSans-25" transform="translate(1650.237305 -15.828125) scale(0.7)"/>
      <use xlink:href="#DejaVuSans-3d" transform="translate(1719.485352 0.578125)"/>
      <use xlink:href="#DejaVuSans-31" transform="translate(1803.274414 0.578125)"/>
      <use xlink:href="#DejaVuSans-31" transform="translate(1866.897461 0.578125)"/>
      <use xlink:href="#DejaVuSans-33" transform="translate(1930.520508 0.578125)"/>
      <use xlink:href="#DejaVuSans-7c" transform="translate(1994.143555 0.578125)"/>
      <use xlink:href="#DejaVuSans-53" transform="translate(2027.834961 0.578125)"/>
      <use xlink:href="#DejaVuSans-70" transform="translate(2091.311523 0.578125)"/>
      <use xlink:href="#DejaVuSans-65" transform="translate(2154.788086 0.578125)"/>
      <use xlink:href="#DejaVuSans-61" transform="translate(2216.311523 0.578125)"/>
      <use xlink:href="#DejaVuSans-72" transform="translate(2277.59082 0.578125)"/>
      <use xlink:href="#DejaVuSans-6d" transform="translate(2318.704102 0.578125)"/>
      <use xlink:href="#DejaVuSans-61" transform="translate(2416.116211 0.578125)"/>
      <use xlink:href="#DejaVuSans-6e" transform="translate(2477.395508 0.578125)"/>
      <use xlink:href="#DejaVuSans-20" transform="translate(2540.774414 0.578125)"/>
      <use xlink:href="#DejaVuSans-52" transform="translate(2572.561523 0.578125)"/>
      <use xlink:href="#DejaVuSans-3d" transform="translate(2642.043945 0.578125)"/>
      <use xlink:href="#DejaVuSans-30" transform="translate(2725.833008 0.578125)"/>
      <use xlink:href="#DejaVuSans-2e" transform="translate(2789.456055 0.578125)"/>
      <use xlink:href="#DejaVuSans-31" transform="translate(2821.243164 0.578125)"/>
      <use xlink:href="#DejaVuSans-33" transform="translate(2884.866211 0.578125)"/>
     </g>
    </g>
    <g id="line2d_25">
     <path d="M 60.3 82.22 
L 67.3 82.22 
L 74.3 82.22 
" style="fill: none; stroke: #0000ff; stroke-width: 1.5; stroke-linecap: square"/>
    </g>
    <g id="text_24">
     <!-- TE: UTR-LM|${AUC_{50\%}}$=30|${AUC_{100\%}}$=114|Spearman R=0.19 -->
     <g transform="translate(79.9 84.67) scale(0.07 -0.07)">
      <defs>
       <path id="DejaVuSans-45" d="M 628 4666 
L 3578 4666 
L 3578 4134 
L 1259 4134 
L 1259 2753 
L 3481 2753 
L 3481 2222 
L 1259 2222 
L 1259 531 
L 3634 531 
L 3634 0 
L 628 0 
L 628 4666 
z
" transform="scale(0.015625)"/>
      </defs>
      <use xlink:href="#DejaVuSans-54" transform="translate(0 0.578125)"/>
      <use xlink:href="#DejaVuSans-45" transform="translate(61.083984 0.578125)"/>
      <use xlink:href="#DejaVuSans-3a" transform="translate(124.267578 0.578125)"/>
      <use xlink:href="#DejaVuSans-20" transform="translate(157.958984 0.578125)"/>
      <use xlink:href="#DejaVuSans-55" transform="translate(189.746094 0.578125)"/>
      <use xlink:href="#DejaVuSans-54" transform="translate(261.189453 0.578125)"/>
      <use xlink:href="#DejaVuSans-52" transform="translate(322.273438 0.578125)"/>
      <use xlink:href="#DejaVuSans-2d" transform="translate(391.755859 0.578125)"/>
      <use xlink:href="#DejaVuSans-4c" transform="translate(427.839844 0.578125)"/>
      <use xlink:href="#DejaVuSans-4d" transform="translate(483.552734 0.578125)"/>
      <use xlink:href="#DejaVuSans-7c" transform="translate(569.832031 0.578125)"/>
      <use xlink:href="#DejaVuSans-Oblique-41" transform="translate(603.523438 0.578125)"/>
      <use xlink:href="#DejaVuSans-Oblique-55" transform="translate(671.931641 0.578125)"/>
      <use xlink:href="#DejaVuSans-Oblique-43" transform="translate(745.125 0.578125)"/>
      <use xlink:href="#DejaVuSans-35" transform="translate(814.949219 -15.828125) scale(0.7)"/>
      <use xlink:href="#DejaVuSans-30" transform="translate(859.485352 -15.828125) scale(0.7)"/>
      <use xlink:href="#DejaVuSans-25" transform="translate(904.021484 -15.828125) scale(0.7)"/>
      <use xlink:href="#DejaVuSans-3d" transform="translate(973.269531 0.578125)"/>
      <use xlink:href="#DejaVuSans-33" transform="translate(1057.058594 0.578125)"/>
      <use xlink:href="#DejaVuSans-30" transform="translate(1120.681641 0.578125)"/>
      <use xlink:href="#DejaVuSans-7c" transform="translate(1184.304688 0.578125)"/>
      <use xlink:href="#DejaVuSans-Oblique-41" transform="translate(1217.996094 0.578125)"/>
      <use xlink:href="#DejaVuSans-Oblique-55" transform="translate(1286.404297 0.578125)"/>
      <use xlink:href="#DejaVuSans-Oblique-43" transform="translate(1359.597656 0.578125)"/>
      <use xlink:href="#DejaVuSans-31" transform="translate(1429.421875 -15.828125) scale(0.7)"/>
      <use xlink:href="#DejaVuSans-30" transform="translate(1473.958008 -15.828125) scale(0.7)"/>
      <use xlink:href="#DejaVuSans-30" transform="translate(1518.494141 -15.828125) scale(0.7)"/>
      <use xlink:href="#DejaVuSans-25" transform="translate(1563.030273 -15.828125) scale(0.7)"/>
      <use xlink:href="#DejaVuSans-3d" transform="translate(1632.27832 0.578125)"/>
      <use xlink:href="#DejaVuSans-31" transform="translate(1716.067383 0.578125)"/>
      <use xlink:href="#DejaVuSans-31" transform="translate(1779.69043 0.578125)"/>
      <use xlink:href="#DejaVuSans-34" transform="translate(1843.313477 0.578125)"/>
      <use xlink:href="#DejaVuSans-7c" transform="translate(1906.936523 0.578125)"/>
      <use xlink:href="#DejaVuSans-53" transform="translate(1940.62793 0.578125)"/>
      <use xlink:href="#DejaVuSans-70" transform="translate(2004.104492 0.578125)"/>
      <use xlink:href="#DejaVuSans-65" transform="translate(2067.581055 0.578125)"/>
      <use xlink:href="#DejaVuSans-61" transform="translate(2129.104492 0.578125)"/>
      <use xlink:href="#DejaVuSans-72" transform="translate(2190.383789 0.578125)"/>
      <use xlink:href="#DejaVuSans-6d" transform="translate(2231.49707 0.578125)"/>
      <use xlink:href="#DejaVuSans-61" transform="translate(2328.90918 0.578125)"/>
      <use xlink:href="#DejaVuSans-6e" transform="translate(2390.188477 0.578125)"/>
      <use xlink:href="#DejaVuSans-20" transform="translate(2453.567383 0.578125)"/>
      <use xlink:href="#DejaVuSans-52" transform="translate(2485.354492 0.578125)"/>
      <use xlink:href="#DejaVuSans-3d" transform="translate(2554.836914 0.578125)"/>
      <use xlink:href="#DejaVuSans-30" transform="translate(2638.625977 0.578125)"/>
      <use xlink:href="#DejaVuSans-2e" transform="translate(2702.249023 0.578125)"/>
      <use xlink:href="#DejaVuSans-31" transform="translate(2734.036133 0.578125)"/>
      <use xlink:href="#DejaVuSans-39" transform="translate(2797.65918 0.578125)"/>
     </g>
    </g>
    <g id="line2d_26">
     <path d="M 60.3 92.718906 
L 67.3 92.718906 
L 74.3 92.718906 
" style="fill: none; stroke-dasharray: 1.5,2.475; stroke-dashoffset: 0; stroke: #000000; stroke-width: 1.5"/>
    </g>
    <g id="text_25">
     <!-- Random: y=x -->
     <g transform="translate(79.9 95.168906) scale(0.07 -0.07)">
      <defs>
       <path id="DejaVuSans-79" d="M 2059 -325 
Q 1816 -950 1584 -1140 
Q 1353 -1331 966 -1331 
L 506 -1331 
L 506 -850 
L 844 -850 
Q 1081 -850 1212 -737 
Q 1344 -625 1503 -206 
L 1606 56 
L 191 3500 
L 800 3500 
L 1894 763 
L 2988 3500 
L 3597 3500 
L 2059 -325 
z
" transform="scale(0.015625)"/>
       <path id="DejaVuSans-78" d="M 3513 3500 
L 2247 1797 
L 3578 0 
L 2900 0 
L 1881 1375 
L 863 0 
L 184 0 
L 1544 1831 
L 300 3500 
L 978 3500 
L 1906 2253 
L 2834 3500 
L 3513 3500 
z
" transform="scale(0.015625)"/>
      </defs>
      <use xlink:href="#DejaVuSans-52"/>
      <use xlink:href="#DejaVuSans-61" x="67.232422"/>
      <use xlink:href="#DejaVuSans-6e" x="128.511719"/>
      <use xlink:href="#DejaVuSans-64" x="191.890625"/>
      <use xlink:href="#DejaVuSans-6f" x="255.367188"/>
      <use xlink:href="#DejaVuSans-6d" x="316.548828"/>
      <use xlink:href="#DejaVuSans-3a" x="413.960938"/>
      <use xlink:href="#DejaVuSans-20" x="447.652344"/>
      <use xlink:href="#DejaVuSans-79" x="479.439453"/>
      <use xlink:href="#DejaVuSans-3d" x="538.619141"/>
      <use xlink:href="#DejaVuSans-78" x="622.408203"/>
     </g>
    </g>
   </g>
  </g>
 </g>
 <defs>
  <clipPath id="p99d3c8762e">
   <rect x="54" y="51.84" width="334.8" height="332.64"/>
  </clipPath>
 </defs>
</svg>
