<?xml version="1.0" encoding="utf-8" standalone="no"?>
<!DOCTYPE svg PUBLIC "-//W3C//DTD SVG 1.1//EN"
  "http://www.w3.org/Graphics/SVG/1.1/DTD/svg11.dtd">
<svg xmlns:xlink="http://www.w3.org/1999/xlink" width="432pt" height="432pt" viewBox="0 0 432 432" xmlns="http://www.w3.org/2000/svg" version="1.1">
 <metadata>
  <rdf:RDF xmlns:dc="http://purl.org/dc/elements/1.1/" xmlns:cc="http://creativecommons.org/ns#" xmlns:rdf="http://www.w3.org/1999/02/22-rdf-syntax-ns#">
   <cc:Work>
    <dc:type rdf:resource="http://purl.org/dc/dcmitype/StillImage"/>
    <dc:date>2023-05-23T23:20:35.878228</dc:date>
    <dc:format>image/svg+xml</dc:format>
    <dc:creator>
     <cc:Agent>
      <dc:title>Matplotlib v3.7.1, https://matplotlib.org/</dc:title>
     </cc:Agent>
    </dc:creator>
   </cc:Work>
  </rdf:RDF>
 </metadata>
 <defs>
  <style type="text/css">*{stroke-linejoin: round; stroke-linecap: butt}</style>
 </defs>
 <g id="figure_1">
  <g id="patch_1">
   <path d="M 0 432 
L 432 432 
L 432 0 
L 0 0 
z
" style="fill: #ffffff"/>
  </g>
  <g id="axes_1">
   <g id="patch_2">
    <path d="M 54 384.48 
L 388.8 384.48 
L 388.8 51.84 
L 54 51.84 
z
" style="fill: #ffffff"/>
   </g>
   <g id="matplotlib.axis_1">
    <g id="xtick_1">
     <g id="line2d_1">
      <defs>
       <path id="m6014d98cbf" d="M 0 0 
L 0 3.5 
" style="stroke: #000000; stroke-width: 0.8"/>
      </defs>
      <g>
       <use xlink:href="#m6014d98cbf" x="66.291608" y="384.48" style="stroke: #000000; stroke-width: 0.8"/>
      </g>
     </g>
     <g id="text_1">
      <!-- 0% -->
      <g transform="translate(58.359577 399.078438) scale(0.1 -0.1)">
       <defs>
        <path id="DejaVuSans-30" d="M 2034 4250 
Q 1547 4250 1301 3770 
Q 1056 3291 1056 2328 
Q 1056 1369 1301 889 
Q 1547 409 2034 409 
Q 2525 409 2770 889 
Q 3016 1369 3016 2328 
Q 3016 3291 2770 3770 
Q 2525 4250 2034 4250 
z
M 2034 4750 
Q 2819 4750 3233 4129 
Q 3647 3509 3647 2328 
Q 3647 1150 3233 529 
Q 2819 -91 2034 -91 
Q 1250 -91 836 529 
Q 422 1150 422 2328 
Q 422 3509 836 4129 
Q 1250 4750 2034 4750 
z
" transform="scale(0.015625)"/>
        <path id="DejaVuSans-25" d="M 4653 2053 
Q 4381 2053 4226 1822 
Q 4072 1591 4072 1178 
Q 4072 772 4226 539 
Q 4381 306 4653 306 
Q 4919 306 5073 539 
Q 5228 772 5228 1178 
Q 5228 1588 5073 1820 
Q 4919 2053 4653 2053 
z
M 4653 2450 
Q 5147 2450 5437 2106 
Q 5728 1763 5728 1178 
Q 5728 594 5436 251 
Q 5144 -91 4653 -91 
Q 4153 -91 3862 251 
Q 3572 594 3572 1178 
Q 3572 1766 3864 2108 
Q 4156 2450 4653 2450 
z
M 1428 4353 
Q 1159 4353 1004 4120 
Q 850 3888 850 3481 
Q 850 3069 1003 2837 
Q 1156 2606 1428 2606 
Q 1700 2606 1854 2837 
Q 2009 3069 2009 3481 
Q 2009 3884 1853 4118 
Q 1697 4353 1428 4353 
z
M 4250 4750 
L 4750 4750 
L 1831 -91 
L 1331 -91 
L 4250 4750 
z
M 1428 4750 
Q 1922 4750 2215 4408 
Q 2509 4066 2509 3481 
Q 2509 2891 2217 2550 
Q 1925 2209 1428 2209 
Q 931 2209 642 2551 
Q 353 2894 353 3481 
Q 353 4063 643 4406 
Q 934 4750 1428 4750 
z
" transform="scale(0.015625)"/>
       </defs>
       <use xlink:href="#DejaVuSans-30"/>
       <use xlink:href="#DejaVuSans-25" x="63.623047"/>
      </g>
     </g>
    </g>
    <g id="xtick_2">
     <g id="line2d_2">
      <g>
       <use xlink:href="#m6014d98cbf" x="97.166958" y="384.48" style="stroke: #000000; stroke-width: 0.8"/>
      </g>
     </g>
     <g id="text_2">
      <!-- 5% -->
      <g transform="translate(89.234927 399.078438) scale(0.1 -0.1)">
       <defs>
        <path id="DejaVuSans-35" d="M 691 4666 
L 3169 4666 
L 3169 4134 
L 1269 4134 
L 1269 2991 
Q 1406 3038 1543 3061 
Q 1681 3084 1819 3084 
Q 2600 3084 3056 2656 
Q 3513 2228 3513 1497 
Q 3513 744 3044 326 
Q 2575 -91 1722 -91 
Q 1428 -91 1123 -41 
Q 819 9 494 109 
L 494 744 
Q 775 591 1075 516 
Q 1375 441 1709 441 
Q 2250 441 2565 725 
Q 2881 1009 2881 1497 
Q 2881 1984 2565 2268 
Q 2250 2553 1709 2553 
Q 1456 2553 1204 2497 
Q 953 2441 691 2322 
L 691 4666 
z
" transform="scale(0.015625)"/>
       </defs>
       <use xlink:href="#DejaVuSans-35"/>
       <use xlink:href="#DejaVuSans-25" x="63.623047"/>
      </g>
     </g>
    </g>
    <g id="xtick_3">
     <g id="line2d_3">
      <g>
       <use xlink:href="#m6014d98cbf" x="128.042308" y="384.48" style="stroke: #000000; stroke-width: 0.8"/>
      </g>
     </g>
     <g id="text_3">
      <!-- 10% -->
      <g transform="translate(116.929026 399.078438) scale(0.1 -0.1)">
       <defs>
        <path id="DejaVuSans-31" d="M 794 531 
L 1825 531 
L 1825 4091 
L 703 3866 
L 703 4441 
L 1819 4666 
L 2450 4666 
L 2450 531 
L 3481 531 
L 3481 0 
L 794 0 
L 794 531 
z
" transform="scale(0.015625)"/>
       </defs>
       <use xlink:href="#DejaVuSans-31"/>
       <use xlink:href="#DejaVuSans-30" x="63.623047"/>
       <use xlink:href="#DejaVuSans-25" x="127.246094"/>
      </g>
     </g>
    </g>
    <g id="xtick_4">
     <g id="line2d_4">
      <g>
       <use xlink:href="#m6014d98cbf" x="158.917657" y="384.48" style="stroke: #000000; stroke-width: 0.8"/>
      </g>
     </g>
     <g id="text_4">
      <!-- 15% -->
      <g transform="translate(147.804376 399.078438) scale(0.1 -0.1)">
       <use xlink:href="#DejaVuSans-31"/>
       <use xlink:href="#DejaVuSans-35" x="63.623047"/>
       <use xlink:href="#DejaVuSans-25" x="127.246094"/>
      </g>
     </g>
    </g>
    <g id="xtick_5">
     <g id="line2d_5">
      <g>
       <use xlink:href="#m6014d98cbf" x="189.793007" y="384.48" style="stroke: #000000; stroke-width: 0.8"/>
      </g>
     </g>
     <g id="text_5">
      <!-- 20% -->
      <g transform="translate(178.679726 399.078438) scale(0.1 -0.1)">
       <defs>
        <path id="DejaVuSans-32" d="M 1228 531 
L 3431 531 
L 3431 0 
L 469 0 
L 469 531 
Q 828 903 1448 1529 
Q 2069 2156 2228 2338 
Q 2531 2678 2651 2914 
Q 2772 3150 2772 3378 
Q 2772 3750 2511 3984 
Q 2250 4219 1831 4219 
Q 1534 4219 1204 4116 
Q 875 4013 500 3803 
L 500 4441 
Q 881 4594 1212 4672 
Q 1544 4750 1819 4750 
Q 2544 4750 2975 4387 
Q 3406 4025 3406 3419 
Q 3406 3131 3298 2873 
Q 3191 2616 2906 2266 
Q 2828 2175 2409 1742 
Q 1991 1309 1228 531 
z
" transform="scale(0.015625)"/>
       </defs>
       <use xlink:href="#DejaVuSans-32"/>
       <use xlink:href="#DejaVuSans-30" x="63.623047"/>
       <use xlink:href="#DejaVuSans-25" x="127.246094"/>
      </g>
     </g>
    </g>
    <g id="xtick_6">
     <g id="line2d_6">
      <g>
       <use xlink:href="#m6014d98cbf" x="220.668357" y="384.48" style="stroke: #000000; stroke-width: 0.8"/>
      </g>
     </g>
     <g id="text_6">
      <!-- 25% -->
      <g transform="translate(209.555075 399.078438) scale(0.1 -0.1)">
       <use xlink:href="#DejaVuSans-32"/>
       <use xlink:href="#DejaVuSans-35" x="63.623047"/>
       <use xlink:href="#DejaVuSans-25" x="127.246094"/>
      </g>
     </g>
    </g>
    <g id="xtick_7">
     <g id="line2d_7">
      <g>
       <use xlink:href="#m6014d98cbf" x="251.543706" y="384.48" style="stroke: #000000; stroke-width: 0.8"/>
      </g>
     </g>
     <g id="text_7">
      <!-- 30% -->
      <g transform="translate(240.430425 399.078438) scale(0.1 -0.1)">
       <defs>
        <path id="DejaVuSans-33" d="M 2597 2516 
Q 3050 2419 3304 2112 
Q 3559 1806 3559 1356 
Q 3559 666 3084 287 
Q 2609 -91 1734 -91 
Q 1441 -91 1130 -33 
Q 819 25 488 141 
L 488 750 
Q 750 597 1062 519 
Q 1375 441 1716 441 
Q 2309 441 2620 675 
Q 2931 909 2931 1356 
Q 2931 1769 2642 2001 
Q 2353 2234 1838 2234 
L 1294 2234 
L 1294 2753 
L 1863 2753 
Q 2328 2753 2575 2939 
Q 2822 3125 2822 3475 
Q 2822 3834 2567 4026 
Q 2313 4219 1838 4219 
Q 1578 4219 1281 4162 
Q 984 4106 628 3988 
L 628 4550 
Q 988 4650 1302 4700 
Q 1616 4750 1894 4750 
Q 2613 4750 3031 4423 
Q 3450 4097 3450 3541 
Q 3450 3153 3228 2886 
Q 3006 2619 2597 2516 
z
" transform="scale(0.015625)"/>
       </defs>
       <use xlink:href="#DejaVuSans-33"/>
       <use xlink:href="#DejaVuSans-30" x="63.623047"/>
       <use xlink:href="#DejaVuSans-25" x="127.246094"/>
      </g>
     </g>
    </g>
    <g id="xtick_8">
     <g id="line2d_8">
      <g>
       <use xlink:href="#m6014d98cbf" x="282.419056" y="384.48" style="stroke: #000000; stroke-width: 0.8"/>
      </g>
     </g>
     <g id="text_8">
      <!-- 35% -->
      <g transform="translate(271.305775 399.078438) scale(0.1 -0.1)">
       <use xlink:href="#DejaVuSans-33"/>
       <use xlink:href="#DejaVuSans-35" x="63.623047"/>
       <use xlink:href="#DejaVuSans-25" x="127.246094"/>
      </g>
     </g>
    </g>
    <g id="xtick_9">
     <g id="line2d_9">
      <g>
       <use xlink:href="#m6014d98cbf" x="313.294406" y="384.48" style="stroke: #000000; stroke-width: 0.8"/>
      </g>
     </g>
     <g id="text_9">
      <!-- 40% -->
      <g transform="translate(302.181124 399.078438) scale(0.1 -0.1)">
       <defs>
        <path id="DejaVuSans-34" d="M 2419 4116 
L 825 1625 
L 2419 1625 
L 2419 4116 
z
M 2253 4666 
L 3047 4666 
L 3047 1625 
L 3713 1625 
L 3713 1100 
L 3047 1100 
L 3047 0 
L 2419 0 
L 2419 1100 
L 313 1100 
L 313 1709 
L 2253 4666 
z
" transform="scale(0.015625)"/>
       </defs>
       <use xlink:href="#DejaVuSans-34"/>
       <use xlink:href="#DejaVuSans-30" x="63.623047"/>
       <use xlink:href="#DejaVuSans-25" x="127.246094"/>
      </g>
     </g>
    </g>
    <g id="xtick_10">
     <g id="line2d_10">
      <g>
       <use xlink:href="#m6014d98cbf" x="344.169755" y="384.48" style="stroke: #000000; stroke-width: 0.8"/>
      </g>
     </g>
     <g id="text_10">
      <!-- 45% -->
      <g transform="translate(333.056474 399.078438) scale(0.1 -0.1)">
       <use xlink:href="#DejaVuSans-34"/>
       <use xlink:href="#DejaVuSans-35" x="63.623047"/>
       <use xlink:href="#DejaVuSans-25" x="127.246094"/>
      </g>
     </g>
    </g>
    <g id="xtick_11">
     <g id="line2d_11">
      <g>
       <use xlink:href="#m6014d98cbf" x="375.045105" y="384.48" style="stroke: #000000; stroke-width: 0.8"/>
      </g>
     </g>
     <g id="text_11">
      <!-- 50% -->
      <g transform="translate(363.931824 399.078438) scale(0.1 -0.1)">
       <use xlink:href="#DejaVuSans-35"/>
       <use xlink:href="#DejaVuSans-30" x="63.623047"/>
       <use xlink:href="#DejaVuSans-25" x="127.246094"/>
      </g>
     </g>
    </g>
    <g id="text_12">
     <!-- Top True Label Rank % -->
     <g transform="translate(182.101016 410.477031) scale(0.07 -0.07)">
      <defs>
       <path id="DejaVuSans-54" d="M -19 4666 
L 3928 4666 
L 3928 4134 
L 2272 4134 
L 2272 0 
L 1638 0 
L 1638 4134 
L -19 4134 
L -19 4666 
z
" transform="scale(0.015625)"/>
       <path id="DejaVuSans-6f" d="M 1959 3097 
Q 1497 3097 1228 2736 
Q 959 2375 959 1747 
Q 959 1119 1226 758 
Q 1494 397 1959 397 
Q 2419 397 2687 759 
Q 2956 1122 2956 1747 
Q 2956 2369 2687 2733 
Q 2419 3097 1959 3097 
z
M 1959 3584 
Q 2709 3584 3137 3096 
Q 3566 2609 3566 1747 
Q 3566 888 3137 398 
Q 2709 -91 1959 -91 
Q 1206 -91 779 398 
Q 353 888 353 1747 
Q 353 2609 779 3096 
Q 1206 3584 1959 3584 
z
" transform="scale(0.015625)"/>
       <path id="DejaVuSans-70" d="M 1159 525 
L 1159 -1331 
L 581 -1331 
L 581 3500 
L 1159 3500 
L 1159 2969 
Q 1341 3281 1617 3432 
Q 1894 3584 2278 3584 
Q 2916 3584 3314 3078 
Q 3713 2572 3713 1747 
Q 3713 922 3314 415 
Q 2916 -91 2278 -91 
Q 1894 -91 1617 61 
Q 1341 213 1159 525 
z
M 3116 1747 
Q 3116 2381 2855 2742 
Q 2594 3103 2138 3103 
Q 1681 3103 1420 2742 
Q 1159 2381 1159 1747 
Q 1159 1113 1420 752 
Q 1681 391 2138 391 
Q 2594 391 2855 752 
Q 3116 1113 3116 1747 
z
" transform="scale(0.015625)"/>
       <path id="DejaVuSans-20" transform="scale(0.015625)"/>
       <path id="DejaVuSans-72" d="M 2631 2963 
Q 2534 3019 2420 3045 
Q 2306 3072 2169 3072 
Q 1681 3072 1420 2755 
Q 1159 2438 1159 1844 
L 1159 0 
L 581 0 
L 581 3500 
L 1159 3500 
L 1159 2956 
Q 1341 3275 1631 3429 
Q 1922 3584 2338 3584 
Q 2397 3584 2469 3576 
Q 2541 3569 2628 3553 
L 2631 2963 
z
" transform="scale(0.015625)"/>
       <path id="DejaVuSans-75" d="M 544 1381 
L 544 3500 
L 1119 3500 
L 1119 1403 
Q 1119 906 1312 657 
Q 1506 409 1894 409 
Q 2359 409 2629 706 
Q 2900 1003 2900 1516 
L 2900 3500 
L 3475 3500 
L 3475 0 
L 2900 0 
L 2900 538 
Q 2691 219 2414 64 
Q 2138 -91 1772 -91 
Q 1169 -91 856 284 
Q 544 659 544 1381 
z
M 1991 3584 
L 1991 3584 
z
" transform="scale(0.015625)"/>
       <path id="DejaVuSans-65" d="M 3597 1894 
L 3597 1613 
L 953 1613 
Q 991 1019 1311 708 
Q 1631 397 2203 397 
Q 2534 397 2845 478 
Q 3156 559 3463 722 
L 3463 178 
Q 3153 47 2828 -22 
Q 2503 -91 2169 -91 
Q 1331 -91 842 396 
Q 353 884 353 1716 
Q 353 2575 817 3079 
Q 1281 3584 2069 3584 
Q 2775 3584 3186 3129 
Q 3597 2675 3597 1894 
z
M 3022 2063 
Q 3016 2534 2758 2815 
Q 2500 3097 2075 3097 
Q 1594 3097 1305 2825 
Q 1016 2553 972 2059 
L 3022 2063 
z
" transform="scale(0.015625)"/>
       <path id="DejaVuSans-4c" d="M 628 4666 
L 1259 4666 
L 1259 531 
L 3531 531 
L 3531 0 
L 628 0 
L 628 4666 
z
" transform="scale(0.015625)"/>
       <path id="DejaVuSans-61" d="M 2194 1759 
Q 1497 1759 1228 1600 
Q 959 1441 959 1056 
Q 959 750 1161 570 
Q 1363 391 1709 391 
Q 2188 391 2477 730 
Q 2766 1069 2766 1631 
L 2766 1759 
L 2194 1759 
z
M 3341 1997 
L 3341 0 
L 2766 0 
L 2766 531 
Q 2569 213 2275 61 
Q 1981 -91 1556 -91 
Q 1019 -91 701 211 
Q 384 513 384 1019 
Q 384 1609 779 1909 
Q 1175 2209 1959 2209 
L 2766 2209 
L 2766 2266 
Q 2766 2663 2505 2880 
Q 2244 3097 1772 3097 
Q 1472 3097 1187 3025 
Q 903 2953 641 2809 
L 641 3341 
Q 956 3463 1253 3523 
Q 1550 3584 1831 3584 
Q 2591 3584 2966 3190 
Q 3341 2797 3341 1997 
z
" transform="scale(0.015625)"/>
       <path id="DejaVuSans-62" d="M 3116 1747 
Q 3116 2381 2855 2742 
Q 2594 3103 2138 3103 
Q 1681 3103 1420 2742 
Q 1159 2381 1159 1747 
Q 1159 1113 1420 752 
Q 1681 391 2138 391 
Q 2594 391 2855 752 
Q 3116 1113 3116 1747 
z
M 1159 2969 
Q 1341 3281 1617 3432 
Q 1894 3584 2278 3584 
Q 2916 3584 3314 3078 
Q 3713 2572 3713 1747 
Q 3713 922 3314 415 
Q 2916 -91 2278 -91 
Q 1894 -91 1617 61 
Q 1341 213 1159 525 
L 1159 0 
L 581 0 
L 581 4863 
L 1159 4863 
L 1159 2969 
z
" transform="scale(0.015625)"/>
       <path id="DejaVuSans-6c" d="M 603 4863 
L 1178 4863 
L 1178 0 
L 603 0 
L 603 4863 
z
" transform="scale(0.015625)"/>
       <path id="DejaVuSans-52" d="M 2841 2188 
Q 3044 2119 3236 1894 
Q 3428 1669 3622 1275 
L 4263 0 
L 3584 0 
L 2988 1197 
Q 2756 1666 2539 1819 
Q 2322 1972 1947 1972 
L 1259 1972 
L 1259 0 
L 628 0 
L 628 4666 
L 2053 4666 
Q 2853 4666 3247 4331 
Q 3641 3997 3641 3322 
Q 3641 2881 3436 2590 
Q 3231 2300 2841 2188 
z
M 1259 4147 
L 1259 2491 
L 2053 2491 
Q 2509 2491 2742 2702 
Q 2975 2913 2975 3322 
Q 2975 3731 2742 3939 
Q 2509 4147 2053 4147 
L 1259 4147 
z
" transform="scale(0.015625)"/>
       <path id="DejaVuSans-6e" d="M 3513 2113 
L 3513 0 
L 2938 0 
L 2938 2094 
Q 2938 2591 2744 2837 
Q 2550 3084 2163 3084 
Q 1697 3084 1428 2787 
Q 1159 2491 1159 1978 
L 1159 0 
L 581 0 
L 581 3500 
L 1159 3500 
L 1159 2956 
Q 1366 3272 1645 3428 
Q 1925 3584 2291 3584 
Q 2894 3584 3203 3211 
Q 3513 2838 3513 2113 
z
" transform="scale(0.015625)"/>
       <path id="DejaVuSans-6b" d="M 581 4863 
L 1159 4863 
L 1159 1991 
L 2875 3500 
L 3609 3500 
L 1753 1863 
L 3688 0 
L 2938 0 
L 1159 1709 
L 1159 0 
L 581 0 
L 581 4863 
z
" transform="scale(0.015625)"/>
      </defs>
      <use xlink:href="#DejaVuSans-54"/>
      <use xlink:href="#DejaVuSans-6f" x="44.083984"/>
      <use xlink:href="#DejaVuSans-70" x="105.265625"/>
      <use xlink:href="#DejaVuSans-20" x="168.742188"/>
      <use xlink:href="#DejaVuSans-54" x="200.529297"/>
      <use xlink:href="#DejaVuSans-72" x="246.863281"/>
      <use xlink:href="#DejaVuSans-75" x="287.976562"/>
      <use xlink:href="#DejaVuSans-65" x="351.355469"/>
      <use xlink:href="#DejaVuSans-20" x="412.878906"/>
      <use xlink:href="#DejaVuSans-4c" x="444.666016"/>
      <use xlink:href="#DejaVuSans-61" x="500.378906"/>
      <use xlink:href="#DejaVuSans-62" x="561.658203"/>
      <use xlink:href="#DejaVuSans-65" x="625.134766"/>
      <use xlink:href="#DejaVuSans-6c" x="686.658203"/>
      <use xlink:href="#DejaVuSans-20" x="714.441406"/>
      <use xlink:href="#DejaVuSans-52" x="746.228516"/>
      <use xlink:href="#DejaVuSans-61" x="813.460938"/>
      <use xlink:href="#DejaVuSans-6e" x="874.740234"/>
      <use xlink:href="#DejaVuSans-6b" x="938.119141"/>
      <use xlink:href="#DejaVuSans-20" x="996.029297"/>
      <use xlink:href="#DejaVuSans-25" x="1027.816406"/>
     </g>
    </g>
   </g>
   <g id="matplotlib.axis_2">
    <g id="ytick_1">
     <g id="line2d_12">
      <defs>
       <path id="m0e8c7b6f1a" d="M 0 0 
L -3.5 0 
" style="stroke: #000000; stroke-width: 0.8"/>
      </defs>
      <g>
       <use xlink:href="#m0e8c7b6f1a" x="54" y="369.36" style="stroke: #000000; stroke-width: 0.8"/>
      </g>
     </g>
     <g id="text_13">
      <!-- 0% -->
      <g transform="translate(31.135937 373.159219) scale(0.1 -0.1)">
       <use xlink:href="#DejaVuSans-30"/>
       <use xlink:href="#DejaVuSans-25" x="63.623047"/>
      </g>
     </g>
    </g>
    <g id="ytick_2">
     <g id="line2d_13">
      <g>
       <use xlink:href="#m0e8c7b6f1a" x="54" y="321.36" style="stroke: #000000; stroke-width: 0.8"/>
      </g>
     </g>
     <g id="text_14">
      <!-- 10% -->
      <g transform="translate(24.773438 325.159219) scale(0.1 -0.1)">
       <use xlink:href="#DejaVuSans-31"/>
       <use xlink:href="#DejaVuSans-30" x="63.623047"/>
       <use xlink:href="#DejaVuSans-25" x="127.246094"/>
      </g>
     </g>
    </g>
    <g id="ytick_3">
     <g id="line2d_14">
      <g>
       <use xlink:href="#m0e8c7b6f1a" x="54" y="273.36" style="stroke: #000000; stroke-width: 0.8"/>
      </g>
     </g>
     <g id="text_15">
      <!-- 20% -->
      <g transform="translate(24.773438 277.159219) scale(0.1 -0.1)">
       <use xlink:href="#DejaVuSans-32"/>
       <use xlink:href="#DejaVuSans-30" x="63.623047"/>
       <use xlink:href="#DejaVuSans-25" x="127.246094"/>
      </g>
     </g>
    </g>
    <g id="ytick_4">
     <g id="line2d_15">
      <g>
       <use xlink:href="#m0e8c7b6f1a" x="54" y="225.36" style="stroke: #000000; stroke-width: 0.8"/>
      </g>
     </g>
     <g id="text_16">
      <!-- 30% -->
      <g transform="translate(24.773438 229.159219) scale(0.1 -0.1)">
       <use xlink:href="#DejaVuSans-33"/>
       <use xlink:href="#DejaVuSans-30" x="63.623047"/>
       <use xlink:href="#DejaVuSans-25" x="127.246094"/>
      </g>
     </g>
    </g>
    <g id="ytick_5">
     <g id="line2d_16">
      <g>
       <use xlink:href="#m0e8c7b6f1a" x="54" y="177.36" style="stroke: #000000; stroke-width: 0.8"/>
      </g>
     </g>
     <g id="text_17">
      <!-- 40% -->
      <g transform="translate(24.773438 181.159219) scale(0.1 -0.1)">
       <use xlink:href="#DejaVuSans-34"/>
       <use xlink:href="#DejaVuSans-30" x="63.623047"/>
       <use xlink:href="#DejaVuSans-25" x="127.246094"/>
      </g>
     </g>
    </g>
    <g id="ytick_6">
     <g id="line2d_17">
      <g>
       <use xlink:href="#m0e8c7b6f1a" x="54" y="129.36" style="stroke: #000000; stroke-width: 0.8"/>
      </g>
     </g>
     <g id="text_18">
      <!-- 50% -->
      <g transform="translate(24.773438 133.159219) scale(0.1 -0.1)">
       <use xlink:href="#DejaVuSans-35"/>
       <use xlink:href="#DejaVuSans-30" x="63.623047"/>
       <use xlink:href="#DejaVuSans-25" x="127.246094"/>
      </g>
     </g>
    </g>
    <g id="ytick_7">
     <g id="line2d_18">
      <g>
       <use xlink:href="#m0e8c7b6f1a" x="54" y="81.36" style="stroke: #000000; stroke-width: 0.8"/>
      </g>
     </g>
     <g id="text_19">
      <!-- 60% -->
      <g transform="translate(24.773438 85.159219) scale(0.1 -0.1)">
       <defs>
        <path id="DejaVuSans-36" d="M 2113 2584 
Q 1688 2584 1439 2293 
Q 1191 2003 1191 1497 
Q 1191 994 1439 701 
Q 1688 409 2113 409 
Q 2538 409 2786 701 
Q 3034 994 3034 1497 
Q 3034 2003 2786 2293 
Q 2538 2584 2113 2584 
z
M 3366 4563 
L 3366 3988 
Q 3128 4100 2886 4159 
Q 2644 4219 2406 4219 
Q 1781 4219 1451 3797 
Q 1122 3375 1075 2522 
Q 1259 2794 1537 2939 
Q 1816 3084 2150 3084 
Q 2853 3084 3261 2657 
Q 3669 2231 3669 1497 
Q 3669 778 3244 343 
Q 2819 -91 2113 -91 
Q 1303 -91 875 529 
Q 447 1150 447 2328 
Q 447 3434 972 4092 
Q 1497 4750 2381 4750 
Q 2619 4750 2861 4703 
Q 3103 4656 3366 4563 
z
" transform="scale(0.015625)"/>
       </defs>
       <use xlink:href="#DejaVuSans-36"/>
       <use xlink:href="#DejaVuSans-30" x="63.623047"/>
       <use xlink:href="#DejaVuSans-25" x="127.246094"/>
      </g>
     </g>
    </g>
    <g id="text_20">
     <!-- Top Overlap-Prediction Rank % -->
     <g transform="translate(19.317656 271.878437) rotate(-90) scale(0.07 -0.07)">
      <defs>
       <path id="DejaVuSans-4f" d="M 2522 4238 
Q 1834 4238 1429 3725 
Q 1025 3213 1025 2328 
Q 1025 1447 1429 934 
Q 1834 422 2522 422 
Q 3209 422 3611 934 
Q 4013 1447 4013 2328 
Q 4013 3213 3611 3725 
Q 3209 4238 2522 4238 
z
M 2522 4750 
Q 3503 4750 4090 4092 
Q 4678 3434 4678 2328 
Q 4678 1225 4090 567 
Q 3503 -91 2522 -91 
Q 1538 -91 948 565 
Q 359 1222 359 2328 
Q 359 3434 948 4092 
Q 1538 4750 2522 4750 
z
" transform="scale(0.015625)"/>
       <path id="DejaVuSans-76" d="M 191 3500 
L 800 3500 
L 1894 563 
L 2988 3500 
L 3597 3500 
L 2284 0 
L 1503 0 
L 191 3500 
z
" transform="scale(0.015625)"/>
       <path id="DejaVuSans-2d" d="M 313 2009 
L 1997 2009 
L 1997 1497 
L 313 1497 
L 313 2009 
z
" transform="scale(0.015625)"/>
       <path id="DejaVuSans-50" d="M 1259 4147 
L 1259 2394 
L 2053 2394 
Q 2494 2394 2734 2622 
Q 2975 2850 2975 3272 
Q 2975 3691 2734 3919 
Q 2494 4147 2053 4147 
L 1259 4147 
z
M 628 4666 
L 2053 4666 
Q 2838 4666 3239 4311 
Q 3641 3956 3641 3272 
Q 3641 2581 3239 2228 
Q 2838 1875 2053 1875 
L 1259 1875 
L 1259 0 
L 628 0 
L 628 4666 
z
" transform="scale(0.015625)"/>
       <path id="DejaVuSans-64" d="M 2906 2969 
L 2906 4863 
L 3481 4863 
L 3481 0 
L 2906 0 
L 2906 525 
Q 2725 213 2448 61 
Q 2172 -91 1784 -91 
Q 1150 -91 751 415 
Q 353 922 353 1747 
Q 353 2572 751 3078 
Q 1150 3584 1784 3584 
Q 2172 3584 2448 3432 
Q 2725 3281 2906 2969 
z
M 947 1747 
Q 947 1113 1208 752 
Q 1469 391 1925 391 
Q 2381 391 2643 752 
Q 2906 1113 2906 1747 
Q 2906 2381 2643 2742 
Q 2381 3103 1925 3103 
Q 1469 3103 1208 2742 
Q 947 2381 947 1747 
z
" transform="scale(0.015625)"/>
       <path id="DejaVuSans-69" d="M 603 3500 
L 1178 3500 
L 1178 0 
L 603 0 
L 603 3500 
z
M 603 4863 
L 1178 4863 
L 1178 4134 
L 603 4134 
L 603 4863 
z
" transform="scale(0.015625)"/>
       <path id="DejaVuSans-63" d="M 3122 3366 
L 3122 2828 
Q 2878 2963 2633 3030 
Q 2388 3097 2138 3097 
Q 1578 3097 1268 2742 
Q 959 2388 959 1747 
Q 959 1106 1268 751 
Q 1578 397 2138 397 
Q 2388 397 2633 464 
Q 2878 531 3122 666 
L 3122 134 
Q 2881 22 2623 -34 
Q 2366 -91 2075 -91 
Q 1284 -91 818 406 
Q 353 903 353 1747 
Q 353 2603 823 3093 
Q 1294 3584 2113 3584 
Q 2378 3584 2631 3529 
Q 2884 3475 3122 3366 
z
" transform="scale(0.015625)"/>
       <path id="DejaVuSans-74" d="M 1172 4494 
L 1172 3500 
L 2356 3500 
L 2356 3053 
L 1172 3053 
L 1172 1153 
Q 1172 725 1289 603 
Q 1406 481 1766 481 
L 2356 481 
L 2356 0 
L 1766 0 
Q 1100 0 847 248 
Q 594 497 594 1153 
L 594 3053 
L 172 3053 
L 172 3500 
L 594 3500 
L 594 4494 
L 1172 4494 
z
" transform="scale(0.015625)"/>
      </defs>
      <use xlink:href="#DejaVuSans-54"/>
      <use xlink:href="#DejaVuSans-6f" x="44.083984"/>
      <use xlink:href="#DejaVuSans-70" x="105.265625"/>
      <use xlink:href="#DejaVuSans-20" x="168.742188"/>
      <use xlink:href="#DejaVuSans-4f" x="200.529297"/>
      <use xlink:href="#DejaVuSans-76" x="279.240234"/>
      <use xlink:href="#DejaVuSans-65" x="338.419922"/>
      <use xlink:href="#DejaVuSans-72" x="399.943359"/>
      <use xlink:href="#DejaVuSans-6c" x="441.056641"/>
      <use xlink:href="#DejaVuSans-61" x="468.839844"/>
      <use xlink:href="#DejaVuSans-70" x="530.119141"/>
      <use xlink:href="#DejaVuSans-2d" x="593.595703"/>
      <use xlink:href="#DejaVuSans-50" x="629.679688"/>
      <use xlink:href="#DejaVuSans-72" x="688.232422"/>
      <use xlink:href="#DejaVuSans-65" x="727.095703"/>
      <use xlink:href="#DejaVuSans-64" x="788.619141"/>
      <use xlink:href="#DejaVuSans-69" x="852.095703"/>
      <use xlink:href="#DejaVuSans-63" x="879.878906"/>
      <use xlink:href="#DejaVuSans-74" x="934.859375"/>
      <use xlink:href="#DejaVuSans-69" x="974.068359"/>
      <use xlink:href="#DejaVuSans-6f" x="1001.851562"/>
      <use xlink:href="#DejaVuSans-6e" x="1063.033203"/>
      <use xlink:href="#DejaVuSans-20" x="1126.412109"/>
      <use xlink:href="#DejaVuSans-52" x="1158.199219"/>
      <use xlink:href="#DejaVuSans-61" x="1225.431641"/>
      <use xlink:href="#DejaVuSans-6e" x="1286.710938"/>
      <use xlink:href="#DejaVuSans-6b" x="1350.089844"/>
      <use xlink:href="#DejaVuSans-20" x="1408"/>
      <use xlink:href="#DejaVuSans-25" x="1439.787109"/>
     </g>
    </g>
   </g>
   <g id="line2d_19">
    <path d="M 69.218182 369.36 
L 72.144755 369.36 
L 75.071329 369.36 
L 77.997902 369.36 
L 80.924476 369.36 
L 83.851049 369.36 
L 86.777622 369.36 
L 89.704196 369.36 
L 92.630769 369.36 
L 95.557343 369.36 
L 98.483916 369.36 
L 101.41049 369.36 
L 104.337063 369.36 
L 107.263636 369.36 
L 110.19021 335.76 
L 113.116783 340.56 
L 116.043357 340.56 
L 118.96993 340.56 
L 121.896503 345.36 
L 124.823077 345.36 
L 127.74965 321.36 
L 130.676224 326.16 
L 133.602797 326.16 
L 136.529371 330.96 
L 139.455944 330.96 
L 142.382517 330.96 
L 145.309091 316.56 
L 148.235664 302.16 
L 151.162238 287.76 
L 154.088811 287.76 
L 157.015385 292.56 
L 159.941958 278.16 
L 162.868531 282.96 
L 165.795105 268.56 
L 168.721678 258.96 
L 171.648252 263.76 
L 174.574825 263.76 
L 177.501399 254.16 
L 180.427972 244.56 
L 183.354545 249.36 
L 186.281119 239.76 
L 189.207692 244.56 
L 192.134266 234.96 
L 195.060839 225.36 
L 197.987413 230.16 
L 200.913986 234.96 
L 203.840559 225.36 
L 206.767133 220.56 
L 209.693706 220.56 
L 212.62028 225.36 
L 215.546853 220.56 
L 218.473427 220.56 
L 221.4 206.16 
L 224.326573 210.96 
L 227.253147 210.96 
L 230.17972 215.76 
L 233.106294 201.36 
L 236.032867 186.96 
L 238.959441 191.76 
L 241.886014 177.36 
L 244.812587 172.56 
L 247.739161 177.36 
L 250.665734 177.36 
L 253.592308 172.56 
L 256.518881 177.36 
L 259.445455 182.16 
L 262.372028 182.16 
L 265.298601 186.96 
L 268.225175 182.16 
L 271.151748 177.36 
L 274.078322 172.56 
L 277.004895 167.76 
L 279.931469 158.16 
L 282.858042 148.56 
L 285.784615 143.76 
L 288.711189 143.76 
L 291.637762 143.76 
L 294.564336 143.76 
L 297.490909 138.96 
L 300.417483 138.96 
L 303.344056 134.16 
L 306.270629 129.36 
L 309.197203 124.56 
L 312.123776 129.36 
L 315.05035 119.76 
L 317.976923 124.56 
L 320.903497 119.76 
L 323.83007 124.56 
L 326.756643 119.76 
L 329.683217 124.56 
L 332.60979 119.76 
L 335.536364 114.96 
L 338.462937 105.36 
L 341.38951 105.36 
L 344.316084 95.76 
L 347.242657 90.96 
L 350.169231 86.16 
L 353.095804 86.16 
L 356.022378 81.36 
L 358.948951 76.56 
L 361.875524 76.56 
L 364.802098 71.76 
L 367.728671 71.76 
L 370.655245 71.76 
L 373.581818 66.96 
" clip-path="url(#p995690c172)" style="fill: none; stroke-dasharray: 5.55,2.4; stroke-dashoffset: 0; stroke: #008000; stroke-width: 1.5"/>
   </g>
   <g id="line2d_20">
    <path d="M 69.218182 369.36 
L 72.144755 369.36 
L 75.071329 369.36 
L 77.997902 369.36 
L 80.924476 369.36 
L 83.851049 369.36 
L 86.777622 369.36 
L 89.704196 369.36 
L 92.630769 369.36 
L 95.557343 369.36 
L 98.483916 369.36 
L 101.41049 369.36 
L 104.337063 369.36 
L 107.263636 369.36 
L 110.19021 335.76 
L 113.116783 340.56 
L 116.043357 340.56 
L 118.96993 340.56 
L 121.896503 345.36 
L 124.823077 345.36 
L 127.74965 345.36 
L 130.676224 345.36 
L 133.602797 350.16 
L 136.529371 350.16 
L 139.455944 350.16 
L 142.382517 350.16 
L 145.309091 335.76 
L 148.235664 316.56 
L 151.162238 321.36 
L 154.088811 321.36 
L 157.015385 321.36 
L 159.941958 311.76 
L 162.868531 297.36 
L 165.795105 297.36 
L 168.721678 287.76 
L 171.648252 287.76 
L 174.574825 278.16 
L 177.501399 282.96 
L 180.427972 282.96 
L 183.354545 273.36 
L 186.281119 254.16 
L 189.207692 244.56 
L 192.134266 234.96 
L 195.060839 239.76 
L 197.987413 220.56 
L 200.913986 210.96 
L 203.840559 215.76 
L 206.767133 220.56 
L 209.693706 220.56 
L 212.62028 225.36 
L 215.546853 220.56 
L 218.473427 201.36 
L 221.4 196.56 
L 224.326573 201.36 
L 227.253147 201.36 
L 230.17972 206.16 
L 233.106294 210.96 
L 236.032867 206.16 
L 238.959441 206.16 
L 241.886014 210.96 
L 244.812587 196.56 
L 247.739161 201.36 
L 250.665734 201.36 
L 253.592308 196.56 
L 256.518881 191.76 
L 259.445455 186.96 
L 262.372028 191.76 
L 265.298601 191.76 
L 268.225175 186.96 
L 271.151748 182.16 
L 274.078322 182.16 
L 277.004895 177.36 
L 279.931469 177.36 
L 282.858042 172.56 
L 285.784615 172.56 
L 288.711189 167.76 
L 291.637762 167.76 
L 294.564336 172.56 
L 297.490909 167.76 
L 300.417483 167.76 
L 303.344056 167.76 
L 306.270629 172.56 
L 309.197203 167.76 
L 312.123776 162.96 
L 315.05035 158.16 
L 317.976923 162.96 
L 320.903497 158.16 
L 323.83007 158.16 
L 326.756643 153.36 
L 329.683217 143.76 
L 332.60979 143.76 
L 335.536364 138.96 
L 338.462937 143.76 
L 341.38951 138.96 
L 344.316084 143.76 
L 347.242657 143.76 
L 350.169231 143.76 
L 353.095804 138.96 
L 356.022378 134.16 
L 358.948951 124.56 
L 361.875524 124.56 
L 364.802098 124.56 
L 367.728671 129.36 
L 370.655245 124.56 
L 373.581818 119.76 
" clip-path="url(#p995690c172)" style="fill: none; stroke: #ff0000; stroke-width: 1.5; stroke-linecap: square"/>
   </g>
   <g id="line2d_21">
    <path d="M 69.218182 367.085118 
L 72.144755 364.810237 
L 75.071329 362.535355 
L 77.997902 360.260474 
L 80.924476 357.985592 
L 83.851049 355.710711 
L 86.777622 353.435829 
L 89.704196 351.160948 
L 92.630769 348.886066 
L 95.557343 346.611185 
L 98.483916 344.336303 
L 101.41049 342.061422 
L 104.337063 339.78654 
L 107.263636 337.511659 
L 110.19021 335.236777 
L 113.116783 332.961896 
L 116.043357 330.687014 
L 118.96993 328.412133 
L 121.896503 326.137251 
L 124.823077 323.86237 
L 127.74965 321.587488 
L 130.676224 319.312607 
L 133.602797 317.037725 
L 136.529371 314.762844 
L 139.455944 312.487962 
L 142.382517 310.213081 
L 145.309091 307.938199 
L 148.235664 305.663318 
L 151.162238 303.388436 
L 154.088811 301.113555 
L 157.015385 298.838673 
L 159.941958 296.563791 
L 162.868531 294.28891 
L 165.795105 292.014028 
L 168.721678 289.739147 
L 171.648252 287.464265 
L 174.574825 285.189384 
L 177.501399 282.914502 
L 180.427972 280.639621 
L 183.354545 278.364739 
L 186.281119 276.089858 
L 189.207692 273.814976 
L 192.134266 271.540095 
L 195.060839 269.265213 
L 197.987413 266.990332 
L 200.913986 264.71545 
L 203.840559 262.440569 
L 206.767133 260.165687 
L 209.693706 257.890806 
L 212.62028 255.615924 
L 215.546853 253.341043 
L 218.473427 251.066161 
L 221.4 248.79128 
L 224.326573 246.516398 
L 227.253147 244.241517 
L 230.17972 241.966635 
L 233.106294 239.691754 
L 236.032867 237.416872 
L 238.959441 235.141991 
L 241.886014 232.867109 
L 244.812587 230.592227 
L 247.739161 228.317346 
L 250.665734 226.042464 
L 253.592308 223.767583 
L 256.518881 221.492701 
L 259.445455 219.21782 
L 262.372028 216.942938 
L 265.298601 214.668057 
L 268.225175 212.393175 
L 271.151748 210.118294 
L 274.078322 207.843412 
L 277.004895 205.568531 
L 279.931469 203.293649 
L 282.858042 201.018768 
L 285.784615 198.743886 
L 288.711189 196.469005 
L 291.637762 194.194123 
L 294.564336 191.919242 
L 297.490909 189.64436 
L 300.417483 187.369479 
L 303.344056 185.094597 
L 306.270629 182.819716 
L 309.197203 180.544834 
L 312.123776 178.269953 
L 315.05035 175.995071 
L 317.976923 173.72019 
L 320.903497 171.445308 
L 323.83007 169.170427 
L 326.756643 166.895545 
L 329.683217 164.620664 
L 332.60979 162.345782 
L 335.536364 160.0709 
L 338.462937 157.796019 
L 341.38951 155.521137 
L 344.316084 153.246256 
L 347.242657 150.971374 
L 350.169231 148.696493 
L 353.095804 146.421611 
L 356.022378 144.14673 
L 358.948951 141.871848 
L 361.875524 139.596967 
L 364.802098 137.322085 
L 367.728671 135.047204 
L 370.655245 132.772322 
L 373.581818 130.497441 
" clip-path="url(#p995690c172)" style="fill: none; stroke-dasharray: 1.5,2.475; stroke-dashoffset: 0; stroke: #000000; stroke-width: 1.5"/>
   </g>
   <g id="patch_3">
    <path d="M 54 384.48 
L 54 51.84 
" style="fill: none; stroke: #000000; stroke-width: 0.8; stroke-linejoin: miter; stroke-linecap: square"/>
   </g>
   <g id="patch_4">
    <path d="M 388.8 384.48 
L 388.8 51.84 
" style="fill: none; stroke: #000000; stroke-width: 0.8; stroke-linejoin: miter; stroke-linecap: square"/>
   </g>
   <g id="patch_5">
    <path d="M 54 384.48 
L 388.8 384.48 
" style="fill: none; stroke: #000000; stroke-width: 0.8; stroke-linejoin: miter; stroke-linecap: square"/>
   </g>
   <g id="patch_6">
    <path d="M 54 51.84 
L 388.8 51.84 
" style="fill: none; stroke: #000000; stroke-width: 0.8; stroke-linejoin: miter; stroke-linecap: square"/>
   </g>
   <g id="text_21">
    <!-- (d) Ranking performance of the downstream learning -->
    <g transform="translate(54 45.84) scale(0.07 -0.07)">
     <defs>
      <path id="DejaVuSans-28" d="M 1984 4856 
Q 1566 4138 1362 3434 
Q 1159 2731 1159 2009 
Q 1159 1288 1364 580 
Q 1569 -128 1984 -844 
L 1484 -844 
Q 1016 -109 783 600 
Q 550 1309 550 2009 
Q 550 2706 781 3412 
Q 1013 4119 1484 4856 
L 1984 4856 
z
" transform="scale(0.015625)"/>
      <path id="DejaVuSans-29" d="M 513 4856 
L 1013 4856 
Q 1481 4119 1714 3412 
Q 1947 2706 1947 2009 
Q 1947 1309 1714 600 
Q 1481 -109 1013 -844 
L 513 -844 
Q 928 -128 1133 580 
Q 1338 1288 1338 2009 
Q 1338 2731 1133 3434 
Q 928 4138 513 4856 
z
" transform="scale(0.015625)"/>
      <path id="DejaVuSans-67" d="M 2906 1791 
Q 2906 2416 2648 2759 
Q 2391 3103 1925 3103 
Q 1463 3103 1205 2759 
Q 947 2416 947 1791 
Q 947 1169 1205 825 
Q 1463 481 1925 481 
Q 2391 481 2648 825 
Q 2906 1169 2906 1791 
z
M 3481 434 
Q 3481 -459 3084 -895 
Q 2688 -1331 1869 -1331 
Q 1566 -1331 1297 -1286 
Q 1028 -1241 775 -1147 
L 775 -588 
Q 1028 -725 1275 -790 
Q 1522 -856 1778 -856 
Q 2344 -856 2625 -561 
Q 2906 -266 2906 331 
L 2906 616 
Q 2728 306 2450 153 
Q 2172 0 1784 0 
Q 1141 0 747 490 
Q 353 981 353 1791 
Q 353 2603 747 3093 
Q 1141 3584 1784 3584 
Q 2172 3584 2450 3431 
Q 2728 3278 2906 2969 
L 2906 3500 
L 3481 3500 
L 3481 434 
z
" transform="scale(0.015625)"/>
      <path id="DejaVuSans-66" d="M 2375 4863 
L 2375 4384 
L 1825 4384 
Q 1516 4384 1395 4259 
Q 1275 4134 1275 3809 
L 1275 3500 
L 2222 3500 
L 2222 3053 
L 1275 3053 
L 1275 0 
L 697 0 
L 697 3053 
L 147 3053 
L 147 3500 
L 697 3500 
L 697 3744 
Q 697 4328 969 4595 
Q 1241 4863 1831 4863 
L 2375 4863 
z
" transform="scale(0.015625)"/>
      <path id="DejaVuSans-6d" d="M 3328 2828 
Q 3544 3216 3844 3400 
Q 4144 3584 4550 3584 
Q 5097 3584 5394 3201 
Q 5691 2819 5691 2113 
L 5691 0 
L 5113 0 
L 5113 2094 
Q 5113 2597 4934 2840 
Q 4756 3084 4391 3084 
Q 3944 3084 3684 2787 
Q 3425 2491 3425 1978 
L 3425 0 
L 2847 0 
L 2847 2094 
Q 2847 2600 2669 2842 
Q 2491 3084 2119 3084 
Q 1678 3084 1418 2786 
Q 1159 2488 1159 1978 
L 1159 0 
L 581 0 
L 581 3500 
L 1159 3500 
L 1159 2956 
Q 1356 3278 1631 3431 
Q 1906 3584 2284 3584 
Q 2666 3584 2933 3390 
Q 3200 3197 3328 2828 
z
" transform="scale(0.015625)"/>
      <path id="DejaVuSans-68" d="M 3513 2113 
L 3513 0 
L 2938 0 
L 2938 2094 
Q 2938 2591 2744 2837 
Q 2550 3084 2163 3084 
Q 1697 3084 1428 2787 
Q 1159 2491 1159 1978 
L 1159 0 
L 581 0 
L 581 4863 
L 1159 4863 
L 1159 2956 
Q 1366 3272 1645 3428 
Q 1925 3584 2291 3584 
Q 2894 3584 3203 3211 
Q 3513 2838 3513 2113 
z
" transform="scale(0.015625)"/>
      <path id="DejaVuSans-77" d="M 269 3500 
L 844 3500 
L 1563 769 
L 2278 3500 
L 2956 3500 
L 3675 769 
L 4391 3500 
L 4966 3500 
L 4050 0 
L 3372 0 
L 2619 2869 
L 1863 0 
L 1184 0 
L 269 3500 
z
" transform="scale(0.015625)"/>
      <path id="DejaVuSans-73" d="M 2834 3397 
L 2834 2853 
Q 2591 2978 2328 3040 
Q 2066 3103 1784 3103 
Q 1356 3103 1142 2972 
Q 928 2841 928 2578 
Q 928 2378 1081 2264 
Q 1234 2150 1697 2047 
L 1894 2003 
Q 2506 1872 2764 1633 
Q 3022 1394 3022 966 
Q 3022 478 2636 193 
Q 2250 -91 1575 -91 
Q 1294 -91 989 -36 
Q 684 19 347 128 
L 347 722 
Q 666 556 975 473 
Q 1284 391 1588 391 
Q 1994 391 2212 530 
Q 2431 669 2431 922 
Q 2431 1156 2273 1281 
Q 2116 1406 1581 1522 
L 1381 1569 
Q 847 1681 609 1914 
Q 372 2147 372 2553 
Q 372 3047 722 3315 
Q 1072 3584 1716 3584 
Q 2034 3584 2315 3537 
Q 2597 3491 2834 3397 
z
" transform="scale(0.015625)"/>
     </defs>
     <use xlink:href="#DejaVuSans-28"/>
     <use xlink:href="#DejaVuSans-64" x="39.013672"/>
     <use xlink:href="#DejaVuSans-29" x="102.490234"/>
     <use xlink:href="#DejaVuSans-20" x="141.503906"/>
     <use xlink:href="#DejaVuSans-52" x="173.291016"/>
     <use xlink:href="#DejaVuSans-61" x="240.523438"/>
     <use xlink:href="#DejaVuSans-6e" x="301.802734"/>
     <use xlink:href="#DejaVuSans-6b" x="365.181641"/>
     <use xlink:href="#DejaVuSans-69" x="423.091797"/>
     <use xlink:href="#DejaVuSans-6e" x="450.875"/>
     <use xlink:href="#DejaVuSans-67" x="514.253906"/>
     <use xlink:href="#DejaVuSans-20" x="577.730469"/>
     <use xlink:href="#DejaVuSans-70" x="609.517578"/>
     <use xlink:href="#DejaVuSans-65" x="672.994141"/>
     <use xlink:href="#DejaVuSans-72" x="734.517578"/>
     <use xlink:href="#DejaVuSans-66" x="775.630859"/>
     <use xlink:href="#DejaVuSans-6f" x="810.835938"/>
     <use xlink:href="#DejaVuSans-72" x="872.017578"/>
     <use xlink:href="#DejaVuSans-6d" x="911.380859"/>
     <use xlink:href="#DejaVuSans-61" x="1008.792969"/>
     <use xlink:href="#DejaVuSans-6e" x="1070.072266"/>
     <use xlink:href="#DejaVuSans-63" x="1133.451172"/>
     <use xlink:href="#DejaVuSans-65" x="1188.431641"/>
     <use xlink:href="#DejaVuSans-20" x="1249.955078"/>
     <use xlink:href="#DejaVuSans-6f" x="1281.742188"/>
     <use xlink:href="#DejaVuSans-66" x="1342.923828"/>
     <use xlink:href="#DejaVuSans-20" x="1378.128906"/>
     <use xlink:href="#DejaVuSans-74" x="1409.916016"/>
     <use xlink:href="#DejaVuSans-68" x="1449.125"/>
     <use xlink:href="#DejaVuSans-65" x="1512.503906"/>
     <use xlink:href="#DejaVuSans-20" x="1574.027344"/>
     <use xlink:href="#DejaVuSans-64" x="1605.814453"/>
     <use xlink:href="#DejaVuSans-6f" x="1669.291016"/>
     <use xlink:href="#DejaVuSans-77" x="1730.472656"/>
     <use xlink:href="#DejaVuSans-6e" x="1812.259766"/>
     <use xlink:href="#DejaVuSans-73" x="1875.638672"/>
     <use xlink:href="#DejaVuSans-74" x="1927.738281"/>
     <use xlink:href="#DejaVuSans-72" x="1966.947266"/>
     <use xlink:href="#DejaVuSans-65" x="2005.810547"/>
     <use xlink:href="#DejaVuSans-61" x="2067.333984"/>
     <use xlink:href="#DejaVuSans-6d" x="2128.613281"/>
     <use xlink:href="#DejaVuSans-20" x="2226.025391"/>
     <use xlink:href="#DejaVuSans-6c" x="2257.8125"/>
     <use xlink:href="#DejaVuSans-65" x="2285.595703"/>
     <use xlink:href="#DejaVuSans-61" x="2347.119141"/>
     <use xlink:href="#DejaVuSans-72" x="2408.398438"/>
     <use xlink:href="#DejaVuSans-6e" x="2447.761719"/>
     <use xlink:href="#DejaVuSans-69" x="2511.140625"/>
     <use xlink:href="#DejaVuSans-6e" x="2538.923828"/>
     <use xlink:href="#DejaVuSans-67" x="2602.302734"/>
    </g>
   </g>
   <g id="legend_1">
    <g id="patch_7">
     <path d="M 58.9 88.854687 
L 286.12 88.854687 
Q 287.52 88.854687 287.52 87.454687 
L 287.52 56.74 
Q 287.52 55.34 286.12 55.34 
L 58.9 55.34 
Q 57.5 55.34 57.5 56.74 
L 57.5 87.454687 
Q 57.5 88.854687 58.9 88.854687 
z
" style="fill: #ffffff; opacity: 0.8; stroke: #cccccc; stroke-linejoin: miter"/>
    </g>
    <g id="line2d_22">
     <path d="M 60.3 61.08 
L 67.3 61.08 
L 74.3 61.08 
" style="fill: none; stroke-dasharray: 5.55,2.4; stroke-dashoffset: 0; stroke: #008000; stroke-width: 1.5"/>
    </g>
    <g id="text_22">
     <!-- MRL: Optimus|${AUC_{50\%}}$=32|${AUC_{100\%}}$=117|Spearman=-0.09 -->
     <g transform="translate(79.9 63.53) scale(0.07 -0.07)">
      <defs>
       <path id="DejaVuSans-4d" d="M 628 4666 
L 1569 4666 
L 2759 1491 
L 3956 4666 
L 4897 4666 
L 4897 0 
L 4281 0 
L 4281 4097 
L 3078 897 
L 2444 897 
L 1241 4097 
L 1241 0 
L 628 0 
L 628 4666 
z
" transform="scale(0.015625)"/>
       <path id="DejaVuSans-3a" d="M 750 794 
L 1409 794 
L 1409 0 
L 750 0 
L 750 794 
z
M 750 3309 
L 1409 3309 
L 1409 2516 
L 750 2516 
L 750 3309 
z
" transform="scale(0.015625)"/>
       <path id="DejaVuSans-7c" d="M 1344 4891 
L 1344 -1509 
L 813 -1509 
L 813 4891 
L 1344 4891 
z
" transform="scale(0.015625)"/>
       <path id="DejaVuSans-Oblique-41" d="M 2356 4666 
L 3072 4666 
L 3938 0 
L 3278 0 
L 3084 1197 
L 984 1197 
L 325 0 
L -341 0 
L 2356 4666 
z
M 2584 4044 
L 1275 1722 
L 2988 1722 
L 2584 4044 
z
" transform="scale(0.015625)"/>
       <path id="DejaVuSans-Oblique-55" d="M 991 4666 
L 1625 4666 
L 1075 1831 
Q 1041 1641 1027 1517 
Q 1013 1394 1013 1300 
Q 1013 869 1253 645 
Q 1494 422 1959 422 
Q 2563 422 2898 753 
Q 3234 1084 3378 1831 
L 3928 4666 
L 4563 4666 
L 4000 1753 
Q 3816 809 3300 359 
Q 2784 -91 1888 -91 
Q 1188 -91 780 261 
Q 372 613 372 1216 
Q 372 1325 387 1461 
Q 403 1597 434 1753 
L 991 4666 
z
" transform="scale(0.015625)"/>
       <path id="DejaVuSans-Oblique-43" d="M 4447 4306 
L 4319 3641 
Q 4019 3944 3683 4091 
Q 3347 4238 2956 4238 
Q 2422 4238 2017 3981 
Q 1613 3725 1319 3200 
Q 1131 2863 1032 2486 
Q 934 2109 934 1728 
Q 934 1091 1264 756 
Q 1594 422 2222 422 
Q 2656 422 3056 561 
Q 3456 700 3834 978 
L 3688 231 
Q 3316 72 2936 -9 
Q 2556 -91 2175 -91 
Q 1278 -91 773 396 
Q 269 884 269 1753 
Q 269 2309 461 2846 
Q 653 3384 1013 3828 
Q 1394 4300 1883 4525 
Q 2372 4750 3022 4750 
Q 3422 4750 3780 4639 
Q 4138 4528 4447 4306 
z
" transform="scale(0.015625)"/>
       <path id="DejaVuSans-3d" d="M 678 2906 
L 4684 2906 
L 4684 2381 
L 678 2381 
L 678 2906 
z
M 678 1631 
L 4684 1631 
L 4684 1100 
L 678 1100 
L 678 1631 
z
" transform="scale(0.015625)"/>
       <path id="DejaVuSans-37" d="M 525 4666 
L 3525 4666 
L 3525 4397 
L 1831 0 
L 1172 0 
L 2766 4134 
L 525 4134 
L 525 4666 
z
" transform="scale(0.015625)"/>
       <path id="DejaVuSans-53" d="M 3425 4513 
L 3425 3897 
Q 3066 4069 2747 4153 
Q 2428 4238 2131 4238 
Q 1616 4238 1336 4038 
Q 1056 3838 1056 3469 
Q 1056 3159 1242 3001 
Q 1428 2844 1947 2747 
L 2328 2669 
Q 3034 2534 3370 2195 
Q 3706 1856 3706 1288 
Q 3706 609 3251 259 
Q 2797 -91 1919 -91 
Q 1588 -91 1214 -16 
Q 841 59 441 206 
L 441 856 
Q 825 641 1194 531 
Q 1563 422 1919 422 
Q 2459 422 2753 634 
Q 3047 847 3047 1241 
Q 3047 1584 2836 1778 
Q 2625 1972 2144 2069 
L 1759 2144 
Q 1053 2284 737 2584 
Q 422 2884 422 3419 
Q 422 4038 858 4394 
Q 1294 4750 2059 4750 
Q 2388 4750 2728 4690 
Q 3069 4631 3425 4513 
z
" transform="scale(0.015625)"/>
       <path id="DejaVuSans-2e" d="M 684 794 
L 1344 794 
L 1344 0 
L 684 0 
L 684 794 
z
" transform="scale(0.015625)"/>
       <path id="DejaVuSans-39" d="M 703 97 
L 703 672 
Q 941 559 1184 500 
Q 1428 441 1663 441 
Q 2288 441 2617 861 
Q 2947 1281 2994 2138 
Q 2813 1869 2534 1725 
Q 2256 1581 1919 1581 
Q 1219 1581 811 2004 
Q 403 2428 403 3163 
Q 403 3881 828 4315 
Q 1253 4750 1959 4750 
Q 2769 4750 3195 4129 
Q 3622 3509 3622 2328 
Q 3622 1225 3098 567 
Q 2575 -91 1691 -91 
Q 1453 -91 1209 -44 
Q 966 3 703 97 
z
M 1959 2075 
Q 2384 2075 2632 2365 
Q 2881 2656 2881 3163 
Q 2881 3666 2632 3958 
Q 2384 4250 1959 4250 
Q 1534 4250 1286 3958 
Q 1038 3666 1038 3163 
Q 1038 2656 1286 2365 
Q 1534 2075 1959 2075 
z
" transform="scale(0.015625)"/>
      </defs>
      <use xlink:href="#DejaVuSans-4d" transform="translate(0 0.578125)"/>
      <use xlink:href="#DejaVuSans-52" transform="translate(86.279297 0.578125)"/>
      <use xlink:href="#DejaVuSans-4c" transform="translate(155.761719 0.578125)"/>
      <use xlink:href="#DejaVuSans-3a" transform="translate(211.474609 0.578125)"/>
      <use xlink:href="#DejaVuSans-20" transform="translate(245.166016 0.578125)"/>
      <use xlink:href="#DejaVuSans-4f" transform="translate(276.953125 0.578125)"/>
      <use xlink:href="#DejaVuSans-70" transform="translate(355.664062 0.578125)"/>
      <use xlink:href="#DejaVuSans-74" transform="translate(419.140625 0.578125)"/>
      <use xlink:href="#DejaVuSans-69" transform="translate(458.349609 0.578125)"/>
      <use xlink:href="#DejaVuSans-6d" transform="translate(486.132812 0.578125)"/>
      <use xlink:href="#DejaVuSans-75" transform="translate(583.544922 0.578125)"/>
      <use xlink:href="#DejaVuSans-73" transform="translate(646.923828 0.578125)"/>
      <use xlink:href="#DejaVuSans-7c" transform="translate(699.023438 0.578125)"/>
      <use xlink:href="#DejaVuSans-Oblique-41" transform="translate(732.714844 0.578125)"/>
      <use xlink:href="#DejaVuSans-Oblique-55" transform="translate(801.123047 0.578125)"/>
      <use xlink:href="#DejaVuSans-Oblique-43" transform="translate(874.316406 0.578125)"/>
      <use xlink:href="#DejaVuSans-35" transform="translate(944.140625 -15.828125) scale(0.7)"/>
      <use xlink:href="#DejaVuSans-30" transform="translate(988.676758 -15.828125) scale(0.7)"/>
      <use xlink:href="#DejaVuSans-25" transform="translate(1033.212891 -15.828125) scale(0.7)"/>
      <use xlink:href="#DejaVuSans-3d" transform="translate(1102.460938 0.578125)"/>
      <use xlink:href="#DejaVuSans-33" transform="translate(1186.25 0.578125)"/>
      <use xlink:href="#DejaVuSans-32" transform="translate(1249.873047 0.578125)"/>
      <use xlink:href="#DejaVuSans-7c" transform="translate(1313.496094 0.578125)"/>
      <use xlink:href="#DejaVuSans-Oblique-41" transform="translate(1347.1875 0.578125)"/>
      <use xlink:href="#DejaVuSans-Oblique-55" transform="translate(1415.595703 0.578125)"/>
      <use xlink:href="#DejaVuSans-Oblique-43" transform="translate(1488.789062 0.578125)"/>
      <use xlink:href="#DejaVuSans-31" transform="translate(1558.613281 -15.828125) scale(0.7)"/>
      <use xlink:href="#DejaVuSans-30" transform="translate(1603.149414 -15.828125) scale(0.7)"/>
      <use xlink:href="#DejaVuSans-30" transform="translate(1647.685547 -15.828125) scale(0.7)"/>
      <use xlink:href="#DejaVuSans-25" transform="translate(1692.22168 -15.828125) scale(0.7)"/>
      <use xlink:href="#DejaVuSans-3d" transform="translate(1761.469727 0.578125)"/>
      <use xlink:href="#DejaVuSans-31" transform="translate(1845.258789 0.578125)"/>
      <use xlink:href="#DejaVuSans-31" transform="translate(1908.881836 0.578125)"/>
      <use xlink:href="#DejaVuSans-37" transform="translate(1972.504883 0.578125)"/>
      <use xlink:href="#DejaVuSans-7c" transform="translate(2036.12793 0.578125)"/>
      <use xlink:href="#DejaVuSans-53" transform="translate(2069.819336 0.578125)"/>
      <use xlink:href="#DejaVuSans-70" transform="translate(2133.295898 0.578125)"/>
      <use xlink:href="#DejaVuSans-65" transform="translate(2196.772461 0.578125)"/>
      <use xlink:href="#DejaVuSans-61" transform="translate(2258.295898 0.578125)"/>
      <use xlink:href="#DejaVuSans-72" transform="translate(2319.575195 0.578125)"/>
      <use xlink:href="#DejaVuSans-6d" transform="translate(2360.688477 0.578125)"/>
      <use xlink:href="#DejaVuSans-61" transform="translate(2458.100586 0.578125)"/>
      <use xlink:href="#DejaVuSans-6e" transform="translate(2519.379883 0.578125)"/>
      <use xlink:href="#DejaVuSans-3d" transform="translate(2582.758789 0.578125)"/>
      <use xlink:href="#DejaVuSans-2d" transform="translate(2666.547852 0.578125)"/>
      <use xlink:href="#DejaVuSans-30" transform="translate(2702.631836 0.578125)"/>
      <use xlink:href="#DejaVuSans-2e" transform="translate(2766.254883 0.578125)"/>
      <use xlink:href="#DejaVuSans-30" transform="translate(2798.041992 0.578125)"/>
      <use xlink:href="#DejaVuSans-39" transform="translate(2861.665039 0.578125)"/>
     </g>
    </g>
    <g id="line2d_23">
     <path d="M 60.3 71.65 
L 67.3 71.65 
L 74.3 71.65 
" style="fill: none; stroke: #ff0000; stroke-width: 1.5; stroke-linecap: square"/>
    </g>
    <g id="text_23">
     <!-- MRL: UTR-LM|${AUC_{50\%}}$=28|${AUC_{100\%}}$=107|Spearman=0.42 -->
     <g transform="translate(79.9 74.1) scale(0.07 -0.07)">
      <defs>
       <path id="DejaVuSans-55" d="M 556 4666 
L 1191 4666 
L 1191 1831 
Q 1191 1081 1462 751 
Q 1734 422 2344 422 
Q 2950 422 3222 751 
Q 3494 1081 3494 1831 
L 3494 4666 
L 4128 4666 
L 4128 1753 
Q 4128 841 3676 375 
Q 3225 -91 2344 -91 
Q 1459 -91 1007 375 
Q 556 841 556 1753 
L 556 4666 
z
" transform="scale(0.015625)"/>
       <path id="DejaVuSans-38" d="M 2034 2216 
Q 1584 2216 1326 1975 
Q 1069 1734 1069 1313 
Q 1069 891 1326 650 
Q 1584 409 2034 409 
Q 2484 409 2743 651 
Q 3003 894 3003 1313 
Q 3003 1734 2745 1975 
Q 2488 2216 2034 2216 
z
M 1403 2484 
Q 997 2584 770 2862 
Q 544 3141 544 3541 
Q 544 4100 942 4425 
Q 1341 4750 2034 4750 
Q 2731 4750 3128 4425 
Q 3525 4100 3525 3541 
Q 3525 3141 3298 2862 
Q 3072 2584 2669 2484 
Q 3125 2378 3379 2068 
Q 3634 1759 3634 1313 
Q 3634 634 3220 271 
Q 2806 -91 2034 -91 
Q 1263 -91 848 271 
Q 434 634 434 1313 
Q 434 1759 690 2068 
Q 947 2378 1403 2484 
z
M 1172 3481 
Q 1172 3119 1398 2916 
Q 1625 2713 2034 2713 
Q 2441 2713 2670 2916 
Q 2900 3119 2900 3481 
Q 2900 3844 2670 4047 
Q 2441 4250 2034 4250 
Q 1625 4250 1398 4047 
Q 1172 3844 1172 3481 
z
" transform="scale(0.015625)"/>
      </defs>
      <use xlink:href="#DejaVuSans-4d" transform="translate(0 0.578125)"/>
      <use xlink:href="#DejaVuSans-52" transform="translate(86.279297 0.578125)"/>
      <use xlink:href="#DejaVuSans-4c" transform="translate(155.761719 0.578125)"/>
      <use xlink:href="#DejaVuSans-3a" transform="translate(211.474609 0.578125)"/>
      <use xlink:href="#DejaVuSans-20" transform="translate(245.166016 0.578125)"/>
      <use xlink:href="#DejaVuSans-55" transform="translate(276.953125 0.578125)"/>
      <use xlink:href="#DejaVuSans-54" transform="translate(348.396484 0.578125)"/>
      <use xlink:href="#DejaVuSans-52" transform="translate(409.480469 0.578125)"/>
      <use xlink:href="#DejaVuSans-2d" transform="translate(478.962891 0.578125)"/>
      <use xlink:href="#DejaVuSans-4c" transform="translate(515.046875 0.578125)"/>
      <use xlink:href="#DejaVuSans-4d" transform="translate(570.759766 0.578125)"/>
      <use xlink:href="#DejaVuSans-7c" transform="translate(657.039062 0.578125)"/>
      <use xlink:href="#DejaVuSans-Oblique-41" transform="translate(690.730469 0.578125)"/>
      <use xlink:href="#DejaVuSans-Oblique-55" transform="translate(759.138672 0.578125)"/>
      <use xlink:href="#DejaVuSans-Oblique-43" transform="translate(832.332031 0.578125)"/>
      <use xlink:href="#DejaVuSans-35" transform="translate(902.15625 -15.828125) scale(0.7)"/>
      <use xlink:href="#DejaVuSans-30" transform="translate(946.692383 -15.828125) scale(0.7)"/>
      <use xlink:href="#DejaVuSans-25" transform="translate(991.228516 -15.828125) scale(0.7)"/>
      <use xlink:href="#DejaVuSans-3d" transform="translate(1060.476562 0.578125)"/>
      <use xlink:href="#DejaVuSans-32" transform="translate(1144.265625 0.578125)"/>
      <use xlink:href="#DejaVuSans-38" transform="translate(1207.888672 0.578125)"/>
      <use xlink:href="#DejaVuSans-7c" transform="translate(1271.511719 0.578125)"/>
      <use xlink:href="#DejaVuSans-Oblique-41" transform="translate(1305.203125 0.578125)"/>
      <use xlink:href="#DejaVuSans-Oblique-55" transform="translate(1373.611328 0.578125)"/>
      <use xlink:href="#DejaVuSans-Oblique-43" transform="translate(1446.804688 0.578125)"/>
      <use xlink:href="#DejaVuSans-31" transform="translate(1516.628906 -15.828125) scale(0.7)"/>
      <use xlink:href="#DejaVuSans-30" transform="translate(1561.165039 -15.828125) scale(0.7)"/>
      <use xlink:href="#DejaVuSans-30" transform="translate(1605.701172 -15.828125) scale(0.7)"/>
      <use xlink:href="#DejaVuSans-25" transform="translate(1650.237305 -15.828125) scale(0.7)"/>
      <use xlink:href="#DejaVuSans-3d" transform="translate(1719.485352 0.578125)"/>
      <use xlink:href="#DejaVuSans-31" transform="translate(1803.274414 0.578125)"/>
      <use xlink:href="#DejaVuSans-30" transform="translate(1866.897461 0.578125)"/>
      <use xlink:href="#DejaVuSans-37" transform="translate(1930.520508 0.578125)"/>
      <use xlink:href="#DejaVuSans-7c" transform="translate(1994.143555 0.578125)"/>
      <use xlink:href="#DejaVuSans-53" transform="translate(2027.834961 0.578125)"/>
      <use xlink:href="#DejaVuSans-70" transform="translate(2091.311523 0.578125)"/>
      <use xlink:href="#DejaVuSans-65" transform="translate(2154.788086 0.578125)"/>
      <use xlink:href="#DejaVuSans-61" transform="translate(2216.311523 0.578125)"/>
      <use xlink:href="#DejaVuSans-72" transform="translate(2277.59082 0.578125)"/>
      <use xlink:href="#DejaVuSans-6d" transform="translate(2318.704102 0.578125)"/>
      <use xlink:href="#DejaVuSans-61" transform="translate(2416.116211 0.578125)"/>
      <use xlink:href="#DejaVuSans-6e" transform="translate(2477.395508 0.578125)"/>
      <use xlink:href="#DejaVuSans-3d" transform="translate(2540.774414 0.578125)"/>
      <use xlink:href="#DejaVuSans-30" transform="translate(2624.563477 0.578125)"/>
      <use xlink:href="#DejaVuSans-2e" transform="translate(2688.186523 0.578125)"/>
      <use xlink:href="#DejaVuSans-34" transform="translate(2719.973633 0.578125)"/>
      <use xlink:href="#DejaVuSans-32" transform="translate(2783.59668 0.578125)"/>
     </g>
    </g>
    <g id="line2d_24">
     <path d="M 60.3 82.148906 
L 67.3 82.148906 
L 74.3 82.148906 
" style="fill: none; stroke-dasharray: 1.5,2.475; stroke-dashoffset: 0; stroke: #000000; stroke-width: 1.5"/>
    </g>
    <g id="text_24">
     <!-- y=x -->
     <g transform="translate(79.9 84.598906) scale(0.07 -0.07)">
      <defs>
       <path id="DejaVuSans-79" d="M 2059 -325 
Q 1816 -950 1584 -1140 
Q 1353 -1331 966 -1331 
L 506 -1331 
L 506 -850 
L 844 -850 
Q 1081 -850 1212 -737 
Q 1344 -625 1503 -206 
L 1606 56 
L 191 3500 
L 800 3500 
L 1894 763 
L 2988 3500 
L 3597 3500 
L 2059 -325 
z
" transform="scale(0.015625)"/>
       <path id="DejaVuSans-78" d="M 3513 3500 
L 2247 1797 
L 3578 0 
L 2900 0 
L 1881 1375 
L 863 0 
L 184 0 
L 1544 1831 
L 300 3500 
L 978 3500 
L 1906 2253 
L 2834 3500 
L 3513 3500 
z
" transform="scale(0.015625)"/>
      </defs>
      <use xlink:href="#DejaVuSans-79"/>
      <use xlink:href="#DejaVuSans-3d" x="59.179688"/>
      <use xlink:href="#DejaVuSans-78" x="142.96875"/>
     </g>
    </g>
   </g>
  </g>
 </g>
 <defs>
  <clipPath id="p995690c172">
   <rect x="54" y="51.84" width="334.8" height="332.64"/>
  </clipPath>
 </defs>
</svg>
